<?xml version="1.0" standalone="no"?>
<!DOCTYPE svg PUBLIC "-//W3C//DTD SVG 20010904//EN"
 "http://www.w3.org/TR/2001/REC-SVG-20010904/DTD/svg10.dtd">
<svg version="1.0" xmlns="http://www.w3.org/2000/svg"
 width="200.000000pt" height="247.000000pt" viewBox="0 0 200.000000 247.000000"
 preserveAspectRatio="xMidYMid meet">

<g transform="translate(0.000000,247.000000) scale(0.100000,-0.100000)"
fill="#000000" stroke="none">
<path d="M967 2292 c-22 -24 -21 -32 3 -32 14 0 20 7 21 23 l0 22 9 -22 c10
-25 40 -31 40 -8 0 14 -29 35 -48 35 -5 0 -16 -8 -25 -18z"/>
<path d="M960 2230 c7 -13 21 -20 39 -20 20 0 30 6 34 20 5 18 0 20 -39 20
-42 0 -44 -1 -34 -20z"/>
<path d="M951 2184 c0 -11 3 -14 6 -6 3 7 2 16 -1 19 -3 4 -6 -2 -5 -13z"/>
<path d="M1031 2184 c0 -11 3 -14 6 -6 3 7 2 16 -1 19 -3 4 -6 -2 -5 -13z"/>
<path d="M972 2150 c-1 -19 -5 -46 -7 -60 l-6 -25 11 25 c6 13 9 40 7 60 l-4
35 -1 -35z"/>
<path d="M720 2155 c-7 -8 -8 -15 -2 -15 5 0 15 7 22 15 7 8 8 15 2 15 -5 0
-15 -7 -22 -15z"/>
<path d="M1256 2155 c4 -8 10 -15 15 -15 4 0 6 7 3 15 -4 8 -10 15 -15 15 -4
0 -6 -7 -3 -15z"/>
<path d="M1014 2120 c6 -56 16 -64 14 -11 -1 23 -5 44 -10 47 -4 3 -6 -14 -4
-36z"/>
<path d="M712 2100 c0 -14 2 -19 5 -12 2 6 2 18 0 25 -3 6 -5 1 -5 -13z"/>
<path d="M1272 2100 c0 -14 2 -19 5 -12 2 6 2 18 0 25 -3 6 -5 1 -5 -13z"/>
<path d="M483 2098 c-17 -22 -23 -52 -13 -68 7 -11 10 -8 10 16 0 16 5 35 12
42 6 6 9 14 6 17 -3 3 -10 0 -15 -7z"/>
<path d="M1503 2085 c8 -16 17 -37 20 -45 4 -10 6 -8 6 6 1 12 -8 32 -19 45
l-21 24 14 -30z"/>
<path d="M845 2083 c-27 -8 -60 -17 -73 -20 -17 -4 -20 -9 -12 -18 6 -8 7 -16
2 -19 -5 -3 -15 6 -22 20 -10 17 -16 21 -21 12 -5 -7 -26 -11 -55 -9 -56 3
-167 -36 -159 -56 6 -18 -5 -44 -16 -37 -5 3 -9 0 -9 -6 0 -7 14 -17 30 -23
18 -7 30 -19 30 -30 0 -16 2 -17 21 -4 20 14 59 12 59 -3 0 -15 -30 -32 -45
-26 -22 8 -18 -3 8 -25 26 -22 65 -25 73 -5 5 12 11 13 29 4 30 -13 75 12 75
42 0 24 -17 35 -33 21 -7 -5 -23 -8 -35 -4 -21 5 -22 7 -7 23 10 11 24 16 37
12 17 -4 19 -2 10 14 -15 29 7 57 31 39 11 -8 15 -19 11 -29 -5 -14 -2 -16 17
-11 13 3 31 1 39 -5 13 -9 13 -11 0 -20 -8 -6 -23 -8 -33 -6 -26 6 -33 -21
-12 -44 21 -23 53 -26 80 -6 14 10 25 11 46 3 39 -15 79 4 79 38 0 28 0 28
-34 15 -17 -6 -26 -6 -26 0 0 6 -7 10 -15 10 -21 0 -19 13 5 28 15 9 26 10 41
2 18 -10 19 -9 13 15 -3 14 -1 31 5 39 9 10 7 17 -6 27 -14 12 -16 12 -8 0 5
-10 4 -12 -3 -7 -7 4 -12 20 -12 37 0 25 -4 29 -27 28 -16 0 -50 -7 -78 -16z
m-105 -54 c0 -5 -4 -9 -10 -9 -5 0 -10 7 -10 16 0 8 5 12 10 9 6 -3 10 -10 10
-16z m150 -119 c0 -5 -4 -10 -10 -10 -5 0 -10 5 -10 10 0 6 5 10 10 10 6 0 10
-4 10 -10z m-225 -40 c3 -5 2 -10 -4 -10 -5 0 -13 5 -16 10 -3 6 -2 10 4 10 5
0 13 -4 16 -10z"/>
<path d="M1042 2075 c3 -15 -1 -30 -10 -37 -13 -11 -14 -11 -7 1 5 10 4 12 -3
7 -16 -10 -15 -33 1 -39 9 -3 9 -9 0 -25 -14 -23 -6 -37 12 -22 8 7 21 6 40
-4 l27 -14 -22 -12 c-12 -6 -32 -9 -45 -6 -32 8 -40 -9 -21 -39 18 -27 63 -34
84 -13 9 9 16 8 30 -5 25 -23 58 -21 82 3 24 24 18 40 -14 40 -13 0 -29 6 -35
14 -9 11 -7 15 13 20 13 3 32 3 40 0 12 -5 15 -2 10 10 -6 16 22 53 33 42 4
-3 6 -19 6 -35 0 -24 5 -30 29 -35 15 -3 28 -10 28 -15 0 -13 -42 -22 -55 -11
-15 13 -25 2 -25 -26 0 -28 33 -48 66 -40 13 4 33 1 44 -6 28 -18 88 15 96 51
3 14 7 31 9 38 2 6 19 10 38 9 28 -1 33 2 29 16 -2 10 -8 16 -12 13 -11 -7
-33 22 -25 35 4 6 -17 21 -49 36 -42 19 -69 25 -108 23 -35 -2 -53 1 -56 10
-3 8 -11 3 -24 -16 -14 -19 -18 -22 -14 -8 5 18 -3 23 -72 43 -105 30 -126 29
-120 -3z m225 -47 c-3 -8 -6 -5 -6 6 -1 11 2 17 5 13 3 -3 4 -12 1 -19z m-137
-118 c0 -5 -4 -10 -10 -10 -5 0 -10 5 -10 10 0 6 5 10 10 10 6 0 10 -4 10 -10z
m310 -32 c0 -18 -32 -20 -51 -2 l-21 19 24 6 c23 6 48 -6 48 -23z m-90 -8 c0
-5 -4 -10 -10 -10 -5 0 -10 5 -10 10 0 6 5 10 10 10 6 0 10 -4 10 -10z"/>
<path d="M970 1855 c-24 -14 -23 -14 30 -15 55 0 55 0 26 15 -15 8 -29 15 -30
15 0 -1 -12 -7 -26 -15z"/>
<path d="M752 1840 c-23 -19 -22 -19 65 -13 99 6 131 16 88 27 -16 4 -32 3
-38 -3 -13 -13 -52 -14 -75 -2 -12 6 -24 4 -40 -9z"/>
<path d="M1080 1850 l-25 -7 25 -6 c14 -3 62 -8 108 -11 83 -5 83 -5 60 13
-17 15 -27 17 -42 9 -17 -9 -52 -8 -86 5 -8 3 -26 2 -40 -3z"/>
<path d="M656 1814 c-5 -12 -2 -15 10 -10 8 3 23 6 32 6 15 0 15 2 2 10 -22
14 -37 12 -44 -6z"/>
<path d="M1295 1820 c-13 -6 -15 -9 -5 -9 8 -1 26 -4 40 -8 22 -6 24 -5 11 10
-15 19 -17 19 -46 7z"/>
<path d="M980 1804 c-11 -12 -10 -18 3 -32 16 -15 18 -15 34 0 13 14 14 20 3
32 -7 9 -16 16 -20 16 -4 0 -13 -7 -20 -16z"/>
<path d="M791 1786 c-7 -9 -8 -17 -3 -20 17 -10 72 6 72 20 0 19 -54 18 -69 0z"/>
<path d="M1135 1791 c-6 -11 1 -16 37 -25 30 -7 49 11 27 25 -18 12 -56 11
-64 0z"/>
<path d="M654 1757 c1 -12 7 -22 15 -22 22 0 23 19 2 32 -16 10 -18 8 -17 -10z"/>
<path d="M1310 1745 c12 -15 30 -12 30 6 0 5 -10 9 -21 9 -18 0 -19 -2 -9 -15z"/>
<path d="M1015 1645 c-40 -39 -31 -89 18 -110 80 -34 147 62 81 114 -35 28
-69 26 -99 -4z m87 -20 c14 -32 0 -78 -25 -83 -23 -5 -57 25 -57 50 0 57 60
81 82 33z"/>
<path d="M875 1643 c4 -10 9 -42 12 -71 6 -54 6 -54 36 -48 16 3 33 6 38 6 5
0 9 7 9 15 0 13 -3 13 -20 3 -26 -16 -30 -10 -37 56 -5 47 -9 56 -25 56 -15 0
-18 -4 -13 -17z"/>
<path d="M756 1619 c-3 -8 -6 -42 -8 -77 -2 -44 1 -62 10 -62 6 0 12 11 12 25
0 32 25 43 49 21 18 -17 41 -22 41 -8 -1 4 -23 31 -50 61 -33 37 -51 50 -54
40z m34 -60 c0 -5 -4 -9 -10 -9 -5 0 -10 7 -10 16 0 8 5 12 10 9 6 -3 10 -10
10 -16z"/>
<path d="M1192 1576 c-37 -62 -38 -66 -16 -66 8 0 13 4 10 9 -3 5 3 20 14 32
l19 24 1 -42 c0 -24 3 -43 7 -43 4 0 20 12 36 28 l28 27 -3 -39 c-5 -63 17
-52 31 15 7 34 10 64 6 67 -3 3 -20 -9 -38 -26 -18 -18 -36 -29 -40 -26 -4 4
-7 27 -7 51 0 24 -3 43 -8 43 -4 0 -22 -24 -40 -54z"/>
<path d="M607 1554 l-27 -15 20 -21 c11 -12 28 -39 38 -59 17 -37 17 -37 45
-21 15 9 30 25 33 35 6 19 -11 47 -30 47 -6 0 -16 10 -21 22 -13 28 -24 30
-58 12z m40 -19 c8 -22 -6 -33 -17 -15 -13 20 -12 30 0 30 6 0 13 -7 17 -15z
m43 -50 c10 -13 11 -18 1 -28 -10 -9 -15 -8 -27 7 -8 11 -14 23 -14 28 0 14
27 9 40 -7z"/>
<path d="M1410 1531 c0 -4 -16 -28 -35 -53 -30 -41 -35 -58 -15 -58 3 0 20 20
38 45 34 49 52 57 52 25 0 -12 -10 -25 -22 -30 -21 -9 -20 -9 7 -7 40 3 48 42
13 69 -25 19 -38 23 -38 9z"/>
<path d="M931 1274 l-174 -207 7 -123 7 -124 -81 0 -80 0 0 30 c0 17 -3 30 -7
29 -5 0 -36 -33 -70 -73 l-62 -73 24 -50 c26 -57 40 -70 52 -49 4 8 22 16 38
19 l30 4 -33 2 c-31 1 -33 3 -30 34 3 28 7 32 31 32 15 -1 27 3 27 7 0 4 -9 8
-20 8 -13 0 -20 7 -20 20 0 17 7 20 51 20 31 0 48 -4 44 -10 -3 -5 -2 -10 4
-10 5 0 13 5 16 10 10 16 112 12 118 -5 8 -19 -9 -28 -39 -21 -17 5 -23 3 -19
-4 3 -5 19 -10 36 -10 26 0 29 -3 29 -30 0 -25 -4 -30 -25 -30 -14 0 -25 -4
-25 -9 0 -4 11 -6 25 -3 22 4 25 1 25 -22 0 -24 -3 -26 -45 -26 l-45 0 0 49
c0 47 -17 81 -40 81 -23 0 -40 -34 -40 -81 l0 -49 -45 0 c-34 0 -45 -4 -45
-16 0 -21 97 -114 154 -148 38 -22 166 -76 180 -76 6 0 226 247 226 254 0 3
-9 6 -20 6 -11 0 -20 7 -20 15 0 11 12 15 51 15 46 0 51 -2 46 -20 -3 -11 -1
-23 4 -26 5 -3 9 7 9 22 0 24 3 26 30 22 19 -3 30 0 30 7 0 8 -10 10 -25 7
-22 -4 -25 -1 -25 26 0 27 4 31 32 34 17 2 33 10 36 18 4 12 2 13 -9 3 -21
-21 -59 -16 -59 7 0 18 7 20 59 20 38 0 61 -5 65 -12 5 -10 7 -10 12 0 3 7 25
12 55 12 42 0 49 -3 49 -20 0 -24 -38 -28 -46 -5 -4 8 -10 15 -14 15 -5 0 -3
-10 3 -22 7 -16 19 -23 41 -24 30 0 31 1 27 35 -6 52 -28 63 -129 65 l-87 1 3
55 c1 30 5 95 8 143 l6 88 67 -3 66 -3 3 -82 c2 -46 6 -83 10 -82 13 1 137
150 140 169 5 27 -41 110 -97 178 -56 67 -145 131 -226 161 -104 39 -81 54
-274 -175z m319 -79 c0 -8 9 -15 20 -15 11 0 20 7 20 15 0 8 6 15 14 15 8 0
16 -7 20 -15 3 -8 15 -15 26 -15 11 0 20 7 20 15 0 8 5 15 10 15 6 0 10 -16
10 -35 l0 -35 -80 0 -80 0 0 35 c0 19 5 35 10 35 6 0 10 -7 10 -15z m-413
-185 c4 -15 14 -20 38 -20 24 0 34 5 38 20 3 11 10 20 16 20 6 0 15 -9 21 -20
8 -15 21 -20 49 -20 30 0 40 4 44 20 3 11 13 20 22 20 9 0 19 -9 22 -20 4 -14
14 -20 33 -20 19 0 29 6 33 20 6 25 35 26 44 3 4 -10 11 -21 16 -24 14 -10 -2
-160 -19 -184 -8 -11 -27 -20 -42 -21 -60 -5 -65 -7 -27 -13 38 -6 40 -8 43
-45 4 -44 -13 -70 -28 -46 -7 10 -10 11 -10 3 0 -8 -13 -13 -29 -13 -28 0 -29
2 -33 60 -5 69 -27 100 -70 100 -51 0 -68 -29 -68 -120 l0 -80 -50 0 c-38 0
-50 4 -50 15 0 11 12 15 48 16 46 1 46 1 13 9 -19 5 -40 6 -48 3 -10 -4 -13 7
-13 45 l0 51 43 4 42 4 -46 1 c-66 3 -81 23 -89 125 -4 61 -3 85 7 95 7 7 13
18 13 23 0 18 32 9 37 -11z"/>
<path d="M910 940 c0 -5 11 -10 25 -10 14 0 25 5 25 10 0 6 -11 10 -25 10 -14
0 -25 -4 -25 -10z"/>
<path d="M1040 940 c0 -5 9 -10 19 -10 11 0 23 5 26 10 4 6 -5 10 -19 10 -14
0 -26 -4 -26 -10z"/>
<path d="M1138 933 c6 -2 18 -2 25 0 6 3 1 5 -13 5 -14 0 -19 -2 -12 -5z"/>
<path d="M1127 900 c-7 -27 -1 -39 12 -24 5 5 5 18 2 28 -7 18 -8 18 -14 -4z"/>
<path d="M850 880 c0 -5 4 -10 9 -10 6 0 13 5 16 10 3 6 -1 10 -9 10 -9 0 -16
-4 -16 -10z"/>
<path d="M930 880 c0 -5 5 -10 11 -10 5 0 7 5 4 10 -3 6 -8 10 -11 10 -2 0 -4
-4 -4 -10z"/>
<path d="M1050 874 c0 -8 5 -12 10 -9 6 3 10 10 10 16 0 5 -4 9 -10 9 -5 0
-10 -7 -10 -16z"/>
<path d="M813 833 c9 -2 25 -2 35 0 9 3 1 5 -18 5 -19 0 -27 -2 -17 -5z"/>
<path d="M1153 833 c9 -2 23 -2 30 0 6 3 -1 5 -18 5 -16 0 -22 -2 -12 -5z"/>
<path d="M858 723 c6 -2 18 -2 25 0 6 3 1 5 -13 5 -14 0 -19 -2 -12 -5z"/>
<path d="M1118 723 c7 -3 16 -2 19 1 4 3 -2 6 -13 5 -11 0 -14 -3 -6 -6z"/>
<path d="M1483 1399 c-24 -22 -43 -41 -43 -43 0 -7 38 -46 45 -46 5 0 1 8 -9
18 -15 18 -15 20 4 37 20 18 21 18 35 -1 8 -10 15 -14 15 -8 0 5 -6 16 -12 23
-11 10 -9 15 7 27 17 13 21 13 31 -1 6 -8 15 -15 19 -15 5 0 -2 11 -15 25 -13
14 -26 25 -29 25 -3 0 -25 -19 -48 -41z"/>
<path d="M1580 1309 c-25 -16 -51 -29 -57 -29 -17 0 -16 -4 7 -49 29 -58 74
-68 116 -25 28 28 27 51 -4 103 l-17 28 -45 -28z m60 -30 c23 -41 -36 -92 -80
-69 -31 17 -24 44 18 68 46 27 49 27 62 1z"/>
<path d="M326 1234 c-3 -9 -5 -18 -4 -19 2 -1 28 -15 59 -32 l57 -30 16 34
c19 39 19 43 6 43 -5 0 -10 -6 -10 -14 0 -8 -4 -18 -10 -21 -10 -6 -91 31
-101 47 -3 5 -9 2 -13 -8z"/>
<path d="M1665 1143 c-22 -7 -50 -14 -62 -15 -23 -2 -31 -22 -15 -32 5 -3 32
4 61 15 29 10 56 17 62 14 5 -4 9 1 9 9 0 23 -11 25 -55 9z"/>
<path d="M605 1132 c3 -8 5 -16 5 -18 0 -2 33 -4 74 -4 51 0 77 4 85 14 10 12
-1 15 -79 18 -72 2 -89 0 -85 -10z"/>
<path d="M348 1117 c-38 -5 -68 -13 -68 -17 0 -8 105 -90 115 -90 15 0 2 28
-16 33 -28 7 -21 41 9 45 20 3 42 28 31 35 -2 2 -34 -1 -71 -6z m2 -37 c0 -5
-4 -10 -10 -10 -5 0 -10 5 -10 10 0 6 5 10 10 10 6 0 10 -4 10 -10z"/>
<path d="M1636 1049 c-21 -17 -26 -29 -26 -65 0 -34 4 -44 16 -44 13 0 14 3 4
15 -33 39 32 101 80 75 18 -9 21 -19 18 -46 -3 -23 0 -34 9 -34 24 0 16 68
-12 95 -30 30 -54 31 -89 4z"/>
<path d="M661 1037 c-12 -15 -15 -36 -13 -79 2 -25 6 -28 37 -28 l35 0 0 48
c0 63 -30 93 -59 59z"/>
<path d="M1285 1034 c-11 -11 -15 -30 -13 -58 3 -40 4 -41 38 -41 34 0 35 1
38 43 5 64 -27 92 -63 56z"/>
<path d="M256 969 c-9 -44 -8 -50 7 -48 6 1 36 1 65 0 59 -1 65 -12 32 -54
-16 -21 -27 -25 -49 -21 -36 8 -55 -15 -46 -56 4 -19 12 -30 19 -27 7 3 38 8
68 12 47 6 55 10 51 25 -4 16 -8 17 -24 7 -28 -17 -33 -2 -10 30 14 19 20 45
21 83 2 75 2 80 -10 80 -6 0 -8 -11 -4 -25 5 -22 3 -25 -21 -25 -22 0 -26 4
-22 20 3 13 0 20 -9 20 -8 0 -14 -9 -14 -21 0 -14 -5 -19 -17 -17 -12 3 -17
12 -16 26 4 34 -14 26 -21 -9z m70 -150 c7 -12 -12 -29 -33 -29 -28 0 -11 36
19 39 4 1 10 -4 14 -10z"/>
<path d="M676 910 c6 -6 21 -6 39 -1 30 9 30 9 -9 10 -26 1 -37 -2 -30 -9z"/>
<path d="M1251 916 c11 -9 69 -14 69 -6 0 6 -16 10 -37 10 -20 0 -34 -2 -32
-4z"/>
<path d="M1610 906 c0 -8 9 -18 20 -21 28 -9 25 -43 -5 -55 -14 -5 -25 -16
-25 -23 0 -12 14 -10 70 6 39 12 70 25 70 29 0 4 -24 20 -52 34 -29 15 -54 30
-56 35 -6 14 -22 10 -22 -5z m80 -56 c0 -5 -4 -10 -10 -10 -5 0 -10 5 -10 10
0 6 5 10 10 10 6 0 10 -4 10 -10z"/>
<path d="M665 860 c-15 -6 -6 -9 33 -9 28 -1 52 4 52 9 0 12 -57 12 -85 0z"/>
<path d="M1245 860 c-4 -6 16 -10 52 -9 44 1 52 3 33 9 -36 12 -78 12 -85 0z"/>
<path d="M615 760 c-3 -6 1 -7 9 -4 18 7 21 14 7 14 -6 0 -13 -4 -16 -10z"/>
<path d="M1292 728 c-5 -7 -12 -39 -14 -70 l-5 -58 41 0 41 0 -3 57 c-4 59
-15 83 -37 83 -7 0 -17 -6 -23 -12z"/>
<path d="M1412 653 c31 -4 37 -8 41 -31 4 -24 4 -24 6 6 1 32 0 32 -41 30
l-43 -1 37 -4z"/>
<path d="M614 432 c3 -5 -10 -32 -29 -61 l-34 -52 32 -19 c35 -22 57 -26 57
-10 0 6 -9 10 -19 10 -11 0 -22 4 -26 10 -6 9 40 90 58 101 5 4 0 12 -11 18
-25 13 -35 14 -28 3z"/>
<path d="M1343 419 c-30 -19 -32 -22 -16 -37 9 -10 29 -36 43 -59 l27 -42 34
29 c19 15 31 32 26 36 -4 4 -14 -1 -21 -12 -14 -18 -16 -18 -32 -2 -18 18 -12
38 13 38 9 0 13 3 9 8 -4 4 -19 7 -33 7 -32 0 -43 24 -14 32 11 3 18 9 15 14
-8 13 -15 11 -51 -12z"/>
<path d="M714 371 c7 -11 -30 -97 -45 -107 -8 -4 -7 -9 2 -15 24 -15 37 -10
44 18 3 15 14 44 24 64 16 32 16 39 4 43 -22 9 -35 7 -29 -3z"/>
<path d="M1252 364 c-34 -23 -25 -56 18 -70 19 -6 36 -17 38 -24 6 -18 -20
-31 -35 -18 -10 8 -13 6 -13 -6 0 -22 43 -21 63 2 10 10 17 23 17 29 0 16 -32
40 -63 47 -33 8 -31 31 2 30 11 0 21 5 21 13 0 18 -21 16 -48 -3z"/>
<path d="M795 338 c-2 -7 -13 -36 -23 -65 -17 -44 -18 -53 -5 -57 8 -3 16 -6
17 -6 1 0 3 12 4 26 1 14 6 33 11 42 7 12 14 5 35 -35 14 -29 30 -54 35 -57 5
-4 17 18 26 46 10 29 22 59 28 66 5 6 7 12 4 12 -3 0 -11 2 -19 5 -9 4 -14 -3
-16 -21 -5 -60 -18 -60 -52 -1 -34 60 -38 64 -45 45z"/>
<path d="M1175 323 c3 -10 9 -31 12 -47 l6 -29 -58 37 c-31 21 -59 36 -61 34
-1 -2 2 -34 9 -71 9 -54 15 -67 29 -67 22 0 22 0 3 36 -26 51 -17 55 43 19 31
-19 58 -30 60 -25 2 6 -1 33 -7 61 -6 28 -9 55 -5 60 3 5 -5 9 -16 9 -17 0
-21 -4 -15 -17z"/>
<path d="M965 240 l0 -71 39 3 c22 2 41 8 43 14 2 7 -6 10 -22 7 -22 -5 -25
-2 -25 22 0 22 4 26 20 22 13 -3 20 0 20 9 0 9 -8 14 -17 12 -12 -2 -18 3 -18
17 0 15 6 19 23 17 12 -2 22 2 22 7 0 6 -19 11 -42 11 l-43 0 0 -70z"/>
</g>
</svg>
