<?xml version="1.0"?>
<svg width="80" height="100" xmlns="http://www.w3.org/2000/svg" xmlns:svg="http://www.w3.org/2000/svg" data-name="Capa 2">
 <defs>
  <style>.cls-1 { fill: #fff; } .cls-2 { fill: #be1622; } .cls-3 { fill: #eab917; }</style>
 </defs>
 <g class="layer">
  <title>Layer 1</title>
  <ellipse class="cls-1" cx="-437.05" cy="-12.9" id="svg_1" rx="31.8" ry="31.82"/>
  <g id="svg_3" transform="matrix(1 0 0 1 0 0)">
   <path class="cls-1" d="m306.19,2.16l-3.66,-5.18l-3.28,0l0,5.18l-2.59,0l0,-14.86l6.62,0c0.85,0 1.62,0.11 2.3,0.33s1.27,0.53 1.74,0.93c0.47,0.4 0.84,0.9 1.09,1.49c0.25,0.59 0.38,1.24 0.38,1.96c0,0.62 -0.09,1.18 -0.27,1.67c-0.18,0.49 -0.42,0.92 -0.73,1.3c-0.31,0.38 -0.68,0.69 -1.11,0.96c-0.43,0.26 -0.91,0.46 -1.43,0.6l4.01,5.63l-3.08,0l0.01,-0.01zm-0.85,-11.88c-0.54,-0.42 -1.3,-0.63 -2.28,-0.63l-3.81,0l0,5.01l3.83,0c0.94,0 1.68,-0.23 2.24,-0.68c0.55,-0.45 0.83,-1.07 0.83,-1.83c0,-0.82 -0.27,-1.45 -0.81,-1.87z" id="svg_4"/>
   <path class="cls-1" d="m314.13,-0.42c0.58,0.49 1.29,0.73 2.12,0.73c0.64,0 1.19,-0.11 1.66,-0.34c0.47,-0.23 0.93,-0.56 1.38,-1l1.51,1.34c-0.54,0.64 -1.18,1.15 -1.92,1.53c-0.74,0.38 -1.63,0.57 -2.66,0.57c-0.81,0 -1.56,-0.14 -2.26,-0.42c-0.7,-0.28 -1.31,-0.68 -1.83,-1.19c-0.52,-0.51 -0.92,-1.12 -1.22,-1.84c-0.3,-0.71 -0.45,-1.51 -0.45,-2.39c0,-0.81 0.13,-1.56 0.4,-2.27c0.27,-0.71 0.65,-1.33 1.14,-1.86s1.06,-0.95 1.73,-1.26c0.66,-0.31 1.4,-0.47 2.21,-0.47c0.89,0 1.67,0.16 2.35,0.49c0.67,0.33 1.23,0.76 1.68,1.32s0.78,1.2 1.01,1.93c0.23,0.74 0.34,1.51 0.34,2.31c0,0.11 0,0.23 -0.01,0.34c0,0.11 -0.02,0.23 -0.03,0.36l-8.24,0c0.16,0.92 0.52,1.62 1.1,2.11l-0.01,0.01zm4.63,-3.81c-0.04,-0.41 -0.13,-0.8 -0.28,-1.16c-0.14,-0.36 -0.33,-0.67 -0.57,-0.93c-0.24,-0.26 -0.53,-0.47 -0.86,-0.63c-0.33,-0.16 -0.71,-0.23 -1.14,-0.23c-0.79,0 -1.45,0.27 -1.96,0.82c-0.52,0.54 -0.83,1.26 -0.94,2.13l5.75,0z" id="svg_5"/>
   <path class="cls-1" d="m330.33,2.16l0,-1.38c-0.38,0.45 -0.87,0.84 -1.46,1.15c-0.59,0.31 -1.32,0.47 -2.17,0.47c-0.54,0 -1.05,-0.07 -1.53,-0.22s-0.9,-0.37 -1.26,-0.66c-0.36,-0.29 -0.65,-0.65 -0.87,-1.08c-0.22,-0.43 -0.33,-0.93 -0.33,-1.5l0,-0.04c0,-0.61 0.11,-1.14 0.34,-1.59s0.54,-0.83 0.94,-1.13c0.4,-0.3 0.88,-0.52 1.44,-0.67c0.56,-0.15 1.16,-0.22 1.82,-0.22s1.26,0.04 1.73,0.13c0.47,0.09 0.93,0.2 1.37,0.34l0,-0.28c0,-0.78 -0.24,-1.37 -0.71,-1.78c-0.47,-0.41 -1.16,-0.62 -2.05,-0.62c-0.64,0 -1.2,0.06 -1.7,0.19c-0.5,0.13 -1,0.3 -1.51,0.51l-0.7,-2.06c0.62,-0.28 1.26,-0.51 1.91,-0.68c0.65,-0.17 1.44,-0.25 2.36,-0.25c1.67,0 2.91,0.41 3.72,1.24c0.81,0.83 1.21,1.99 1.21,3.49l0,6.65l-2.55,0l0,-0.01zm0.06,-4.76c-0.33,-0.13 -0.71,-0.23 -1.16,-0.32s-0.92,-0.13 -1.41,-0.13c-0.81,0 -1.44,0.16 -1.89,0.47s-0.68,0.76 -0.68,1.34l0,0.04c0,0.54 0.21,0.95 0.63,1.23s0.93,0.42 1.54,0.42c0.42,0 0.82,-0.06 1.18,-0.17s0.68,-0.27 0.94,-0.48c0.27,-0.21 0.48,-0.45 0.63,-0.74c0.15,-0.29 0.22,-0.61 0.22,-0.97l0,-0.7l0,0.01z" id="svg_6"/>
   <path class="cls-1" d="m335.65,2.16l0,-15.5l2.59,0l0,15.5l-2.59,0z" id="svg_7"/>
   <path class="cls-1" d="m357.61,-11.68c0.88,0.68 1.31,1.61 1.31,2.79c0,0.45 -0.06,0.86 -0.18,1.21c-0.12,0.35 -0.27,0.66 -0.46,0.93c-0.19,0.26 -0.41,0.49 -0.67,0.69c-0.26,0.2 -0.52,0.37 -0.79,0.51c0.44,0.16 0.83,0.34 1.19,0.54c0.36,0.21 0.67,0.45 0.93,0.73c0.26,0.28 0.46,0.62 0.6,1.01s0.21,0.84 0.21,1.35c0,0.66 -0.13,1.25 -0.39,1.76s-0.63,0.94 -1.11,1.28c-0.48,0.35 -1.06,0.61 -1.74,0.78c-0.68,0.18 -1.43,0.26 -2.25,0.26l-6.87,0l0,-14.86l6.65,0c1.5,0 2.68,0.34 3.56,1.02l0.01,0zm-2.04,4.76c0.51,-0.33 0.76,-0.85 0.76,-1.55c0,-0.61 -0.22,-1.08 -0.67,-1.42c-0.44,-0.33 -1.09,-0.5 -1.94,-0.5l-3.74,0l0,3.97l3.55,0c0.85,0 1.52,-0.17 2.03,-0.5l0.01,0zm0.83,6.24c0.51,-0.35 0.76,-0.86 0.76,-1.54c0,-0.64 -0.25,-1.13 -0.75,-1.49c-0.5,-0.35 -1.27,-0.53 -2.3,-0.53l-4.13,0l0,4.08l4.32,0c0.89,0 1.59,-0.17 2.1,-0.52z" id="svg_8"/>
   <path class="cls-1" d="m368.86,2.16l0,-1.38c-0.38,0.45 -0.87,0.84 -1.46,1.15c-0.59,0.31 -1.32,0.47 -2.17,0.47c-0.54,0 -1.05,-0.07 -1.53,-0.22c-0.48,-0.15 -0.9,-0.37 -1.26,-0.66c-0.36,-0.29 -0.65,-0.65 -0.87,-1.08c-0.22,-0.43 -0.33,-0.93 -0.33,-1.5l0,-0.04c0,-0.61 0.11,-1.14 0.34,-1.59c0.23,-0.45 0.54,-0.83 0.94,-1.13c0.4,-0.3 0.88,-0.52 1.44,-0.67c0.56,-0.15 1.16,-0.22 1.82,-0.22s1.26,0.04 1.73,0.13s0.93,0.2 1.37,0.34l0,-0.28c0,-0.78 -0.24,-1.37 -0.71,-1.78c-0.47,-0.41 -1.16,-0.62 -2.05,-0.62c-0.64,0 -1.2,0.06 -1.7,0.19c-0.5,0.13 -1,0.3 -1.51,0.51l-0.7,-2.06c0.62,-0.28 1.26,-0.51 1.91,-0.68c0.65,-0.17 1.44,-0.25 2.36,-0.25c1.67,0 2.91,0.41 3.72,1.24c0.81,0.83 1.21,1.99 1.21,3.49l0,6.65l-2.55,0l0,-0.01zm0.06,-4.76c-0.33,-0.13 -0.71,-0.23 -1.16,-0.32s-0.92,-0.13 -1.41,-0.13c-0.81,0 -1.44,0.16 -1.89,0.47c-0.45,0.31 -0.68,0.76 -0.68,1.34l0,0.04c0,0.54 0.21,0.95 0.63,1.23s0.93,0.42 1.54,0.42c0.42,0 0.82,-0.06 1.18,-0.17s0.68,-0.27 0.94,-0.48c0.27,-0.21 0.48,-0.45 0.63,-0.74s0.22,-0.61 0.22,-0.97l0,-0.7l0,0.01z" id="svg_9"/>
   <path class="cls-1" d="m374.19,2.16l0,-15.5l2.59,0l0,15.5l-2.59,0z" id="svg_10"/>
   <path class="cls-1" d="m390.57,-1.17c-0.3,0.71 -0.72,1.33 -1.25,1.86c-0.53,0.53 -1.16,0.95 -1.9,1.26s-1.54,0.47 -2.4,0.47s-1.64,-0.15 -2.37,-0.46c-0.73,-0.3 -1.36,-0.72 -1.89,-1.25c-0.53,-0.53 -0.94,-1.15 -1.24,-1.85s-0.45,-1.45 -0.45,-2.26s0.15,-1.57 0.46,-2.28c0.3,-0.71 0.72,-1.34 1.25,-1.87c0.53,-0.53 1.16,-0.95 1.89,-1.26c0.73,-0.31 1.53,-0.47 2.39,-0.47s1.66,0.15 2.39,0.46c0.73,0.3 1.36,0.72 1.89,1.25c0.53,0.53 0.94,1.15 1.24,1.86c0.3,0.71 0.45,1.46 0.45,2.27s-0.15,1.56 -0.46,2.27zm-2.39,-3.63c-0.17,-0.44 -0.4,-0.82 -0.71,-1.16s-0.66,-0.59 -1.08,-0.79c-0.42,-0.19 -0.88,-0.29 -1.38,-0.29s-0.97,0.1 -1.38,0.29c-0.42,0.19 -0.77,0.45 -1.07,0.77c-0.29,0.33 -0.52,0.7 -0.67,1.14s-0.23,0.9 -0.23,1.39s0.08,0.97 0.25,1.41s0.4,0.83 0.71,1.16c0.3,0.33 0.66,0.58 1.08,0.77c0.42,0.19 0.87,0.29 1.36,0.29c0.52,0 0.99,-0.1 1.4,-0.29c0.42,-0.19 0.77,-0.45 1.07,-0.77c0.29,-0.33 0.52,-0.7 0.67,-1.14c0.15,-0.43 0.23,-0.9 0.23,-1.39s-0.08,-0.96 -0.25,-1.4l0,0.01z" id="svg_11"/>
   <path class="cls-1" d="m404.15,-8.73c0.62,-0.36 1.35,-0.55 2.2,-0.55c1.23,0 2.19,0.37 2.89,1.11c0.69,0.74 1.04,1.8 1.04,3.17l0,7.15l-2.59,0l0,-6.35c0,-0.89 -0.2,-1.57 -0.59,-2.03c-0.39,-0.47 -0.95,-0.7 -1.67,-0.7s-1.28,0.24 -1.72,0.71c-0.44,0.47 -0.67,1.16 -0.67,2.06l0,6.31l-2.59,0l0,-6.38c0,-0.88 -0.2,-1.55 -0.59,-2.01c-0.39,-0.47 -0.95,-0.7 -1.67,-0.7s-1.3,0.25 -1.73,0.74s-0.65,1.18 -0.65,2.05l0,6.29l-2.59,0l0,-11.21l2.59,0l0,1.72c0.18,-0.26 0.38,-0.5 0.59,-0.73s0.46,-0.44 0.73,-0.62c0.28,-0.19 0.59,-0.33 0.93,-0.44s0.73,-0.16 1.16,-0.16c0.81,0 1.49,0.18 2.05,0.55s0.99,0.85 1.28,1.45c0.45,-0.6 0.99,-1.08 1.6,-1.45l0,0.02z" id="svg_12"/>
   <path class="cls-1" d="m424.11,-0.96c-0.29,0.72 -0.68,1.33 -1.17,1.84c-0.49,0.5 -1.05,0.88 -1.68,1.14c-0.63,0.26 -1.28,0.38 -1.94,0.38c-0.92,0 -1.68,-0.2 -2.29,-0.59c-0.61,-0.4 -1.11,-0.86 -1.51,-1.38l0.02,5.14l-2.59,0l0,-14.61l2.59,0l0,1.87c0.41,-0.59 0.92,-1.09 1.52,-1.5c0.61,-0.4 1.36,-0.6 2.27,-0.6c0.66,0 1.31,0.13 1.93,0.38s1.18,0.63 1.66,1.14c0.49,0.5 0.88,1.11 1.18,1.84c0.3,0.72 0.44,1.55 0.44,2.48s-0.15,1.76 -0.44,2.48l0.01,-0.01zm-2.41,-3.98c-0.17,-0.45 -0.4,-0.82 -0.69,-1.14c-0.29,-0.31 -0.63,-0.55 -1.02,-0.72c-0.39,-0.17 -0.8,-0.25 -1.24,-0.25s-0.86,0.08 -1.25,0.25c-0.4,0.17 -0.74,0.41 -1.04,0.73c-0.3,0.32 -0.53,0.7 -0.71,1.14s-0.27,0.93 -0.27,1.49s0.09,1.05 0.27,1.49s0.41,0.82 0.71,1.14s0.64,0.56 1.04,0.73c0.4,0.17 0.81,0.26 1.25,0.26s0.85,-0.09 1.24,-0.26c0.39,-0.17 0.73,-0.41 1.02,-0.72s0.52,-0.69 0.69,-1.14c0.17,-0.45 0.25,-0.94 0.25,-1.5s-0.08,-1.05 -0.25,-1.5z" id="svg_13"/>
   <path class="cls-1" d="m429.81,-0.42c0.58,0.49 1.29,0.73 2.12,0.73c0.64,0 1.19,-0.11 1.66,-0.34c0.47,-0.23 0.93,-0.56 1.38,-1l1.51,1.34c-0.54,0.64 -1.18,1.15 -1.92,1.53c-0.74,0.38 -1.63,0.57 -2.66,0.57c-0.81,0 -1.56,-0.14 -2.26,-0.42c-0.7,-0.28 -1.31,-0.68 -1.83,-1.19c-0.52,-0.51 -0.92,-1.12 -1.22,-1.84c-0.3,-0.71 -0.45,-1.51 -0.45,-2.39c0,-0.81 0.13,-1.56 0.4,-2.27c0.27,-0.71 0.65,-1.33 1.14,-1.86s1.06,-0.95 1.73,-1.26c0.66,-0.31 1.4,-0.47 2.21,-0.47c0.89,0 1.67,0.16 2.35,0.49c0.67,0.33 1.23,0.76 1.68,1.32s0.78,1.2 1.01,1.93c0.23,0.74 0.34,1.51 0.34,2.31c0,0.11 0,0.23 -0.01,0.34c0,0.11 -0.02,0.23 -0.03,0.36l-8.24,0c0.16,0.92 0.52,1.62 1.1,2.11l-0.01,0.01zm4.63,-3.81c-0.04,-0.41 -0.13,-0.8 -0.28,-1.16c-0.14,-0.36 -0.33,-0.67 -0.57,-0.93c-0.24,-0.26 -0.53,-0.47 -0.86,-0.63c-0.33,-0.16 -0.71,-0.23 -1.14,-0.23c-0.79,0 -1.45,0.27 -1.96,0.82c-0.52,0.54 -0.83,1.26 -0.94,2.13l5.75,0zm-4.01,-6.24l2.25,-3.48l2.34,1.04l-2.59,2.44l-2,0z" id="svg_14"/>
   <path class="cls-1" d="m447.58,2.16l0,-1.87c-0.41,0.58 -0.92,1.08 -1.54,1.49s-1.37,0.62 -2.28,0.62c-0.66,0 -1.31,-0.13 -1.93,-0.38c-0.62,-0.25 -1.17,-0.63 -1.65,-1.14c-0.48,-0.5 -0.87,-1.11 -1.16,-1.84c-0.3,-0.72 -0.44,-1.55 -0.44,-2.48s0.14,-1.76 0.43,-2.48c0.29,-0.72 0.67,-1.33 1.15,-1.84c0.48,-0.5 1.03,-0.88 1.66,-1.14c0.63,-0.25 1.27,-0.38 1.94,-0.38c0.92,0 1.68,0.2 2.29,0.59s1.12,0.86 1.53,1.38l0,-6.03l2.59,0l0,15.5l-2.59,0zm-0.22,-7.09c-0.18,-0.44 -0.41,-0.82 -0.71,-1.14c-0.3,-0.32 -0.64,-0.56 -1.04,-0.73c-0.39,-0.17 -0.8,-0.25 -1.23,-0.25s-0.85,0.08 -1.24,0.24c-0.39,0.16 -0.73,0.4 -1.03,0.71c-0.3,0.31 -0.53,0.69 -0.7,1.14c-0.17,0.45 -0.25,0.95 -0.25,1.52s0.08,1.05 0.25,1.5c0.17,0.45 0.4,0.82 0.7,1.14s0.64,0.55 1.03,0.72c0.39,0.17 0.8,0.26 1.24,0.26s0.83,-0.09 1.23,-0.26c0.39,-0.17 0.74,-0.41 1.04,-0.73s0.53,-0.7 0.71,-1.14c0.18,-0.44 0.27,-0.93 0.27,-1.49s-0.09,-1.05 -0.27,-1.49z" id="svg_15"/>
   <path class="cls-1" d="m452.99,-10.77l0,-2.44l2.78,0l0,2.44l-2.78,0zm0.11,12.93l0,-11.21l2.59,0l0,11.21l-2.59,0z" id="svg_16"/>
   <path class="cls-1" d="m466.49,1.83c-0.71,0.39 -1.61,0.58 -2.7,0.58c-0.84,0 -1.61,-0.15 -2.31,-0.46c-0.71,-0.3 -1.32,-0.72 -1.84,-1.25c-0.52,-0.53 -0.93,-1.15 -1.22,-1.85s-0.44,-1.45 -0.44,-2.26s0.15,-1.56 0.44,-2.27c0.29,-0.71 0.7,-1.33 1.22,-1.87c0.52,-0.54 1.14,-0.96 1.85,-1.27s1.49,-0.47 2.33,-0.47c1.06,0 1.94,0.18 2.64,0.53c0.7,0.35 1.31,0.82 1.84,1.4l-1.59,1.72c-0.4,-0.41 -0.82,-0.75 -1.26,-1.01c-0.45,-0.26 -0.99,-0.39 -1.65,-0.39c-0.47,0 -0.9,0.1 -1.3,0.29c-0.4,0.19 -0.74,0.45 -1.02,0.77c-0.28,0.33 -0.51,0.7 -0.67,1.14c-0.16,0.43 -0.24,0.9 -0.24,1.39s0.08,0.98 0.24,1.42c0.16,0.44 0.39,0.82 0.69,1.15c0.3,0.33 0.65,0.58 1.06,0.77c0.41,0.19 0.86,0.29 1.36,0.29c0.61,0 1.14,-0.13 1.6,-0.39c0.46,-0.26 0.9,-0.6 1.31,-1.01l1.55,1.53c-0.55,0.62 -1.18,1.13 -1.89,1.52z" id="svg_17"/>
   <path class="cls-1" d="m477.15,2.16l0,-1.38c-0.38,0.45 -0.87,0.84 -1.47,1.15c-0.59,0.31 -1.32,0.47 -2.17,0.47c-0.54,0 -1.05,-0.07 -1.53,-0.22c-0.48,-0.15 -0.9,-0.37 -1.26,-0.66c-0.36,-0.29 -0.65,-0.65 -0.87,-1.08c-0.22,-0.43 -0.33,-0.93 -0.33,-1.5l0,-0.04c0,-0.61 0.11,-1.14 0.34,-1.59c0.23,-0.45 0.54,-0.83 0.94,-1.13c0.4,-0.3 0.88,-0.52 1.44,-0.67c0.56,-0.15 1.16,-0.22 1.82,-0.22s1.26,0.04 1.73,0.13s0.93,0.2 1.37,0.34l0,-0.28c0,-0.78 -0.24,-1.37 -0.71,-1.78c-0.47,-0.41 -1.16,-0.62 -2.05,-0.62c-0.64,0 -1.2,0.06 -1.7,0.19c-0.5,0.13 -1,0.3 -1.51,0.51l-0.7,-2.06c0.62,-0.28 1.26,-0.51 1.91,-0.68c0.65,-0.17 1.44,-0.25 2.36,-0.25c1.67,0 2.91,0.41 3.72,1.24c0.81,0.83 1.21,1.99 1.21,3.49l0,6.65l-2.55,0l0.01,-0.01zm0.06,-4.76c-0.33,-0.13 -0.71,-0.23 -1.16,-0.32s-0.92,-0.13 -1.41,-0.13c-0.81,0 -1.44,0.16 -1.89,0.47c-0.45,0.31 -0.68,0.76 -0.68,1.34l0,0.04c0,0.54 0.21,0.95 0.63,1.23s0.93,0.42 1.54,0.42c0.42,0 0.82,-0.06 1.18,-0.17c0.36,-0.11 0.68,-0.27 0.94,-0.48s0.48,-0.45 0.63,-0.74s0.22,-0.61 0.22,-0.97l0,-0.7l0,0.01z" id="svg_18"/>
   <path class="cls-1" d="m296.34,10.53l4.99,0l0,13.64l8.72,0l0,4.37l-13.71,0l0,-18.01z" id="svg_19"/>
   <path class="cls-1" d="m311.39,9.76l5.09,0l0,3.6l-5.09,0l0,-3.6zm0.1,4.86l4.89,0l0,13.92l-4.89,0l0,-13.92z" id="svg_20"/>
   <path class="cls-1" d="m318.6,14.62l4.89,0l0,1.96c0.9,-1.16 2.19,-2.26 4.17,-2.26c2.96,0 4.73,1.96 4.73,5.12l0,9.11l-4.89,0l0,-7.54c0,-1.52 -0.8,-2.34 -1.96,-2.34s-2.06,0.82 -2.06,2.34l0,7.54l-4.89,0l0,-13.92l0.01,-0.01z" id="svg_21"/>
   <path class="cls-1" d="m333.83,21.64l0,-0.05c0,-4.07 2.91,-7.28 7.03,-7.28c4.81,0 7.02,3.53 7.02,7.62c0,0.31 0,0.67 -0.03,1l-9.31,0c0.39,1.52 1.49,2.29 3.01,2.29c1.16,0 2.08,-0.44 3.09,-1.42l2.7,2.24c-1.34,1.7 -3.27,2.83 -6.05,2.83c-4.37,0 -7.46,-2.91 -7.46,-7.23zm9.47,-1.21c-0.18,-1.54 -1.08,-2.52 -2.42,-2.52s-2.16,1 -2.42,2.52l4.84,0z" id="svg_22"/>
   <path class="cls-1" d="m349.45,14.62l4.89,0l0,1.96c0.9,-1.16 2.19,-2.26 4.17,-2.26c2.96,0 4.73,1.96 4.73,5.12l0,9.11l-4.89,0l0,-7.54c0,-1.52 -0.8,-2.34 -1.96,-2.34s-2.06,0.82 -2.06,2.34l0,7.54l-4.89,0l0,-13.92l0.01,-0.01z" id="svg_23"/>
   <path class="cls-1" d="m364.2,26.79l1.83,-2.96c1.6,1.05 3.35,1.6 4.79,1.6c0.85,0 1.24,-0.26 1.24,-0.75l0,-0.05c0,-0.54 -0.77,-0.77 -2.24,-1.18c-2.75,-0.72 -4.94,-1.65 -4.94,-4.45l0,-0.05c0,-2.96 2.37,-4.61 5.58,-4.61c2.03,0 4.14,0.59 5.74,1.62l-1.67,3.09c-1.44,-0.8 -3.01,-1.29 -4.12,-1.29c-0.75,0 -1.13,0.28 -1.13,0.67l0,0.05c0,0.54 0.8,0.8 2.26,1.24c2.75,0.77 4.94,1.72 4.94,4.43l0,0.05c0,3.06 -2.29,4.66 -5.69,4.66c-2.34,0 -4.66,-0.67 -6.59,-2.06l0,-0.01z" id="svg_24"/>
   <path class="cls-1" d="m377.4,21.64l0,-0.05c0,-4.07 2.91,-7.28 7.02,-7.28c4.81,0 7.03,3.53 7.03,7.62c0,0.31 0,0.67 -0.03,1l-9.32,0c0.39,1.52 1.49,2.29 3.01,2.29c1.16,0 2.08,-0.44 3.09,-1.42l2.7,2.24c-1.34,1.7 -3.27,2.83 -6.05,2.83c-4.37,0 -7.46,-2.91 -7.46,-7.23l0.01,0zm9.47,-1.21c-0.18,-1.54 -1.08,-2.52 -2.42,-2.52s-2.16,1 -2.42,2.52l4.84,0z" id="svg_25"/>
  </g>
  <g id="svg_26">
   <g id="svg_27">
    <path class="cls-1" d="m58.45,32.43l2.89,-3.22c0.16,-0.18 0.36,-0.34 0.59,-0.47c6.56,-3.79 7.62,-7.89 7.36,-10.65c-0.33,-3.53 -3.25,-6.83 -7.24,-8.21c-1.21,-0.42 -2.43,-0.63 -3.63,-0.63c-1.14,0 -2.25,0.2 -3.24,0.59c-2.35,-2.46 -6.35,-4 -10.41,-4c-0.4,0 -0.81,0.01 -1.2,0.04l0,-3.73l-1.38,0l0,-1.16l-4.47,0l0,1.16l-1.38,0l0,3.72c-0.39,-0.03 -0.79,-0.04 -1.2,-0.04c-4.07,0 -8.06,1.53 -10.41,4c-0.99,-0.38 -2.1,-0.59 -3.24,-0.59s-2.42,0.21 -3.63,0.63c-4,1.37 -6.9,4.68 -7.24,8.21c-0.26,2.75 0.78,6.81 7.27,10.59c0.22,0.13 0.41,0.29 0.58,0.47l2.96,3.3c-11.59,6.01 -19.42,17.48 -19.42,30.64c0,19.4 16.99,35.12 37.95,35.12s37.95,-15.72 37.95,-35.12c0,-13.17 -7.84,-24.65 -19.44,-30.65l-0.01,-0.01z" id="svg_28"/>
    <path class="cls-3" d="m48.18,68.1l-0.85,7.31l-4.09,0l0,-6.38c0,-1.27 -1.16,-2.62 -3.31,-2.62s-3.31,1.35 -3.31,2.62l0,6.38l-4.09,0l-0.85,-7.31s0,0 0,-0.01c0,-0.03 0,-0.05 -0.02,-0.07c0,0 0,-0.01 0,-0.02c-0.01,-0.03 -0.02,-0.06 -0.05,-0.09c0,0 0,-0.01 -0.01,-0.02c-0.01,-0.02 -0.03,-0.04 -0.05,-0.06c0,0 -0.01,-0.01 -0.02,-0.02c-0.02,-0.02 -0.06,-0.04 -0.08,-0.06l-1.81,-1.08l-0.38,-7.17l1.51,0l0,-1.47l1.99,0l0,1.47l3.46,0l0,-1.47l1.99,0l0,1.47l3.46,0l0,-1.47l1.99,0l0,1.47l3.46,0l0,-1.47l1.99,0l0,1.47l1.51,0l-0.38,7.17l-1.81,1.08s-0.06,0.04 -0.08,0.06c0,0 -0.01,0.01 -0.02,0.02c-0.02,0.02 -0.03,0.04 -0.05,0.06c0,0 0,0.01 -0.01,0.02c-0.02,0.03 -0.03,0.05 -0.05,0.09c0,0 0,0.01 0,0.02c0,0.02 -0.01,0.05 -0.02,0.07c0,0 0,0 0,0.01l-0.02,0zm10.78,-15.84l0,-2.83l-1.31,0l0,1.47l-1.9,0l0,-1.47l-1.83,0l0,1.47l-1.9,0l0,-1.47l-1.31,0l0,2.83l8.26,0zm2.96,24.26l-0.91,-7.88s-0.03,0 -0.06,0l-12.24,0s-0.03,0 -0.06,0l-0.91,7.88l5.14,0l0,-4.25c0,-0.8 0.75,-1.52 1.95,-1.52s1.95,0.72 1.95,1.52l0,4.25l5.14,0l0.01,0zm-3.69,-22.03l0.64,11.96l-8.11,0l0.64,-11.96s0.02,0 0.02,0l6.76,0s0.02,0 0.02,0l0.01,0zm-1.73,3.82c0,-0.68 -0.64,-1.31 -1.68,-1.31s-1.68,0.63 -1.68,1.31l0,3.66l3.35,0l0,-3.66l0.01,0zm-5.8,-5.56l0.75,1.25l6.76,0l0.75,-1.25l-8.26,0zm-1.99,15.4l12.24,0l-2.04,-1.21l-8.15,0l-2.04,1.21l-0.01,0zm-19.52,-15.89l0,-2.83l-1.31,0l0,1.47l-1.9,0l0,-1.47l-1.83,0l0,1.47l-1.9,0l0,-1.47l-1.31,0l0,2.83l8.26,0zm1.99,16.38l-12.24,0s-0.03,0 -0.06,0l-0.91,7.88l5.14,0l0,-4.25c0,-0.8 0.75,-1.52 1.95,-1.52s1.95,0.72 1.95,1.52l0,4.25l5.14,0l-0.91,-7.88s-0.03,0 -0.06,0l0.01,0zm-2.74,-14.15s0.02,0 0.02,0l0.64,11.96l-8.11,0l0.64,-11.96s0.02,0 0.02,0l6.76,0l0.01,0zm-1.7,3.82c0,-0.68 -0.64,-1.31 -1.68,-1.31s-1.68,0.63 -1.68,1.31l0,3.66l3.36,0l0,-3.66zm2.45,-5.56l-8.26,0l0.75,1.25l6.76,0l0.75,-1.25l0,0zm-0.05,14.19l-8.15,0l-2.04,1.21l12.24,0l-2.04,-1.21l-0.01,0z" id="svg_29"/>
    <path d="m64.71,42.19l-1.23,-1.18l1.64,0.44l-0.4,0.76l0,-0.01zm-2.87,5.83l4.94,-2.73l1.14,1.76c1.06,1.63 0.64,3.14 -0.77,3.93l-0.01,0c-1.43,0.8 -3.1,0.43 -4.17,-1.23l-1.12,-1.74l-0.01,0zm2.03,0.6l0.33,0.51c0.48,0.76 1.27,1.01 2.06,0.56l0.01,0c0.79,-0.45 0.92,-1.2 0.44,-1.96l-0.33,-0.51l-2.51,1.39l0,0.01zm-2.81,-1.5l0.97,-0.87l-2.15,-2.06l0.66,-0.59l1.92,1.83l0.9,-0.81l-1.92,-1.83l0.62,-0.56l2.12,2.02l0.97,-0.87l-3.22,-3.07l-4.12,3.71l3.25,3.1l0.02,0zm-37.54,14.86l3.2,0l0,-3.51l0,0s0,-0.16 0,-0.16c0,-0.68 -0.64,-1.31 -1.68,-1.31s-1.68,0.63 -1.68,1.31l0,3.66l0.15,0l0.01,0.01zm52.92,0.98c0,9.03 -3.8,17.51 -10.69,23.88c-6.9,6.38 -16.07,9.89 -25.81,9.89s-18.92,-3.52 -25.81,-9.89c-6.9,-6.38 -10.69,-14.87 -10.69,-23.88s3.8,-17.51 10.69,-23.88c6.9,-6.38 16.07,-9.89 25.81,-9.89s18.92,3.52 25.81,9.89c6.9,6.38 10.69,14.87 10.69,23.88zm-1.46,0c0,-17.88 -15.72,-32.43 -35.05,-32.43s-35.05,14.55 -35.05,32.44s15.72,32.43 35.05,32.43s35.05,-14.55 35.05,-32.43l0,-0.01zm-9.69,0c0,4.08 -1.13,7.91 -3.12,11.25l0.32,2.8l-2.3,0c-4.63,5.7 -11.99,9.41 -20.27,9.41s-15.64,-3.71 -20.27,-9.41l-2.3,0l0.32,-2.8c-1.98,-3.35 -3.12,-7.18 -3.12,-11.25c0,-12.94 11.38,-23.47 25.36,-23.47s25.36,10.53 25.36,23.47l0.02,0zm-16.88,4.79l1.81,-1.08l0.08,-1.44l0.31,-5.73l-1.51,0l0,-1.47l-1.99,0l0,1.47l-3.46,0l0,-1.47l-1.99,0l0,1.47l-3.46,0l0,-1.47l-1.99,0l0,1.47l-3.46,0l0,-1.47l-1.99,0l0,1.47l-1.51,0l0.38,7.17l1.81,1.08s0.06,0.04 0.08,0.06c0,0 0.01,0.01 0.02,0.02c0.02,0.02 0.03,0.04 0.05,0.06c0,0 0,0.01 0.01,0.02c0.02,0.03 0.03,0.05 0.05,0.09c0,0 0,0.01 0,0.02c0,0.02 0.01,0.05 0.02,0.07c0,0 0,0 0,0.01l0.85,7.31l4.09,0l0,-6.38l0,0c0,-0.71 0.37,-1.45 1.07,-1.96c0.08,-0.05 0.16,-0.11 0.24,-0.16c0.52,-0.31 1.19,-0.49 1.99,-0.49s1.47,0.19 1.99,0.49c0.08,0.05 0.17,0.11 0.24,0.16c0.7,0.51 1.07,1.25 1.07,1.96l0,0l0,6.38l4.09,0l0.22,-1.85l0,0s0.63,-5.47 0.63,-5.47c0,0 0,0 0,-0.01c0,-0.03 0,-0.05 0.02,-0.07c0,0 0,-0.01 0,-0.02c0.01,-0.03 0.02,-0.06 0.05,-0.09c0,0 0,-0.01 0.01,-0.02c0.01,-0.02 0.02,-0.03 0.03,-0.04c0,0 0,0 0.01,-0.01c0,0 0,0 0,0c0,0 0,-0.01 0.01,-0.01c0.02,-0.02 0.06,-0.04 0.08,-0.06l0.02,-0.01zm-26.18,-16.85l0,-1.47l-1.31,0l0,2.83l8.26,0l0,-2.83l-1.31,0l0,1.47l-1.9,0l0,-1.47l-1.83,0l0,1.47l-1.9,0zm-1.31,1.87l0.75,1.25l6.76,0l0.75,-1.25l-8.26,0zm0.73,1.74l-0.54,10.14l0,0s-0.1,1.82 -0.1,1.82l8.11,0l-0.54,-9.99l0,0s-0.1,-1.97 -0.1,-1.97c0,0 -0.02,0 -0.02,0l-6.76,0s-0.02,0 -0.02,0l-0.01,0zm9.52,13.66l-2.04,-1.21l-8.15,0l-2.04,1.21l12.24,0l-0.01,0zm22.74,-17.26l-1.9,0l0,-1.47l-1.31,0l0,2.83l8.26,0l0,-2.83l-1.31,0l0,1.47l-1.9,0l0,-1.47l-1.83,0l0,1.47zm-2.46,3.11l6.76,0l0.75,-1.25l-8.26,0l0.75,1.25zm9.5,14.15l-2.04,-1.21l-8.15,0l-2.04,1.21l12.24,0l-0.01,0zm-2.34,-6.68l0,0l-0.38,-6.97s-0.02,0 -0.02,0l-6.76,0s-0.02,0 -0.02,0l-0.64,11.96l8.11,0l-0.26,-4.98l-0.01,-0.01zm-37.82,-12.53l1.98,0l0,1.47l0.83,0l0,-1.47l2.9,0l0,1.47l0.83,0l0,-1.47l2.38,0l0,3.82l0,0s0,0 0,0c0,0.01 0,0.03 0,0.04c0,0 0,0.01 0,0.02c0,0.01 0,0.02 0,0.03c0,0 0,0 0,0.01c0,0 0,0.01 0,0.02c0,0.01 0,0.03 -0.01,0.04c0,0 0,0.01 0,0.02c0,0.01 -0.01,0.03 -0.02,0.04c0,0 0,0 0,0.01l0,0s0,0.01 0,0.01l-0.67,1.11l0.09,1.79l14.07,-15.38c-1.05,-0.13 -2.12,-0.19 -3.2,-0.19c-7.75,0 -14.67,3.37 -19.15,8.59l-0.03,0.01zm-4.22,20.63l3.96,-4.33l0.6,-11.13l-0.67,-1.12s-0.01,-0.02 -0.02,-0.03c0,0 0,-0.01 0,-0.02c0,-0.02 -0.02,-0.05 -0.02,-0.07c0,0 0,-0.01 0,-0.02c0,-0.02 0,-0.05 0,-0.07c0,0 0,0 0,0l0,-3.35c-3.06,3.78 -4.88,8.47 -4.88,13.55c0,2.3 0.38,4.52 1.07,6.62l-0.03,-0.02zm2.7,6.95l3.27,0s0.58,0 0.58,0l0,-4.25c0,-0.65 0.5,-1.24 1.32,-1.45c0.2,-0.04 0.39,-0.07 0.62,-0.07l0,0c1.21,0 1.95,0.72 1.95,1.52l0,4.25l0.26,0s4.87,0 4.87,0l-0.39,-3.38l-0.52,-4.51s-0.03,0 -0.06,0l-12.23,0s-0.03,0 -0.06,0l-0.54,4.64l-0.2,1.66s0,0 0,0l-0.18,1.58l1.3,0l0,0.01zm39.78,0.49l-11.91,0l0.13,-1.11l-1.88,0l-8.66,9.46c1.05,0.13 2.12,0.19 3.2,0.19c7.73,0 14.63,-3.35 19.11,-8.55l0.01,0zm2.87,-0.49l-0.91,-7.88s-0.03,0 -0.06,0l-8.9,0s-3.34,0 -3.34,0c-0.02,0 -0.03,0 -0.06,0l-0.91,7.88l4.57,0s0.58,0 0.58,0l0,-4.25c0,-0.8 0.75,-1.52 1.95,-1.52s1.95,0.72 1.95,1.52l0,4.25l0.26,0s2.43,0 2.43,0l2.44,0zm1.39,-20.19l-4.19,4.58l0.31,5.74l1.81,1.08s0.06,0.04 0.08,0.06c0,0 0.01,0.01 0.02,0.02c0.02,0.02 0.03,0.04 0.05,0.06c0,0 0,0.01 0.01,0.02c0.02,0.03 0.03,0.05 0.05,0.09c0,0 0,0.01 0,0.02c0,0.02 0.01,0.05 0.02,0.07c0,0 0,0 0,0.01l0.53,4.54c1.51,-2.94 2.37,-6.21 2.37,-9.69c0,-2.3 -0.38,-4.52 -1.07,-6.62l0.01,0zm4.94,4.6l0.63,-1.23c-0.47,-0.25 -0.81,-0.52 -0.91,-1.07c-0.14,-0.74 0.43,-1.36 1.28,-1.5l0.01,0c0.83,-0.14 1.6,0.27 1.74,1c0.09,0.5 -0.09,0.88 -0.45,1.26l1.13,0.95c0.61,-0.58 0.96,-1.34 0.76,-2.42c-0.3,-1.59 -1.82,-2.55 -3.48,-2.28l-0.01,0c-1.69,0.28 -2.7,1.68 -2.42,3.19c0.22,1.16 0.89,1.74 1.73,2.11l-0.01,-0.01zm-15.34,-20.09l3.17,-4.44l2.06,1.26c1.21,0.74 1.59,1.79 0.89,2.78l0,0c-0.75,1.07 -2.02,1.09 -3.2,0.35l-0.66,-0.4l-0.9,1.27l-1.34,-0.81l-0.02,0zm2.93,-1.43l0.63,0.38c0.47,0.29 0.92,0.23 1.17,-0.12l0,0c0.28,-0.39 0.13,-0.78 -0.36,-1.07l-0.62,-0.38l-0.84,1.17l0.01,0.01zm16.94,24.88l-0.1,1.42l-5.94,1.9l0.12,-1.58l1.05,-0.32l0.15,-2.05l-1,-0.45l0.12,-1.55l5.62,2.62zm-1.93,0.59l-1.59,-0.7l-0.09,1.19l1.67,-0.49l0.01,0zm-0.39,-13.18l-5.39,1.84l0.55,1.39l5.39,-1.84l-0.55,-1.39zm-37.79,38.45l-1.44,-3.3l-1.43,-0.38l-1.59,5.12l1.52,0.4l0.88,-2.8l1.49,3.43l1.35,0.35l1.59,-5.12l-1.52,-0.4l-0.84,2.71zm3.34,3.15l4.66,0.22l0.07,-1.26l-3.09,-0.15l0.05,-0.84l2.75,0.13l0.07,-1.16l-2.75,-0.13l0.05,-0.81l3.04,0.14l0.07,-1.26l-4.62,-0.21l-0.29,5.32l-0.01,0.01zm-23.01,-27.59l0.13,1.47l-5.74,0.42l-0.21,-2.5c-0.07,-0.81 0.12,-1.39 0.47,-1.77c0.3,-0.33 0.73,-0.52 1.3,-0.56l0.01,0c0.88,-0.06 1.5,0.33 1.85,0.96l1.89,-1.41l0.14,1.69l-1.65,1.19l0,0s0.06,0.64 0.06,0.64l1.74,-0.13zm-2.98,0.21l-0.08,-0.97c-0.05,-0.5 -0.33,-0.77 -0.75,-0.74l-0.01,0c-0.45,0.03 -0.66,0.35 -0.61,0.84l0.08,0.96l1.38,-0.1l-0.01,0zm9.12,-19.18l-1.14,-0.75l-1.6,2.11l-3.56,-2.32l-0.92,1.2l4.7,3.07l2.52,-3.31zm2.8,-2.65l-3.41,-4.28l2.37,-1.62c0.59,-0.39 1.09,-0.54 1.57,-0.48c0.32,0.04 0.61,0.19 0.85,0.49l0,0c0.39,0.51 0.32,1.01 0.05,1.45c0.7,-0.21 1.29,-0.16 1.75,0.42l0,0c0.59,0.75 0.29,1.64 -0.82,2.39l-2.38,1.63l0.02,0.01zm-0.81,-3.43l0.81,-0.55c0.39,-0.27 0.51,-0.53 0.31,-0.79l0,0c-0.18,-0.25 -0.5,-0.25 -0.88,0.02l-0.83,0.56l0.6,0.76l-0.01,0zm0.67,0.83l0.63,0.79l0.99,-0.67c0.39,-0.27 0.51,-0.56 0.3,-0.81l0,0c-0.18,-0.25 -0.51,-0.27 -0.93,0.03l-0.98,0.67l-0.01,-0.01zm5.32,43.7l-2.56,4.76l1.44,0.66l2.57,-4.76l-1.44,-0.66l-0.01,0zm-12.85,-32.91l-0.83,1.91l0.79,0.7l-0.63,1.44l-4.46,-4.11l0.58,-1.32l6.29,-0.1l-0.64,1.47l-1.11,0l0.01,0.01zm-1.32,-0.03l-1.76,-0.02l1.28,1.12l0.48,-1.11l0,0.01zm9.58,30.15l-3.34,4.34l3.57,2.36l0.81,-1.06l-2.27,-1.49l2.52,-3.28l-1.3,-0.85l0.01,-0.01zm23.3,5.17l0.53,2.77l-2.86,-2.39l-1.46,0.23l1,5.24l1.55,-0.26l-0.55,-2.88l2.97,2.48l1.37,-0.22l-1,-5.24l-1.55,0.26zm-34.11,-27.87l-0.9,-0.13l0.4,-2.53l-1.24,-0.17l-0.4,2.53l-0.86,-0.12l0.44,-2.79l-1.34,-0.18l-0.67,4.23l5.69,0.78l0.68,-4.27l-1.34,-0.18l-0.45,2.82l-0.01,0.01zm26.23,-21.84l-0.22,-1.28l-2.75,0.4l-0.69,-3.98l-1.58,0.23l0.91,5.25l4.33,-0.64zm19.64,49.39l-0.53,-0.69l2.26,-1.47l-0.73,-0.95l-2.26,1.47l-0.5,-0.66l2.5,-1.62l-0.78,-1.02l-3.79,2.46l3.31,4.36l3.82,-2.48l-0.78,-1.02l-2.52,1.64l0,-0.01zm-9.1,-51.32l0.66,2.4l0.03,0s2.13,-1.51 2.13,-1.51l-1.08,2.89l1.5,0.48l1.88,-5.03l-1.59,-0.51l-2.03,1.53l-0.56,-2.37l-1.59,-0.51l-1.88,5.03l1.47,0.47l1.07,-2.88l-0.01,0.01zm-9.76,-0.81l0,0c0.1,-1.55 1.51,-2.71 3.28,-2.6c1.77,0.1 3.01,1.4 2.9,2.92l0,0c-0.1,1.55 -1.51,2.71 -3.28,2.6c-1.77,-0.1 -3.01,-1.4 -2.9,-2.92zm1.64,0.07c-0.05,0.77 0.51,1.47 1.37,1.51c0.88,0.05 1.51,-0.56 1.55,-1.33l0,0c0.05,-0.78 -0.51,-1.48 -1.38,-1.53c-0.86,-0.05 -1.5,0.58 -1.54,1.33l0,0l0,0.02zm14.03,53.45c-0.43,-0.92 -1.35,-0.98 -2.67,-0.75c-0.81,0.14 -1.03,0.11 -1.13,-0.12l0,0c-0.08,-0.19 0.03,-0.39 0.38,-0.53c0.47,-0.18 1.07,-0.22 1.7,-0.11l0.29,-1.25c-0.77,-0.2 -1.58,-0.15 -2.48,0.2c-1.27,0.5 -1.75,1.46 -1.32,2.38l0,0c0.46,1.02 1.46,0.97 2.71,0.77c0.78,-0.13 1.01,-0.09 1.11,0.12l0,0c0.09,0.22 -0.06,0.44 -0.45,0.59c-0.61,0.25 -1.29,0.27 -1.98,0.09l-0.4,1.23c0.9,0.29 1.91,0.2 2.86,-0.17c1.29,-0.51 1.87,-1.44 1.41,-2.44l0,0l-0.01,0zm-26.18,-48.33l-1.55,0.59l0.06,-5.82l1.42,-0.54l4.47,4.09l-1.58,0.61l-0.78,-0.74l-2.05,0.78l0,1.02l0.02,0.01zm-0.03,-2.25l1.2,-0.46l-1.22,-1.17l0.02,1.63zm11.18,23.86c0.24,0.22 0.4,0.58 0.4,1.15l0,0c0,1.02 -0.54,1.72 -1.55,1.72c-0.5,0 -0.86,-0.15 -1.17,-0.37l0.44,-0.6c0.23,0.17 0.45,0.25 0.71,0.25c0.38,0 0.59,-0.25 0.63,-0.65c-0.17,0.15 -0.41,0.26 -0.71,0.26c-0.66,0 -1.13,-0.37 -1.13,-0.98l0,0c0,-0.69 0.58,-1.14 1.34,-1.14c0.48,0 0.77,0.13 1.04,0.36l0.01,0.01zm-0.52,0.72c0,-0.23 -0.18,-0.43 -0.48,-0.43s-0.47,0.18 -0.47,0.42l0,0c0,0.25 0.18,0.42 0.48,0.42s0.47,-0.18 0.47,-0.4l0,0zm1.52,-0.8l0.17,0.66l0.56,-0.12l0,2.32l0.92,0l0,-3.13l-0.68,0l-0.98,0.26l0,0.01zm-5.94,0l0.17,0.66l0.56,-0.12l0,2.32l0.92,0l0,-3.13l-0.68,0l-0.98,0.26l0,0.01zm10.32,1.8c0.5,-0.33 0.77,-0.59 0.77,-1.09l0,0c0,-0.6 -0.51,-1 -1.23,-1c-0.66,0 -1,0.23 -1.37,0.66l0.63,0.48c0.26,-0.28 0.44,-0.39 0.67,-0.39s0.37,0.12 0.37,0.32s-0.12,0.33 -0.43,0.55l-1.26,0.88l0,0.65l2.66,0l0,-0.7l-1.38,0l0.58,-0.37l-0.01,0.01zm10.14,-6.65c-1.04,0 -1.68,0.63 -1.68,1.31l0,3.66l0,0s3.35,0 3.35,0l0,0l0,-3.66c0,-0.68 -0.64,-1.31 -1.68,-1.31l0.01,0z" id="svg_30"/>
   </g>
   <g id="svg_31">
    <path class="cls-2" d="m26.46,19.16c4.02,-1 8.45,-1.59 12.59,-1.66l0,2.14c-0.74,0.31 -1.26,1 -1.26,1.8c0,0.27 0.06,0.52 0.16,0.75c-2.82,0.11 -5.59,0.43 -8.3,0.97c0.03,-0.15 0.06,-0.31 0.06,-0.47c0,-1.1 -0.96,-1.98 -2.14,-1.98c-0.09,0 -0.2,0 -0.29,0.02c-0.32,-0.53 -0.6,-1.06 -0.83,-1.57l0.01,0zm-6.52,6.95c1.98,-0.82 4,-1.51 6.05,-2.09c-0.35,-0.35 -0.56,-0.82 -0.56,-1.33c0,-0.4 0.13,-0.77 0.35,-1.09c-0.43,-0.69 -0.77,-1.35 -1.05,-1.98c-3.36,0.97 -6.35,2.26 -8.47,3.79c0.94,0.93 2.17,1.83 3.66,2.69l0.02,0.01zm20.88,-6.47c0.74,0.31 1.26,1 1.26,1.8c0,0.27 -0.06,0.52 -0.16,0.75c2.82,0.11 5.59,0.43 8.3,0.97c-0.03,-0.15 -0.06,-0.31 -0.06,-0.47c0,-1.1 0.96,-1.98 2.14,-1.98c0.09,0 0.2,0 0.29,0.02c0.32,-0.53 0.6,-1.06 0.83,-1.57c-4.02,-1 -8.45,-1.59 -12.59,-1.66l0,2.14l-0.01,0zm13.28,1.97c0.22,0.31 0.35,0.68 0.35,1.09c0,0.51 -0.22,0.98 -0.56,1.33c2.05,0.56 4.08,1.26 6.05,2.09c1.5,-0.85 2.73,-1.76 3.66,-2.69c-2.12,-1.53 -5.1,-2.82 -8.47,-3.79c-0.28,0.63 -0.61,1.29 -1.05,1.98l0.02,-0.01zm-14.15,2.27c-0.69,0 -1.26,0.52 -1.26,1.16s0.56,1.16 1.26,1.16s1.26,-0.52 1.26,-1.16s-0.56,-1.16 -1.26,-1.16zm-9.26,0.92c-0.69,0 -1.26,0.52 -1.26,1.16s0.56,1.16 1.26,1.16s1.26,-0.52 1.26,-1.16s-0.56,-1.16 -1.26,-1.16zm18.53,0c-0.69,0 -1.26,0.52 -1.26,1.16s0.56,1.16 1.26,1.16s1.26,-0.52 1.26,-1.16s-0.56,-1.16 -1.26,-1.16z" id="svg_32"/>
    <path class="cls-3" d="m18.77,27.36c0.36,0.21 0.68,0.47 0.96,0.78l3.17,3.53s0,0 0,0c0.22,-0.1 0.43,-0.2 0.64,-0.3c0,0 0.01,0 0.02,0c0.22,-0.1 0.44,-0.19 0.67,-0.29c1.73,-0.74 3.52,-1.34 5.39,-1.83c1.04,-0.28 2.1,-0.51 3.17,-0.69c0.33,-0.06 0.67,-0.12 1,-0.16c2.02,-0.31 4.08,-0.47 6.18,-0.47c1.05,0 2.1,0.04 3.12,0.12c4.46,0.34 8.7,1.39 12.59,3.03c0,0 0,0 0,0c0.22,0.1 0.44,0.19 0.66,0.29c0,0 0,0 0.01,0c0.22,0.1 0.43,0.19 0.64,0.29c0,0 0,0 0,0l3.09,-3.45c0.28,-0.31 0.6,-0.56 0.97,-0.78c5.84,-3.38 6.83,-6.87 6.6,-9.24c-0.29,-2.96 -2.78,-5.76 -6.2,-6.94c-2.49,-0.86 -4.93,-0.67 -6.74,0.46c-0.24,-0.35 -0.5,-0.65 -0.75,-0.92c-2.81,-2.94 -8.21,-4.18 -12.29,-3.11c-0.15,-0.5 -0.56,-0.91 -1.08,-1.09l0,-1.8l1.38,0l0,-1.15l-1.38,0l0,-1.16l-1.24,0l0,1.16l-1.38,0l0,1.15l1.38,0l0,1.8c-0.52,0.18 -0.93,0.59 -1.08,1.09c-4.09,-1.07 -9.49,0.17 -12.29,3.11c-0.25,0.27 -0.51,0.56 -0.75,0.92c-1.81,-1.14 -4.26,-1.32 -6.74,-0.46c-3.42,1.18 -5.91,3.96 -6.2,6.94c-0.23,2.36 0.75,5.83 6.51,9.19l-0.03,0zm11.92,-0.25c-0.69,0 -1.26,-0.52 -1.26,-1.16s0.56,-1.16 1.26,-1.16s1.26,0.52 1.26,1.16s-0.56,1.16 -1.26,1.16zm18.53,0c-0.69,0 -1.26,-0.52 -1.26,-1.16s0.56,-1.16 1.26,-1.16s1.26,0.52 1.26,1.16s-0.56,1.16 -1.26,1.16zm5.94,-7.49c1.16,-2.71 1,-4.84 0.36,-6.44c1.35,-0.95 3.29,-1.11 5.31,-0.42c2.33,0.8 4.79,2.82 5.04,5.54c0.17,1.75 -0.6,3.47 -2.26,5.11c-0.94,0.93 -2.17,1.83 -3.66,2.69c-1.98,-0.82 -4,-1.51 -6.05,-2.09c0.35,-0.35 0.56,-0.82 0.56,-1.33c0,-0.4 -0.13,-0.77 -0.35,-1.09c0.43,-0.69 0.77,-1.35 1.05,-1.98l-0.01,0.01zm-14.32,-2.12l0,-7.78c3.14,-1.48 8.87,-0.91 11.78,2.15c1.82,1.92 2.07,4.42 0.81,7.29c-0.23,0.51 -0.51,1.03 -0.83,1.57c-0.09,-0.01 -0.18,-0.02 -0.29,-0.02c-1.19,0 -2.14,0.88 -2.14,1.98c0,0.16 0.02,0.32 0.06,0.47c-2.72,-0.54 -5.49,-0.86 -8.3,-0.97c0.1,-0.23 0.16,-0.48 0.16,-0.75c0,-0.8 -0.52,-1.49 -1.26,-1.8l0,-2.14l0.01,0zm-0.89,6.37c0.69,0 1.26,0.52 1.26,1.16s-0.56,1.16 -1.26,1.16s-1.26,-0.52 -1.26,-1.16s0.56,-1.16 1.26,-1.16zm-12.67,-12.01c2.91,-3.06 8.64,-3.63 11.78,-2.15l0,9.92c-0.74,0.31 -1.26,1 -1.26,1.8c0,0.27 0.06,0.52 0.16,0.75c-2.82,0.11 -5.59,0.43 -8.3,0.97c0.03,-0.15 0.06,-0.31 0.06,-0.47c0,-1.1 -0.96,-1.98 -2.14,-1.98c-0.09,0 -0.2,0 -0.29,0.02c-0.32,-0.53 -0.6,-1.06 -0.83,-1.57c-1.27,-2.87 -1.03,-5.38 0.81,-7.29l0.01,0zm-13.25,6.45c0.26,-2.72 2.72,-4.74 5.04,-5.54c2.03,-0.69 3.96,-0.53 5.31,0.42c-0.64,1.6 -0.81,3.74 0.36,6.44c0.28,0.63 0.61,1.29 1.05,1.98c-0.22,0.31 -0.35,0.68 -0.35,1.09c0,0.51 0.22,0.98 0.56,1.33c-2.05,0.56 -4.08,1.26 -6.05,2.09c-1.5,-0.85 -2.73,-1.76 -3.66,-2.69c-1.65,-1.63 -2.42,-3.36 -2.26,-5.11l-0.01,-0.01z" id="svg_33"/>
   </g>
  </g>
 </g>
</svg>