<?xml version="1.0"?>
<svg width="50" height="50" xmlns="http://www.w3.org/2000/svg" xmlns:svg="http://www.w3.org/2000/svg" data-name="Capa 2">
 <defs>
  <style>.cls-1 { fill: #fff; } .cls-2 { fill: #be1622; } .cls-3 { fill: #eab917; }</style>
 </defs>
 <g class="layer">
  <title>Layer 1</title>
  <ellipse class="cls-1" cx="174.95" cy="-128.9" id="svg_1" rx="31.8" ry="31.82" transform="matrix(1 0 0 1 0 0)"/>
  <g id="svg_3">
   <path class="cls-1" d="m380.19,20.16l-3.66,-5.18l-3.28,0l0,5.18l-2.59,0l0,-14.86l6.62,0c0.85,0 1.62,0.11 2.3,0.33s1.27,0.53 1.74,0.93c0.47,0.4 0.84,0.9 1.09,1.49c0.25,0.59 0.38,1.24 0.38,1.96c0,0.62 -0.09,1.18 -0.27,1.67c-0.18,0.49 -0.42,0.92 -0.73,1.3c-0.31,0.38 -0.68,0.69 -1.11,0.96c-0.43,0.26 -0.91,0.46 -1.43,0.6l4.01,5.63l-3.08,0l0.01,-0.01zm-0.85,-11.88c-0.54,-0.42 -1.3,-0.63 -2.28,-0.63l-3.81,0l0,5.01l3.83,0c0.94,0 1.68,-0.23 2.24,-0.68c0.55,-0.45 0.83,-1.07 0.83,-1.83c0,-0.82 -0.27,-1.45 -0.81,-1.87z" id="svg_4"/>
   <path class="cls-1" d="m388.13,17.58c0.58,0.49 1.29,0.73 2.12,0.73c0.64,0 1.19,-0.11 1.66,-0.34c0.47,-0.23 0.93,-0.56 1.38,-1l1.51,1.34c-0.54,0.64 -1.18,1.15 -1.92,1.53c-0.74,0.38 -1.63,0.57 -2.66,0.57c-0.81,0 -1.56,-0.14 -2.26,-0.42c-0.7,-0.28 -1.31,-0.68 -1.83,-1.19c-0.52,-0.51 -0.92,-1.12 -1.22,-1.84c-0.3,-0.71 -0.45,-1.51 -0.45,-2.39c0,-0.81 0.13,-1.56 0.4,-2.27c0.27,-0.71 0.65,-1.33 1.14,-1.86s1.06,-0.95 1.73,-1.26c0.66,-0.31 1.4,-0.47 2.21,-0.47c0.89,0 1.67,0.16 2.35,0.49c0.67,0.33 1.23,0.76 1.68,1.32s0.78,1.2 1.01,1.93c0.23,0.74 0.34,1.51 0.34,2.31c0,0.11 0,0.23 -0.01,0.34c0,0.11 -0.02,0.23 -0.03,0.36l-8.24,0c0.16,0.92 0.52,1.62 1.1,2.11l-0.01,0.01zm4.63,-3.81c-0.04,-0.41 -0.13,-0.8 -0.28,-1.16c-0.14,-0.36 -0.33,-0.67 -0.57,-0.93c-0.24,-0.26 -0.53,-0.47 -0.86,-0.63c-0.33,-0.16 -0.71,-0.23 -1.14,-0.23c-0.79,0 -1.45,0.27 -1.96,0.82c-0.52,0.54 -0.83,1.26 -0.94,2.13l5.75,0z" id="svg_5"/>
   <path class="cls-1" d="m404.33,20.16l0,-1.38c-0.38,0.45 -0.87,0.84 -1.46,1.15c-0.59,0.31 -1.32,0.47 -2.17,0.47c-0.54,0 -1.05,-0.07 -1.53,-0.22s-0.9,-0.37 -1.26,-0.66c-0.36,-0.29 -0.65,-0.65 -0.87,-1.08c-0.22,-0.43 -0.33,-0.93 -0.33,-1.5l0,-0.04c0,-0.61 0.11,-1.14 0.34,-1.59s0.54,-0.83 0.94,-1.13c0.4,-0.3 0.88,-0.52 1.44,-0.67c0.56,-0.15 1.16,-0.22 1.82,-0.22s1.26,0.04 1.73,0.13c0.47,0.09 0.93,0.2 1.37,0.34l0,-0.28c0,-0.78 -0.24,-1.37 -0.71,-1.78c-0.47,-0.41 -1.16,-0.62 -2.05,-0.62c-0.64,0 -1.2,0.06 -1.7,0.19c-0.5,0.13 -1,0.3 -1.51,0.51l-0.7,-2.06c0.62,-0.28 1.26,-0.51 1.91,-0.68c0.65,-0.17 1.44,-0.25 2.36,-0.25c1.67,0 2.91,0.41 3.72,1.24c0.81,0.83 1.21,1.99 1.21,3.49l0,6.65l-2.55,0l0,-0.01zm0.06,-4.76c-0.33,-0.13 -0.71,-0.23 -1.16,-0.32s-0.92,-0.13 -1.41,-0.13c-0.81,0 -1.44,0.16 -1.89,0.47s-0.68,0.76 -0.68,1.34l0,0.04c0,0.54 0.21,0.95 0.63,1.23s0.93,0.42 1.54,0.42c0.42,0 0.82,-0.06 1.18,-0.17s0.68,-0.27 0.94,-0.48c0.27,-0.21 0.48,-0.45 0.63,-0.74c0.15,-0.29 0.22,-0.61 0.22,-0.97l0,-0.7l0,0.01z" id="svg_6"/>
   <path class="cls-1" d="m409.65,20.16l0,-15.5l2.59,0l0,15.5l-2.59,0z" id="svg_7"/>
   <path class="cls-1" d="m431.61,6.32c0.88,0.68 1.31,1.61 1.31,2.79c0,0.45 -0.06,0.86 -0.18,1.21c-0.12,0.35 -0.27,0.66 -0.46,0.93c-0.19,0.26 -0.41,0.49 -0.67,0.69c-0.26,0.2 -0.52,0.37 -0.79,0.51c0.44,0.16 0.83,0.34 1.19,0.54c0.36,0.21 0.67,0.45 0.93,0.73c0.26,0.28 0.46,0.62 0.6,1.01s0.21,0.84 0.21,1.35c0,0.66 -0.13,1.25 -0.39,1.76s-0.63,0.94 -1.11,1.28c-0.48,0.35 -1.06,0.61 -1.74,0.78c-0.68,0.18 -1.43,0.26 -2.25,0.26l-6.87,0l0,-14.86l6.65,0c1.5,0 2.68,0.34 3.56,1.02l0.01,0zm-2.04,4.76c0.51,-0.33 0.76,-0.85 0.76,-1.55c0,-0.61 -0.22,-1.08 -0.67,-1.42c-0.44,-0.33 -1.09,-0.5 -1.94,-0.5l-3.74,0l0,3.97l3.55,0c0.85,0 1.52,-0.17 2.03,-0.5l0.01,0zm0.83,6.24c0.51,-0.35 0.76,-0.86 0.76,-1.54c0,-0.64 -0.25,-1.13 -0.75,-1.49c-0.5,-0.35 -1.27,-0.53 -2.3,-0.53l-4.13,0l0,4.08l4.32,0c0.89,0 1.59,-0.17 2.1,-0.52z" id="svg_8"/>
   <path class="cls-1" d="m442.86,20.16l0,-1.38c-0.38,0.45 -0.87,0.84 -1.46,1.15c-0.59,0.31 -1.32,0.47 -2.17,0.47c-0.54,0 -1.05,-0.07 -1.53,-0.22c-0.48,-0.15 -0.9,-0.37 -1.26,-0.66c-0.36,-0.29 -0.65,-0.65 -0.87,-1.08c-0.22,-0.43 -0.33,-0.93 -0.33,-1.5l0,-0.04c0,-0.61 0.11,-1.14 0.34,-1.59c0.23,-0.45 0.54,-0.83 0.94,-1.13c0.4,-0.3 0.88,-0.52 1.44,-0.67c0.56,-0.15 1.16,-0.22 1.82,-0.22s1.26,0.04 1.73,0.13s0.93,0.2 1.37,0.34l0,-0.28c0,-0.78 -0.24,-1.37 -0.71,-1.78c-0.47,-0.41 -1.16,-0.62 -2.05,-0.62c-0.64,0 -1.2,0.06 -1.7,0.19c-0.5,0.13 -1,0.3 -1.51,0.51l-0.7,-2.06c0.62,-0.28 1.26,-0.51 1.91,-0.68c0.65,-0.17 1.44,-0.25 2.36,-0.25c1.67,0 2.91,0.41 3.72,1.24c0.81,0.83 1.21,1.99 1.21,3.49l0,6.65l-2.55,0l0,-0.01zm0.06,-4.76c-0.33,-0.13 -0.71,-0.23 -1.16,-0.32s-0.92,-0.13 -1.41,-0.13c-0.81,0 -1.44,0.16 -1.89,0.47c-0.45,0.31 -0.68,0.76 -0.68,1.34l0,0.04c0,0.54 0.21,0.95 0.63,1.23s0.93,0.42 1.54,0.42c0.42,0 0.82,-0.06 1.18,-0.17s0.68,-0.27 0.94,-0.48c0.27,-0.21 0.48,-0.45 0.63,-0.74s0.22,-0.61 0.22,-0.97l0,-0.7l0,0.01z" id="svg_9"/>
   <path class="cls-1" d="m448.19,20.16l0,-15.5l2.59,0l0,15.5l-2.59,0z" id="svg_10"/>
   <path class="cls-1" d="m464.57,16.83c-0.3,0.71 -0.72,1.33 -1.25,1.86c-0.53,0.53 -1.16,0.95 -1.9,1.26s-1.54,0.47 -2.4,0.47s-1.64,-0.15 -2.37,-0.46c-0.73,-0.3 -1.36,-0.72 -1.89,-1.25c-0.53,-0.53 -0.94,-1.15 -1.24,-1.85s-0.45,-1.45 -0.45,-2.26s0.15,-1.57 0.46,-2.28c0.3,-0.71 0.72,-1.34 1.25,-1.87c0.53,-0.53 1.16,-0.95 1.89,-1.26c0.73,-0.31 1.53,-0.47 2.39,-0.47s1.66,0.15 2.39,0.46c0.73,0.3 1.36,0.72 1.89,1.25c0.53,0.53 0.94,1.15 1.24,1.86c0.3,0.71 0.45,1.46 0.45,2.27s-0.15,1.56 -0.46,2.27zm-2.39,-3.63c-0.17,-0.44 -0.4,-0.82 -0.71,-1.16s-0.66,-0.59 -1.08,-0.79c-0.42,-0.19 -0.88,-0.29 -1.38,-0.29s-0.97,0.1 -1.38,0.29c-0.42,0.19 -0.77,0.45 -1.07,0.77c-0.29,0.33 -0.52,0.7 -0.67,1.14s-0.23,0.9 -0.23,1.39s0.08,0.97 0.25,1.41s0.4,0.83 0.71,1.16c0.3,0.33 0.66,0.58 1.08,0.77c0.42,0.19 0.87,0.29 1.36,0.29c0.52,0 0.99,-0.1 1.4,-0.29c0.42,-0.19 0.77,-0.45 1.07,-0.77c0.29,-0.33 0.52,-0.7 0.67,-1.14c0.15,-0.43 0.23,-0.9 0.23,-1.39s-0.08,-0.96 -0.25,-1.4l0,0.01z" id="svg_11"/>
   <path class="cls-1" d="m478.15,9.27c0.62,-0.36 1.35,-0.55 2.2,-0.55c1.23,0 2.19,0.37 2.89,1.11c0.69,0.74 1.04,1.8 1.04,3.17l0,7.15l-2.59,0l0,-6.35c0,-0.89 -0.2,-1.57 -0.59,-2.03c-0.39,-0.47 -0.95,-0.7 -1.67,-0.7s-1.28,0.24 -1.72,0.71c-0.44,0.47 -0.67,1.16 -0.67,2.06l0,6.31l-2.59,0l0,-6.38c0,-0.88 -0.2,-1.55 -0.59,-2.01c-0.39,-0.47 -0.95,-0.7 -1.67,-0.7s-1.3,0.25 -1.73,0.74s-0.65,1.18 -0.65,2.05l0,6.29l-2.59,0l0,-11.21l2.59,0l0,1.72c0.18,-0.26 0.38,-0.5 0.59,-0.73s0.46,-0.44 0.73,-0.62c0.28,-0.19 0.59,-0.33 0.93,-0.44s0.73,-0.16 1.16,-0.16c0.81,0 1.49,0.18 2.05,0.55s0.99,0.85 1.28,1.45c0.45,-0.6 0.99,-1.08 1.6,-1.45l0,0.02z" id="svg_12"/>
   <path class="cls-1" d="m498.11,17.04c-0.29,0.72 -0.68,1.33 -1.17,1.84c-0.49,0.5 -1.05,0.88 -1.68,1.14c-0.63,0.26 -1.28,0.38 -1.94,0.38c-0.92,0 -1.68,-0.2 -2.29,-0.59c-0.61,-0.4 -1.11,-0.86 -1.51,-1.38l0.02,5.14l-2.59,0l0,-14.61l2.59,0l0,1.87c0.41,-0.59 0.92,-1.09 1.52,-1.5c0.61,-0.4 1.36,-0.6 2.27,-0.6c0.66,0 1.31,0.13 1.93,0.38s1.18,0.63 1.66,1.14c0.49,0.5 0.88,1.11 1.18,1.84c0.3,0.72 0.44,1.55 0.44,2.48s-0.15,1.76 -0.44,2.48l0.01,-0.01zm-2.41,-3.98c-0.17,-0.45 -0.4,-0.82 -0.69,-1.14c-0.29,-0.31 -0.63,-0.55 -1.02,-0.72c-0.39,-0.17 -0.8,-0.25 -1.24,-0.25s-0.86,0.08 -1.25,0.25c-0.4,0.17 -0.74,0.41 -1.04,0.73c-0.3,0.32 -0.53,0.7 -0.71,1.14s-0.27,0.93 -0.27,1.49s0.09,1.05 0.27,1.49s0.41,0.82 0.71,1.14s0.64,0.56 1.04,0.73c0.4,0.17 0.81,0.26 1.25,0.26s0.85,-0.09 1.24,-0.26c0.39,-0.17 0.73,-0.41 1.02,-0.72s0.52,-0.69 0.69,-1.14c0.17,-0.45 0.25,-0.94 0.25,-1.5s-0.08,-1.05 -0.25,-1.5z" id="svg_13"/>
   <path class="cls-1" d="m503.81,17.58c0.58,0.49 1.29,0.73 2.12,0.73c0.64,0 1.19,-0.11 1.66,-0.34c0.47,-0.23 0.93,-0.56 1.38,-1l1.51,1.34c-0.54,0.64 -1.18,1.15 -1.92,1.53c-0.74,0.38 -1.63,0.57 -2.66,0.57c-0.81,0 -1.56,-0.14 -2.26,-0.42c-0.7,-0.28 -1.31,-0.68 -1.83,-1.19c-0.52,-0.51 -0.92,-1.12 -1.22,-1.84c-0.3,-0.71 -0.45,-1.51 -0.45,-2.39c0,-0.81 0.13,-1.56 0.4,-2.27c0.27,-0.71 0.65,-1.33 1.14,-1.86s1.06,-0.95 1.73,-1.26c0.66,-0.31 1.4,-0.47 2.21,-0.47c0.89,0 1.67,0.16 2.35,0.49c0.67,0.33 1.23,0.76 1.68,1.32s0.78,1.2 1.01,1.93c0.23,0.74 0.34,1.51 0.34,2.31c0,0.11 0,0.23 -0.01,0.34c0,0.11 -0.02,0.23 -0.03,0.36l-8.24,0c0.16,0.92 0.52,1.62 1.1,2.11l-0.01,0.01zm4.63,-3.81c-0.04,-0.41 -0.13,-0.8 -0.28,-1.16c-0.14,-0.36 -0.33,-0.67 -0.57,-0.93c-0.24,-0.26 -0.53,-0.47 -0.86,-0.63c-0.33,-0.16 -0.71,-0.23 -1.14,-0.23c-0.79,0 -1.45,0.27 -1.96,0.82c-0.52,0.54 -0.83,1.26 -0.94,2.13l5.75,0zm-4.01,-6.24l2.25,-3.48l2.34,1.04l-2.59,2.44l-2,0z" id="svg_14"/>
   <path class="cls-1" d="m521.58,20.16l0,-1.87c-0.41,0.58 -0.92,1.08 -1.54,1.49s-1.37,0.62 -2.28,0.62c-0.66,0 -1.31,-0.13 -1.93,-0.38c-0.62,-0.25 -1.17,-0.63 -1.65,-1.14c-0.48,-0.5 -0.87,-1.11 -1.16,-1.84c-0.3,-0.72 -0.44,-1.55 -0.44,-2.48s0.14,-1.76 0.43,-2.48c0.29,-0.72 0.67,-1.33 1.15,-1.84c0.48,-0.5 1.03,-0.88 1.66,-1.14c0.63,-0.25 1.27,-0.38 1.94,-0.38c0.92,0 1.68,0.2 2.29,0.59s1.12,0.86 1.53,1.38l0,-6.03l2.59,0l0,15.5l-2.59,0zm-0.22,-7.09c-0.18,-0.44 -0.41,-0.82 -0.71,-1.14c-0.3,-0.32 -0.64,-0.56 -1.04,-0.73c-0.39,-0.17 -0.8,-0.25 -1.23,-0.25s-0.85,0.08 -1.24,0.24c-0.39,0.16 -0.73,0.4 -1.03,0.71c-0.3,0.31 -0.53,0.69 -0.7,1.14c-0.17,0.45 -0.25,0.95 -0.25,1.52s0.08,1.05 0.25,1.5c0.17,0.45 0.4,0.82 0.7,1.14s0.64,0.55 1.03,0.72c0.39,0.17 0.8,0.26 1.24,0.26s0.83,-0.09 1.23,-0.26c0.39,-0.17 0.74,-0.41 1.04,-0.73s0.53,-0.7 0.71,-1.14c0.18,-0.44 0.27,-0.93 0.27,-1.49s-0.09,-1.05 -0.27,-1.49z" id="svg_15"/>
   <path class="cls-1" d="m526.99,7.23l0,-2.44l2.78,0l0,2.44l-2.78,0zm0.11,12.93l0,-11.21l2.59,0l0,11.21l-2.59,0z" id="svg_16"/>
   <path class="cls-1" d="m540.49,19.83c-0.71,0.39 -1.61,0.58 -2.7,0.58c-0.84,0 -1.61,-0.15 -2.31,-0.46c-0.71,-0.3 -1.32,-0.72 -1.84,-1.25c-0.52,-0.53 -0.93,-1.15 -1.22,-1.85s-0.44,-1.45 -0.44,-2.26s0.15,-1.56 0.44,-2.27c0.29,-0.71 0.7,-1.33 1.22,-1.87c0.52,-0.54 1.14,-0.96 1.85,-1.27s1.49,-0.47 2.33,-0.47c1.06,0 1.94,0.18 2.64,0.53c0.7,0.35 1.31,0.82 1.84,1.4l-1.59,1.72c-0.4,-0.41 -0.82,-0.75 -1.26,-1.01c-0.45,-0.26 -0.99,-0.39 -1.65,-0.39c-0.47,0 -0.9,0.1 -1.3,0.29c-0.4,0.19 -0.74,0.45 -1.02,0.77c-0.28,0.33 -0.51,0.7 -0.67,1.14c-0.16,0.43 -0.24,0.9 -0.24,1.39s0.08,0.98 0.24,1.42c0.16,0.44 0.39,0.82 0.69,1.15c0.3,0.33 0.65,0.58 1.06,0.77c0.41,0.19 0.86,0.29 1.36,0.29c0.61,0 1.14,-0.13 1.6,-0.39c0.46,-0.26 0.9,-0.6 1.31,-1.01l1.55,1.53c-0.55,0.62 -1.18,1.13 -1.89,1.52z" id="svg_17"/>
   <path class="cls-1" d="m551.15,20.16l0,-1.38c-0.38,0.45 -0.87,0.84 -1.47,1.15c-0.59,0.31 -1.32,0.47 -2.17,0.47c-0.54,0 -1.05,-0.07 -1.53,-0.22c-0.48,-0.15 -0.9,-0.37 -1.26,-0.66c-0.36,-0.29 -0.65,-0.65 -0.87,-1.08c-0.22,-0.43 -0.33,-0.93 -0.33,-1.5l0,-0.04c0,-0.61 0.11,-1.14 0.34,-1.59c0.23,-0.45 0.54,-0.83 0.94,-1.13c0.4,-0.3 0.88,-0.52 1.44,-0.67c0.56,-0.15 1.16,-0.22 1.82,-0.22s1.26,0.04 1.73,0.13s0.93,0.2 1.37,0.34l0,-0.28c0,-0.78 -0.24,-1.37 -0.71,-1.78c-0.47,-0.41 -1.16,-0.62 -2.05,-0.62c-0.64,0 -1.2,0.06 -1.7,0.19c-0.5,0.13 -1,0.3 -1.51,0.51l-0.7,-2.06c0.62,-0.28 1.26,-0.51 1.91,-0.68c0.65,-0.17 1.44,-0.25 2.36,-0.25c1.67,0 2.91,0.41 3.72,1.24c0.81,0.83 1.21,1.99 1.21,3.49l0,6.65l-2.55,0l0.01,-0.01zm0.06,-4.76c-0.33,-0.13 -0.71,-0.23 -1.16,-0.32s-0.92,-0.13 -1.41,-0.13c-0.81,0 -1.44,0.16 -1.89,0.47c-0.45,0.31 -0.68,0.76 -0.68,1.34l0,0.04c0,0.54 0.21,0.95 0.63,1.23s0.93,0.42 1.54,0.42c0.42,0 0.82,-0.06 1.18,-0.17c0.36,-0.11 0.68,-0.27 0.94,-0.48s0.48,-0.45 0.63,-0.74s0.22,-0.61 0.22,-0.97l0,-0.7l0,0.01z" id="svg_18"/>
   <path class="cls-1" d="m370.34,28.53l4.99,0l0,13.64l8.72,0l0,4.37l-13.71,0l0,-18.01z" id="svg_19"/>
   <path class="cls-1" d="m385.39,27.76l5.09,0l0,3.6l-5.09,0l0,-3.6zm0.1,4.86l4.89,0l0,13.92l-4.89,0l0,-13.92z" id="svg_20"/>
   <path class="cls-1" d="m392.6,32.62l4.89,0l0,1.96c0.9,-1.16 2.19,-2.26 4.17,-2.26c2.96,0 4.73,1.96 4.73,5.12l0,9.11l-4.89,0l0,-7.54c0,-1.52 -0.8,-2.34 -1.96,-2.34s-2.06,0.82 -2.06,2.34l0,7.54l-4.89,0l0,-13.92l0.01,-0.01z" id="svg_21"/>
   <path class="cls-1" d="m407.83,39.64l0,-0.05c0,-4.07 2.91,-7.28 7.03,-7.28c4.81,0 7.02,3.53 7.02,7.62c0,0.31 0,0.67 -0.03,1l-9.31,0c0.39,1.52 1.49,2.29 3.01,2.29c1.16,0 2.08,-0.44 3.09,-1.42l2.7,2.24c-1.34,1.7 -3.27,2.83 -6.05,2.83c-4.37,0 -7.46,-2.91 -7.46,-7.23zm9.47,-1.21c-0.18,-1.54 -1.08,-2.52 -2.42,-2.52s-2.16,1 -2.42,2.52l4.84,0z" id="svg_22"/>
   <path class="cls-1" d="m423.45,32.62l4.89,0l0,1.96c0.9,-1.16 2.19,-2.26 4.17,-2.26c2.96,0 4.73,1.96 4.73,5.12l0,9.11l-4.89,0l0,-7.54c0,-1.52 -0.8,-2.34 -1.96,-2.34s-2.06,0.82 -2.06,2.34l0,7.54l-4.89,0l0,-13.92l0.01,-0.01z" id="svg_23"/>
   <path class="cls-1" d="m438.2,44.79l1.83,-2.96c1.6,1.05 3.35,1.6 4.79,1.6c0.85,0 1.24,-0.26 1.24,-0.75l0,-0.05c0,-0.54 -0.77,-0.77 -2.24,-1.18c-2.75,-0.72 -4.94,-1.65 -4.94,-4.45l0,-0.05c0,-2.96 2.37,-4.61 5.58,-4.61c2.03,0 4.14,0.59 5.74,1.62l-1.67,3.09c-1.44,-0.8 -3.01,-1.29 -4.12,-1.29c-0.75,0 -1.13,0.28 -1.13,0.67l0,0.05c0,0.54 0.8,0.8 2.26,1.24c2.75,0.77 4.94,1.72 4.94,4.43l0,0.05c0,3.06 -2.29,4.66 -5.69,4.66c-2.34,0 -4.66,-0.67 -6.59,-2.06l0,-0.01z" id="svg_24"/>
   <path class="cls-1" d="m451.4,39.64l0,-0.05c0,-4.07 2.91,-7.28 7.02,-7.28c4.81,0 7.03,3.53 7.03,7.62c0,0.31 0,0.67 -0.03,1l-9.32,0c0.39,1.52 1.49,2.29 3.01,2.29c1.16,0 2.08,-0.44 3.09,-1.42l2.7,2.24c-1.34,1.7 -3.27,2.83 -6.05,2.83c-4.37,0 -7.46,-2.91 -7.46,-7.23l0.01,0zm9.47,-1.21c-0.18,-1.54 -1.08,-2.52 -2.42,-2.52s-2.16,1 -2.42,2.52l4.84,0z" id="svg_25"/>
  </g>
  <g id="svg_26">
   <g id="svg_27">
    <path class="cls-1" d="m34.42,15.91l1.56,-1.63c0.09,-0.09 0.19,-0.17 0.32,-0.24c3.54,-1.92 4.11,-3.99 3.97,-5.39c-0.18,-1.79 -1.75,-3.46 -3.9,-4.15c-0.65,-0.21 -1.31,-0.32 -1.96,-0.32c-0.61,0 -1.21,0.1 -1.74,0.3c-1.27,-1.25 -3.42,-2.02 -5.61,-2.02c-0.22,0 -0.43,0.01 -0.65,0.02l0,-1.89l-0.74,0l0,-0.59l-2.41,0l0,0.59l-0.74,0l0,1.88c-0.21,-0.02 -0.43,-0.02 -0.65,-0.02c-2.19,0 -4.34,0.78 -5.61,2.02c-0.53,-0.19 -1.13,-0.3 -1.74,-0.3s-1.3,0.11 -1.96,0.32c-2.15,0.7 -3.72,2.37 -3.9,4.15c-0.14,1.39 0.42,3.45 3.92,5.36c0.12,0.06 0.22,0.15 0.31,0.24l1.6,1.67c-6.24,3.04 -10.46,8.85 -10.46,15.51c0,9.82 9.15,17.78 20.45,17.78s20.45,-7.96 20.45,-17.78c0,-6.67 -4.23,-12.48 -10.48,-15.52l-0.01,-0.01z" id="svg_28"/>
    <path class="cls-3" d="m28.89,33.97l-0.46,3.7l-2.2,0l0,-3.23c0,-0.64 -0.63,-1.33 -1.78,-1.33s-1.78,0.69 -1.78,1.33l0,3.23l-2.2,0l-0.46,-3.7s0,0 0,-0.01c0,-0.02 0,-0.03 -0.01,-0.04c0,0 0,-0.01 0,-0.01c-0.01,-0.02 -0.01,-0.03 -0.02,-0.04c0,0 0,-0.01 -0.01,-0.01c-0.01,-0.01 -0.02,-0.02 -0.02,-0.03c0,0 -0.01,-0.01 -0.01,-0.01c-0.01,-0.01 -0.03,-0.02 -0.04,-0.03l-0.97,-0.54l-0.2,-3.63l0.81,0l0,-0.74l1.07,0l0,0.74l1.86,0l0,-0.74l1.07,0l0,0.74l1.86,0l0,-0.74l1.07,0l0,0.74l1.86,0l0,-0.74l1.07,0l0,0.74l0.81,0l-0.2,3.63l-0.97,0.54s-0.03,0.02 -0.04,0.03c0,0 -0.01,0.01 -0.01,0.01c-0.01,0.01 -0.02,0.02 -0.02,0.03c0,0 0,0.01 -0.01,0.01c-0.01,0.02 -0.02,0.03 -0.02,0.04c0,0 0,0.01 0,0.01c0,0.01 -0.01,0.03 -0.01,0.04c0,0 0,0 0,0.01l-0.01,0zm5.81,-8.02l0,-1.44l-0.71,0l0,0.74l-1.02,0l0,-0.74l-0.99,0l0,0.74l-1.02,0l0,-0.74l-0.71,0l0,1.44l4.45,0zm1.6,12.28l-0.49,-3.99s-0.02,0 -0.03,0l-6.6,0s-0.02,0 -0.03,0l-0.49,3.99l2.77,0l0,-2.15c0,-0.4 0.4,-0.77 1.05,-0.77s1.05,0.37 1.05,0.77l0,2.15l2.77,0l0.01,0zm-1.99,-11.15l0.35,6.05l-4.37,0l0.35,-6.05s0.01,0 0.01,0l3.64,0s0.01,0 0.01,0l0.01,0zm-0.93,1.93c0,-0.35 -0.35,-0.66 -0.91,-0.66s-0.91,0.32 -0.91,0.66l0,1.85l1.81,0l0,-1.85l0.01,0zm-3.13,-2.82l0.4,0.63l3.64,0l0.4,-0.63l-4.45,0zm-1.07,7.8l6.6,0l-1.1,-0.62l-4.39,0l-1.1,0.62l-0.01,0zm-10.52,-8.04l0,-1.44l-0.71,0l0,0.74l-1.02,0l0,-0.74l-0.99,0l0,0.74l-1.02,0l0,-0.74l-0.71,0l0,1.44l4.45,0zm1.07,8.29l-6.6,0s-0.02,0 -0.03,0l-0.49,3.99l2.77,0l0,-2.15c0,-0.4 0.4,-0.77 1.05,-0.77s1.05,0.37 1.05,0.77l0,2.15l2.77,0l-0.49,-3.99s-0.02,0 -0.03,0l0.01,0zm-1.48,-7.16s0.01,0 0.01,0l0.35,6.05l-4.37,0l0.35,-6.05s0.01,0 0.01,0l3.64,0l0.01,0zm-0.92,1.93c0,-0.35 -0.35,-0.66 -0.91,-0.66s-0.91,0.32 -0.91,0.66l0,1.85l1.81,0l0,-1.85zm1.32,-2.82l-4.45,0l0.4,0.63l3.64,0l0.4,-0.63l0,0zm-0.02,7.18l-4.39,0l-1.1,0.62l6.6,0l-1.1,-0.62l-0.01,0z" id="svg_29"/>
    <path d="m37.79,20.85l-0.66,-0.6l0.88,0.22l-0.22,0.38l0,-0.01zm-1.55,2.95l2.66,-1.38l0.61,0.89c0.57,0.83 0.35,1.59 -0.42,1.99l-0.01,0c-0.77,0.4 -1.67,0.22 -2.25,-0.62l-0.6,-0.88l-0.01,0zm1.09,0.3l0.18,0.26c0.26,0.38 0.68,0.51 1.11,0.29l0.01,0c0.43,-0.23 0.5,-0.61 0.24,-0.99l-0.18,-0.26l-1.35,0.7l0,0.01zm-1.51,-0.76l0.52,-0.44l-1.16,-1.04l0.35,-0.3l1.04,0.93l0.48,-0.41l-1.04,-0.93l0.34,-0.29l1.14,1.03l0.52,-0.44l-1.74,-1.55l-2.22,1.88l1.75,1.57l0.01,0zm-20.23,7.52l1.73,0l0,-1.78l0,0s0,-0.08 0,-0.08c0,-0.35 -0.35,-0.66 -0.91,-0.66s-0.91,0.32 -0.91,0.66l0,1.85l0.08,0l0.01,0.01zm28.52,0.5c0,4.57 -2.05,8.86 -5.76,12.09c-3.72,3.23 -8.66,5.01 -13.91,5.01s-10.2,-1.78 -13.91,-5.01c-3.72,-3.23 -5.76,-7.53 -5.76,-12.09s2.05,-8.86 5.76,-12.09c3.72,-3.23 8.66,-5.01 13.91,-5.01s10.2,1.78 13.91,5.01c3.72,3.23 5.76,7.53 5.76,12.09zm-0.79,0c0,-9.05 -8.47,-16.42 -18.89,-16.42s-18.89,7.36 -18.89,16.42s8.47,16.42 18.89,16.42s18.89,-7.36 18.89,-16.42l0,-0.01zm-5.22,0c0,2.07 -0.61,4 -1.68,5.7l0.17,1.42l-1.24,0c-2.49,2.89 -6.46,4.76 -10.92,4.76s-8.43,-1.88 -10.92,-4.76l-1.24,0l0.17,-1.42c-1.07,-1.69 -1.68,-3.64 -1.68,-5.7c0,-6.55 6.13,-11.88 13.67,-11.88s13.67,5.33 13.67,11.88l0.01,0zm-9.1,2.42l0.97,-0.54l0.04,-0.73l0.17,-2.9l-0.81,0l0,-0.74l-1.07,0l0,0.74l-1.86,0l0,-0.74l-1.07,0l0,0.74l-1.86,0l0,-0.74l-1.07,0l0,0.74l-1.86,0l0,-0.74l-1.07,0l0,0.74l-0.81,0l0.2,3.63l0.97,0.54s0.03,0.02 0.04,0.03c0,0 0.01,0.01 0.01,0.01c0.01,0.01 0.02,0.02 0.02,0.03c0,0 0,0.01 0.01,0.01c0.01,0.02 0.02,0.03 0.02,0.04c0,0 0,0.01 0,0.01c0,0.01 0.01,0.03 0.01,0.04c0,0 0,0 0,0.01l0.46,3.7l2.2,0l0,-3.23l0,0c0,-0.36 0.2,-0.73 0.58,-0.99c0.04,-0.03 0.09,-0.05 0.13,-0.08c0.28,-0.16 0.64,-0.25 1.07,-0.25s0.79,0.1 1.07,0.25c0.04,0.03 0.09,0.05 0.13,0.08c0.38,0.26 0.58,0.63 0.58,0.99l0,0l0,3.23l2.2,0l0.12,-0.94l0,0s0.34,-2.77 0.34,-2.77c0,0 0,0 0,-0.01c0,-0.02 0,-0.03 0.01,-0.04c0,0 0,-0.01 0,-0.01c0.01,-0.02 0.01,-0.03 0.02,-0.04c0,0 0,-0.01 0.01,-0.01c0.01,-0.01 0.01,-0.02 0.02,-0.02c0,0 0,0 0.01,-0.01c0,0 0,0 0,0c0,0 0,-0.01 0.01,-0.01c0.01,-0.01 0.03,-0.02 0.04,-0.03l0.01,-0.01zm-14.11,-8.53l0,-0.74l-0.71,0l0,1.44l4.45,0l0,-1.44l-0.71,0l0,0.74l-1.02,0l0,-0.74l-0.99,0l0,0.74l-1.02,0zm-0.71,0.94l0.4,0.63l3.64,0l0.4,-0.63l-4.45,0zm0.39,0.88l-0.29,5.13l0,0s-0.06,0.92 -0.06,0.92l4.37,0l-0.29,-5.06l0,0s-0.06,-1 -0.06,-1c0,0 -0.01,0 -0.01,0l-3.64,0s-0.01,0 -0.01,0l-0.01,0zm5.13,6.92l-1.1,-0.62l-4.39,0l-1.1,0.62l6.6,0l-0.01,0zm12.25,-8.73l-1.02,0l0,-0.74l-0.71,0l0,1.44l4.45,0l0,-1.44l-0.71,0l0,0.74l-1.02,0l0,-0.74l-0.99,0l0,0.74zm-1.33,1.58l3.64,0l0.4,-0.63l-4.45,0l0.4,0.63zm5.12,7.16l-1.1,-0.62l-4.39,0l-1.1,0.62l6.6,0l-0.01,0zm-1.26,-3.38l0,0l-0.2,-3.53s-0.01,0 -0.01,0l-3.64,0s-0.01,0 -0.01,0l-0.35,6.05l4.37,0l-0.14,-2.52l-0.01,-0.01zm-20.38,-6.34l1.07,0l0,0.74l0.45,0l0,-0.74l1.56,0l0,0.74l0.45,0l0,-0.74l1.28,0l0,1.93l0,0s0,0 0,0c0,0.01 0,0.02 0,0.02c0,0 0,0.01 0,0.01c0,0.01 0,0.01 0,0.02c0,0 0,0 0,0.01c0,0 0,0.01 0,0.01c0,0.01 0,0.02 -0.01,0.02c0,0 0,0.01 0,0.01c0,0.01 -0.01,0.02 -0.01,0.02c0,0 0,0 0,0.01l0,0s0,0.01 0,0.01l-0.36,0.56l0.05,0.91l7.58,-7.79c-0.56,-0.06 -1.14,-0.1 -1.73,-0.1c-4.18,0 -7.91,1.7 -10.32,4.35l-0.02,0.01zm-2.27,10.45l2.13,-2.19l0.32,-5.63l-0.36,-0.57s-0.01,-0.01 -0.01,-0.02c0,0 0,-0.01 0,-0.01c0,-0.01 -0.01,-0.03 -0.01,-0.04c0,0 0,-0.01 0,-0.01c0,-0.01 0,-0.03 0,-0.04c0,0 0,0 0,0l0,-1.69c-1.65,1.92 -2.63,4.29 -2.63,6.86c0,1.17 0.2,2.29 0.58,3.35l-0.02,-0.01zm1.45,3.52l1.76,0s0.31,0 0.31,0l0,-2.15c0,-0.33 0.27,-0.63 0.71,-0.73c0.11,-0.02 0.21,-0.04 0.34,-0.04l0,0c0.65,0 1.05,0.37 1.05,0.77l0,2.15l0.14,0s2.63,0 2.63,0l-0.21,-1.71l-0.28,-2.28s-0.02,0 -0.03,0l-6.59,0s-0.02,0 -0.03,0l-0.29,2.35l-0.11,0.84s0,0 0,0l-0.1,0.8l0.7,0l0,0.01zm21.44,0.25l-6.42,0l0.07,-0.56l-1.01,0l-4.67,4.79c0.56,0.06 1.14,0.1 1.73,0.1c4.16,0 7.88,-1.69 10.3,-4.33l0.01,0zm1.55,-0.25l-0.49,-3.99s-0.02,0 -0.03,0l-4.8,0s-1.8,0 -1.8,0c-0.01,0 -0.02,0 -0.03,0l-0.49,3.99l2.46,0s0.31,0 0.31,0l0,-2.15c0,-0.4 0.4,-0.77 1.05,-0.77s1.05,0.37 1.05,0.77l0,2.15l0.14,0s1.31,0 1.31,0l1.32,0zm0.75,-10.22l-2.26,2.32l0.17,2.91l0.97,0.54s0.03,0.02 0.04,0.03c0,0 0.01,0.01 0.01,0.01c0.01,0.01 0.02,0.02 0.02,0.03c0,0 0,0.01 0.01,0.01c0.01,0.02 0.02,0.03 0.02,0.04c0,0 0,0.01 0,0.01c0,0.01 0.01,0.03 0.01,0.04c0,0 0,0 0,0.01l0.29,2.3c0.81,-1.49 1.28,-3.15 1.28,-4.9c0,-1.17 -0.2,-2.29 -0.58,-3.35l0.01,0zm2.66,2.33l0.34,-0.62c-0.25,-0.12 -0.43,-0.26 -0.49,-0.54c-0.07,-0.37 0.23,-0.69 0.69,-0.76l0.01,0c0.45,-0.07 0.86,0.13 0.94,0.51c0.05,0.25 -0.05,0.45 -0.24,0.64l0.61,0.48c0.33,-0.29 0.52,-0.68 0.41,-1.22c-0.16,-0.8 -0.98,-1.29 -1.87,-1.15l-0.01,0c-0.91,0.14 -1.45,0.85 -1.3,1.61c0.12,0.59 0.48,0.88 0.93,1.07l-0.01,-0.01zm-8.27,-10.17l1.71,-2.25l1.11,0.64c0.65,0.37 0.86,0.91 0.48,1.41l0,0c-0.4,0.54 -1.09,0.55 -1.73,0.18l-0.35,-0.21l-0.48,0.64l-0.72,-0.41l-0.01,0zm1.58,-0.72l0.34,0.19c0.25,0.15 0.5,0.12 0.63,-0.06l0,0c0.15,-0.2 0.07,-0.39 -0.19,-0.54l-0.34,-0.19l-0.45,0.59l0.01,0.01zm9.13,12.59l-0.06,0.72l-3.2,0.96l0.06,-0.8l0.56,-0.16l0.08,-1.04l-0.54,-0.23l0.06,-0.78l3.03,1.33zm-1.04,0.3l-0.86,-0.36l-0.05,0.6l0.9,-0.25l0.01,0zm-0.21,-6.67l-2.9,0.93l0.3,0.7l2.9,-0.93l-0.3,-0.7zm-20.36,19.47l-0.78,-1.67l-0.77,-0.19l-0.86,2.59l0.82,0.21l0.47,-1.42l0.8,1.74l0.73,0.18l0.86,-2.59l-0.82,-0.21l-0.45,1.37zm1.8,1.6l2.51,0.11l0.04,-0.64l-1.66,-0.08l0.02,-0.43l1.48,0.06l0.04,-0.59l-1.48,-0.06l0.02,-0.41l1.64,0.07l0.04,-0.64l-2.49,-0.11l-0.16,2.69l-0.01,0.01zm-12.4,-13.97l0.07,0.74l-3.09,0.21l-0.11,-1.27c-0.04,-0.41 0.06,-0.7 0.25,-0.9c0.16,-0.17 0.39,-0.26 0.7,-0.29l0.01,0c0.47,-0.03 0.81,0.17 1,0.49l1.02,-0.71l0.07,0.86l-0.89,0.6l0,0s0.03,0.32 0.03,0.32l0.94,-0.06zm-1.61,0.11l-0.04,-0.49c-0.02,-0.25 -0.18,-0.39 -0.4,-0.37l-0.01,0c-0.24,0.02 -0.35,0.18 -0.33,0.43l0.04,0.49l0.74,-0.05l-0.01,0zm4.92,-9.71l-0.61,-0.38l-0.86,1.07l-1.92,-1.18l-0.5,0.61l2.53,1.55l1.36,-1.68zm1.51,-1.34l-1.84,-2.17l1.28,-0.82c0.32,-0.2 0.59,-0.28 0.84,-0.24c0.17,0.02 0.33,0.1 0.46,0.25l0,0c0.21,0.26 0.17,0.51 0.02,0.73c0.38,-0.11 0.7,-0.08 0.94,0.21l0,0c0.32,0.38 0.16,0.83 -0.44,1.21l-1.28,0.83l0.01,0.01zm-0.43,-1.74l0.43,-0.28c0.21,-0.13 0.27,-0.27 0.17,-0.4l0,0c-0.1,-0.12 -0.27,-0.12 -0.47,0.01l-0.45,0.29l0.32,0.38l-0.01,0zm0.36,0.42l0.34,0.4l0.53,-0.34c0.21,-0.13 0.27,-0.29 0.16,-0.41l0,0c-0.1,-0.12 -0.27,-0.13 -0.5,0.02l-0.53,0.34l-0.01,-0.01zm2.87,22.12l-1.38,2.41l0.78,0.33l1.38,-2.41l-0.78,-0.33l-0.01,0zm-6.93,-16.66l-0.45,0.97l0.43,0.36l-0.34,0.73l-2.4,-2.08l0.31,-0.67l3.39,-0.05l-0.35,0.74l-0.6,0l0.01,0.01zm-0.71,-0.02l-0.95,-0.01l0.69,0.57l0.26,-0.56l0,0.01zm5.16,15.26l-1.8,2.2l1.92,1.19l0.43,-0.53l-1.22,-0.76l1.36,-1.66l-0.7,-0.43l0.01,-0.01zm12.56,2.62l0.29,1.4l-1.54,-1.21l-0.79,0.12l0.54,2.65l0.84,-0.13l-0.3,-1.46l1.6,1.26l0.74,-0.11l-0.54,-2.65l-0.84,0.13zm-18.38,-14.11l-0.48,-0.06l0.22,-1.28l-0.67,-0.09l-0.22,1.28l-0.47,-0.06l0.24,-1.41l-0.72,-0.09l-0.36,2.14l3.07,0.39l0.37,-2.16l-0.72,-0.09l-0.24,1.43l-0.01,0.01zm14.13,-11.05l-0.12,-0.65l-1.48,0.21l-0.37,-2.01l-0.85,0.12l0.49,2.66l2.33,-0.32zm10.58,25l-0.29,-0.35l1.22,-0.74l-0.39,-0.48l-1.22,0.74l-0.27,-0.33l1.35,-0.82l-0.42,-0.52l-2.04,1.25l1.78,2.21l2.06,-1.26l-0.42,-0.52l-1.36,0.83l0,-0.01zm-4.9,-25.98l0.35,1.21l0.02,0s1.15,-0.77 1.15,-0.77l-0.58,1.46l0.81,0.24l1.01,-2.55l-0.86,-0.26l-1.09,0.78l-0.3,-1.2l-0.86,-0.26l-1.01,2.55l0.79,0.24l0.58,-1.46l-0.01,0.01zm-5.26,-0.41l0,0c0.06,-0.78 0.81,-1.37 1.77,-1.32c0.96,0.05 1.62,0.71 1.56,1.48l0,0c-0.06,0.78 -0.81,1.37 -1.77,1.32c-0.96,-0.05 -1.62,-0.71 -1.56,-1.48zm0.88,0.04c-0.02,0.39 0.27,0.74 0.74,0.77c0.47,0.03 0.81,-0.29 0.84,-0.67l0,0c0.02,-0.39 -0.27,-0.75 -0.74,-0.78c-0.47,-0.03 -0.81,0.29 -0.83,0.67l0,0l0,0.01zm7.56,27.06c-0.23,-0.46 -0.73,-0.5 -1.44,-0.38c-0.43,0.07 -0.55,0.05 -0.61,-0.06l0,0c-0.04,-0.1 0.02,-0.2 0.2,-0.27c0.25,-0.09 0.58,-0.11 0.92,-0.05l0.16,-0.63c-0.42,-0.1 -0.85,-0.08 -1.33,0.1c-0.68,0.25 -0.94,0.74 -0.71,1.2l0,0c0.25,0.52 0.79,0.49 1.46,0.39c0.42,-0.06 0.55,-0.04 0.6,0.06l0,0c0.05,0.11 -0.03,0.22 -0.24,0.3c-0.33,0.12 -0.7,0.13 -1.07,0.04l-0.22,0.62c0.48,0.15 1.03,0.1 1.54,-0.09c0.7,-0.26 1.01,-0.73 0.76,-1.24l0,0l-0.01,0zm-14.11,-24.47l-0.84,0.3l0.03,-2.95l0.76,-0.28l2.41,2.07l-0.85,0.31l-0.42,-0.37l-1.1,0.39l0,0.52l0.01,0.01zm-0.02,-1.14l0.65,-0.23l-0.66,-0.59l0.01,0.83zm6.03,12.08c0.13,0.11 0.22,0.29 0.22,0.58l0,0c0,0.52 -0.29,0.87 -0.84,0.87c-0.27,0 -0.47,-0.08 -0.63,-0.19l0.24,-0.3c0.12,0.09 0.24,0.12 0.38,0.12c0.2,0 0.32,-0.12 0.34,-0.33c-0.09,0.08 -0.22,0.13 -0.38,0.13c-0.35,0 -0.61,-0.19 -0.61,-0.5l0,0c0,-0.35 0.31,-0.58 0.72,-0.58c0.26,0 0.42,0.06 0.56,0.18l0.01,0.01zm-0.28,0.37c0,-0.12 -0.1,-0.22 -0.26,-0.22s-0.25,0.09 -0.25,0.21l0,0c0,0.12 0.1,0.21 0.26,0.21s0.25,-0.09 0.25,-0.21l0,0zm0.82,-0.4l0.09,0.33l0.3,-0.06l0,1.18l0.5,0l0,-1.59l-0.37,0l-0.53,0.13l0,0.01zm-3.2,0l0.09,0.33l0.3,-0.06l0,1.18l0.5,0l0,-1.59l-0.37,0l-0.53,0.13l0,0.01zm5.56,0.91c0.27,-0.17 0.42,-0.3 0.42,-0.55l0,0c0,-0.3 -0.27,-0.51 -0.66,-0.51c-0.35,0 -0.54,0.12 -0.74,0.33l0.34,0.24c0.14,-0.14 0.24,-0.2 0.36,-0.2s0.2,0.06 0.2,0.16s-0.06,0.17 -0.23,0.28l-0.68,0.45l0,0.33l1.43,0l0,-0.36l-0.74,0l0.31,-0.19l-0.01,0.01zm5.46,-3.37c-0.56,0 -0.91,0.32 -0.91,0.66l0,1.85l0,0s1.81,0 1.81,0l0,0l0,-1.85c0,-0.35 -0.35,-0.66 -0.91,-0.66l0.01,0z" id="svg_30"/>
   </g>
   <g id="svg_31">
    <path class="cls-2" d="m17.18,9.19c2.17,-0.51 4.56,-0.8 6.78,-0.84l0,1.08c-0.4,0.16 -0.68,0.51 -0.68,0.91c0,0.13 0.03,0.26 0.09,0.38c-1.52,0.05 -3.01,0.22 -4.47,0.49c0.02,-0.08 0.03,-0.16 0.03,-0.24c0,-0.56 -0.52,-1 -1.15,-1c-0.05,0 -0.11,0 -0.16,0.01c-0.17,-0.27 -0.32,-0.53 -0.45,-0.79l0.01,0zm-3.51,3.52c1.07,-0.42 2.15,-0.77 3.26,-1.06c-0.19,-0.18 -0.3,-0.42 -0.3,-0.67c0,-0.21 0.07,-0.39 0.19,-0.55c-0.23,-0.35 -0.42,-0.69 -0.56,-1c-1.81,0.49 -3.42,1.14 -4.56,1.92c0.51,0.47 1.17,0.93 1.97,1.36l0.01,0.01zm11.25,-3.27c0.4,0.16 0.68,0.51 0.68,0.91c0,0.13 -0.03,0.26 -0.09,0.38c1.52,0.05 3.01,0.22 4.47,0.49c-0.02,-0.08 -0.03,-0.16 -0.03,-0.24c0,-0.56 0.52,-1 1.15,-1c0.05,0 0.11,0 0.16,0.01c0.17,-0.27 0.32,-0.53 0.45,-0.79c-2.17,-0.51 -4.56,-0.8 -6.78,-0.84l0,1.08l-0.01,0zm7.16,1c0.12,0.16 0.19,0.35 0.19,0.55c0,0.26 -0.12,0.5 -0.3,0.67c1.1,0.29 2.2,0.64 3.26,1.06c0.81,-0.43 1.47,-0.89 1.97,-1.36c-1.14,-0.78 -2.75,-1.43 -4.56,-1.92c-0.15,0.32 -0.33,0.65 -0.56,1l0.01,-0.01zm-7.63,1.15c-0.37,0 -0.68,0.26 -0.68,0.59s0.3,0.59 0.68,0.59s0.68,-0.26 0.68,-0.59s-0.3,-0.59 -0.68,-0.59zm-4.99,0.46c-0.37,0 -0.68,0.26 -0.68,0.59s0.3,0.59 0.68,0.59s0.68,-0.26 0.68,-0.59s-0.3,-0.59 -0.68,-0.59zm9.99,0c-0.37,0 -0.68,0.26 -0.68,0.59s0.3,0.59 0.68,0.59s0.68,-0.26 0.68,-0.59s-0.3,-0.59 -0.68,-0.59z" id="svg_32"/>
    <path class="cls-3" d="m13.04,13.34c0.19,0.11 0.37,0.24 0.52,0.39l1.71,1.79s0,0 0,0c0.12,-0.05 0.23,-0.1 0.35,-0.15c0,0 0.01,0 0.01,0c0.12,-0.05 0.24,-0.1 0.36,-0.15c0.93,-0.37 1.9,-0.68 2.9,-0.93c0.56,-0.14 1.13,-0.26 1.71,-0.35c0.18,-0.03 0.36,-0.06 0.54,-0.08c1.09,-0.16 2.2,-0.24 3.33,-0.24c0.56,0 1.13,0.02 1.68,0.06c2.4,0.17 4.69,0.7 6.78,1.53c0,0 0,0 0,0c0.12,0.05 0.24,0.1 0.35,0.15c0,0 0,0 0.01,0c0.12,0.05 0.23,0.1 0.35,0.15c0,0 0,0 0,0l1.66,-1.75c0.15,-0.16 0.32,-0.29 0.52,-0.39c3.15,-1.71 3.68,-3.48 3.56,-4.68c-0.16,-1.5 -1.5,-2.91 -3.34,-3.51c-1.34,-0.44 -2.66,-0.34 -3.63,0.23c-0.13,-0.18 -0.27,-0.33 -0.4,-0.46c-1.51,-1.49 -4.43,-2.11 -6.62,-1.58c-0.08,-0.25 -0.3,-0.46 -0.58,-0.55l0,-0.91l0.74,0l0,-0.58l-0.74,0l0,-0.59l-0.67,0l0,0.59l-0.74,0l0,0.58l0.74,0l0,0.91c-0.28,0.09 -0.5,0.3 -0.58,0.55c-2.2,-0.54 -5.11,0.09 -6.62,1.58c-0.14,0.13 -0.27,0.29 -0.4,0.46c-0.97,-0.58 -2.3,-0.67 -3.63,-0.23c-1.84,0.6 -3.18,2.01 -3.34,3.51c-0.12,1.19 0.4,2.95 3.51,4.65l-0.02,0zm6.42,-0.12c-0.37,0 -0.68,-0.26 -0.68,-0.59s0.3,-0.59 0.68,-0.59s0.68,0.26 0.68,0.59s-0.3,0.59 -0.68,0.59zm9.99,0c-0.37,0 -0.68,-0.26 -0.68,-0.59s0.3,-0.59 0.68,-0.59s0.68,0.26 0.68,0.59s-0.3,0.59 -0.68,0.59zm3.2,-3.79c0.63,-1.37 0.54,-2.45 0.19,-3.26c0.73,-0.48 1.78,-0.56 2.86,-0.21c1.25,0.4 2.58,1.43 2.72,2.81c0.09,0.88 -0.32,1.76 -1.22,2.58c-0.51,0.47 -1.17,0.93 -1.97,1.36c-1.07,-0.42 -2.15,-0.77 -3.26,-1.06c0.19,-0.18 0.3,-0.42 0.3,-0.67c0,-0.21 -0.07,-0.39 -0.19,-0.55c0.23,-0.35 0.42,-0.69 0.56,-1l-0.01,0.01zm-7.71,-1.07l0,-3.94c1.69,-0.75 4.78,-0.46 6.35,1.09c0.98,0.97 1.12,2.24 0.43,3.69c-0.12,0.26 -0.27,0.52 -0.45,0.79c-0.05,-0.01 -0.1,-0.01 -0.16,-0.01c-0.64,0 -1.15,0.45 -1.15,1c0,0.08 0.01,0.16 0.03,0.24c-1.46,-0.28 -2.96,-0.44 -4.47,-0.49c0.06,-0.12 0.09,-0.24 0.09,-0.38c0,-0.4 -0.28,-0.76 -0.68,-0.91l0,-1.08l0.01,0zm-0.48,3.23c0.37,0 0.68,0.26 0.68,0.59s-0.3,0.59 -0.68,0.59s-0.68,-0.26 -0.68,-0.59s0.3,-0.59 0.68,-0.59zm-6.83,-6.08c1.57,-1.55 4.65,-1.84 6.35,-1.09l0,5.02c-0.4,0.16 -0.68,0.51 -0.68,0.91c0,0.13 0.03,0.26 0.09,0.38c-1.52,0.05 -3.01,0.22 -4.47,0.49c0.02,-0.08 0.03,-0.16 0.03,-0.24c0,-0.56 -0.52,-1 -1.15,-1c-0.05,0 -0.11,0 -0.16,0.01c-0.17,-0.27 -0.32,-0.53 -0.45,-0.79c-0.68,-1.45 -0.55,-2.72 0.43,-3.69l0.01,0zm-7.14,3.26c0.14,-1.38 1.46,-2.4 2.72,-2.81c1.09,-0.35 2.13,-0.27 2.86,0.21c-0.35,0.81 -0.43,1.89 0.19,3.26c0.15,0.32 0.33,0.65 0.56,1c-0.12,0.16 -0.19,0.35 -0.19,0.55c0,0.26 0.12,0.5 0.3,0.67c-1.1,0.29 -2.2,0.64 -3.26,1.06c-0.81,-0.43 -1.47,-0.89 -1.97,-1.36c-0.89,-0.83 -1.3,-1.7 -1.22,-2.58l-0.01,-0.01z" id="svg_33"/>
   </g>
  </g>
 </g>
</svg>