<?xml version="1.0" encoding="UTF-8"?> <svg xmlns="http://www.w3.org/2000/svg" id="Capa_2" data-name="Capa 2" viewBox="0 0 260.7 91.21"><defs><style> .cls-1 { fill: #fff; } .cls-2 { fill: #be1622; } .cls-3 { fill: #eab917; } </style></defs><g id="Capa_1-2" data-name="Capa 1"><ellipse class="cls-1" cx="32.95" cy="58.1" rx="31.8" ry="31.82"></ellipse><g><g><path class="cls-1" d="M87.19,51.16l-3.66-5.18h-3.28v5.18h-2.59v-14.86h6.62c.85,0,1.62,.11,2.3,.33s1.27,.53,1.74,.93c.47,.4,.84,.9,1.09,1.49,.25,.59,.38,1.24,.38,1.96,0,.62-.09,1.18-.27,1.67-.18,.49-.42,.92-.73,1.3-.31,.38-.68,.69-1.11,.96-.43,.26-.91,.46-1.43,.6l4.01,5.63h-3.08Zm-.85-11.88c-.54-.42-1.3-.63-2.28-.63h-3.81v5.01h3.83c.94,0,1.68-.23,2.24-.68,.55-.45,.83-1.07,.83-1.83,0-.82-.27-1.45-.81-1.87Z"></path><path class="cls-1" d="M95.13,48.58c.58,.49,1.29,.73,2.12,.73,.64,0,1.19-.11,1.66-.34,.47-.23,.93-.56,1.38-1l1.51,1.34c-.54,.64-1.18,1.15-1.92,1.53-.74,.38-1.63,.57-2.66,.57-.81,0-1.56-.14-2.26-.42-.7-.28-1.31-.68-1.83-1.19-.52-.51-.92-1.12-1.22-1.84-.3-.71-.45-1.51-.45-2.39,0-.81,.13-1.56,.4-2.27,.27-.71,.65-1.33,1.14-1.86s1.06-.95,1.73-1.26c.66-.31,1.4-.47,2.21-.47,.89,0,1.67,.16,2.35,.49,.67,.33,1.23,.76,1.68,1.32s.78,1.2,1.01,1.93c.23,.74,.34,1.51,.34,2.31,0,.11,0,.23-.01,.34,0,.11-.02,.23-.03,.36h-8.24c.16,.92,.52,1.62,1.1,2.11Zm4.63-3.81c-.04-.41-.13-.8-.28-1.16-.14-.36-.33-.67-.57-.93-.24-.26-.53-.47-.86-.63-.33-.16-.71-.23-1.14-.23-.79,0-1.45,.27-1.96,.82-.52,.54-.83,1.26-.94,2.13h5.75Z"></path><path class="cls-1" d="M111.33,51.16v-1.38c-.38,.45-.87,.84-1.46,1.15-.59,.31-1.32,.47-2.17,.47-.54,0-1.05-.07-1.53-.22s-.9-.37-1.26-.66c-.36-.29-.65-.65-.87-1.08-.22-.43-.33-.93-.33-1.5v-.04c0-.61,.11-1.14,.34-1.59s.54-.83,.94-1.13c.4-.3,.88-.52,1.44-.67,.56-.15,1.16-.22,1.82-.22s1.26,.04,1.73,.13c.47,.09,.93,.2,1.37,.34v-.28c0-.78-.24-1.37-.71-1.78-.47-.41-1.16-.62-2.05-.62-.64,0-1.2,.06-1.7,.19-.5,.13-1,.3-1.51,.51l-.7-2.06c.62-.28,1.26-.51,1.91-.68,.65-.17,1.44-.25,2.36-.25,1.67,0,2.91,.41,3.72,1.24,.81,.83,1.21,1.99,1.21,3.49v6.65h-2.55Zm.06-4.76c-.33-.13-.71-.23-1.16-.32s-.92-.13-1.41-.13c-.81,0-1.44,.16-1.89,.47s-.68,.76-.68,1.34v.04c0,.54,.21,.95,.63,1.23s.93,.42,1.54,.42c.42,0,.82-.06,1.18-.17s.68-.27,.94-.48c.27-.21,.48-.45,.63-.74,.15-.29,.22-.61,.22-.97v-.7Z"></path><path class="cls-1" d="M116.65,51.16v-15.5h2.59v15.5h-2.59Z"></path><path class="cls-1" d="M138.61,37.32c.88,.68,1.31,1.61,1.31,2.79,0,.45-.06,.86-.18,1.21-.12,.35-.27,.66-.46,.93-.19,.26-.41,.49-.67,.69-.26,.2-.52,.37-.79,.51,.44,.16,.83,.34,1.19,.54,.36,.21,.67,.45,.93,.73,.26,.28,.46,.62,.6,1.01s.21,.84,.21,1.35c0,.66-.13,1.25-.39,1.76s-.63,.94-1.11,1.28c-.48,.35-1.06,.61-1.74,.78-.68,.18-1.43,.26-2.25,.26h-6.87v-14.86h6.65c1.5,0,2.68,.34,3.56,1.02Zm-2.04,4.76c.51-.33,.76-.85,.76-1.55,0-.61-.22-1.08-.67-1.42-.44-.33-1.09-.5-1.94-.5h-3.74v3.97h3.55c.85,0,1.52-.17,2.03-.5Zm.83,6.24c.51-.35,.76-.86,.76-1.54,0-.64-.25-1.13-.75-1.49-.5-.35-1.27-.53-2.3-.53h-4.13v4.08h4.32c.89,0,1.59-.17,2.1-.52Z"></path><path class="cls-1" d="M149.86,51.16v-1.38c-.38,.45-.87,.84-1.46,1.15-.59,.31-1.32,.47-2.17,.47-.54,0-1.05-.07-1.53-.22-.48-.15-.9-.37-1.26-.66-.36-.29-.65-.65-.87-1.08-.22-.43-.33-.93-.33-1.5v-.04c0-.61,.11-1.14,.34-1.59,.23-.45,.54-.83,.94-1.13,.4-.3,.88-.52,1.44-.67,.56-.15,1.16-.22,1.82-.22s1.26,.04,1.73,.13,.93,.2,1.37,.34v-.28c0-.78-.24-1.37-.71-1.78-.47-.41-1.16-.62-2.05-.62-.64,0-1.2,.06-1.7,.19-.5,.13-1,.3-1.51,.51l-.7-2.06c.62-.28,1.26-.51,1.91-.68,.65-.17,1.44-.25,2.36-.25,1.67,0,2.91,.41,3.72,1.24,.81,.83,1.21,1.99,1.21,3.49v6.65h-2.55Zm.06-4.76c-.33-.13-.71-.23-1.16-.32s-.92-.13-1.41-.13c-.81,0-1.44,.16-1.89,.47-.45,.31-.68,.76-.68,1.34v.04c0,.54,.21,.95,.63,1.23s.93,.42,1.54,.42c.42,0,.82-.06,1.18-.17s.68-.27,.94-.48c.27-.21,.48-.45,.63-.74s.22-.61,.22-.97v-.7Z"></path><path class="cls-1" d="M155.19,51.16v-15.5h2.59v15.5h-2.59Z"></path><path class="cls-1" d="M171.57,47.83c-.3,.71-.72,1.33-1.25,1.86-.53,.53-1.16,.95-1.9,1.26s-1.54,.47-2.4,.47-1.64-.15-2.37-.46c-.73-.3-1.36-.72-1.89-1.25-.53-.53-.94-1.15-1.24-1.85s-.45-1.45-.45-2.26,.15-1.57,.46-2.28c.3-.71,.72-1.34,1.25-1.87,.53-.53,1.16-.95,1.89-1.26,.73-.31,1.53-.47,2.39-.47s1.66,.15,2.39,.46c.73,.3,1.36,.72,1.89,1.25,.53,.53,.94,1.15,1.24,1.86,.3,.71,.45,1.46,.45,2.27s-.15,1.56-.46,2.27Zm-2.39-3.63c-.17-.44-.4-.82-.71-1.16s-.66-.59-1.08-.79c-.42-.19-.88-.29-1.38-.29s-.97,.1-1.38,.29c-.42,.19-.77,.45-1.07,.77-.29,.33-.52,.7-.67,1.14s-.23,.9-.23,1.39,.08,.97,.25,1.41,.4,.83,.71,1.16c.3,.33,.66,.58,1.08,.77,.42,.19,.87,.29,1.36,.29,.52,0,.99-.1,1.4-.29,.42-.19,.77-.45,1.07-.77,.29-.33,.52-.7,.67-1.14,.15-.43,.23-.9,.23-1.39s-.08-.96-.25-1.4Z"></path><path class="cls-1" d="M185.15,40.27c.62-.36,1.35-.55,2.2-.55,1.23,0,2.19,.37,2.89,1.11,.69,.74,1.04,1.8,1.04,3.17v7.15h-2.59v-6.35c0-.89-.2-1.57-.59-2.03-.39-.47-.95-.7-1.67-.7s-1.28,.24-1.72,.71c-.44,.47-.67,1.16-.67,2.06v6.31h-2.59v-6.38c0-.88-.2-1.55-.59-2.01-.39-.47-.95-.7-1.67-.7s-1.3,.25-1.73,.74-.65,1.18-.65,2.05v6.29h-2.59v-11.21h2.59v1.72c.18-.26,.38-.5,.59-.73s.46-.44,.73-.62c.28-.19,.59-.33,.93-.44s.73-.16,1.16-.16c.81,0,1.49,.18,2.05,.55s.99,.85,1.28,1.45c.45-.6,.99-1.08,1.6-1.45Z"></path><path class="cls-1" d="M205.11,48.04c-.29,.72-.68,1.33-1.17,1.84-.49,.5-1.05,.88-1.68,1.14-.63,.26-1.28,.38-1.94,.38-.92,0-1.68-.2-2.29-.59-.61-.4-1.11-.86-1.51-1.38l.02,5.14h-2.59v-14.61h2.59v1.87c.41-.59,.92-1.09,1.52-1.5,.61-.4,1.36-.6,2.27-.6,.66,0,1.31,.13,1.93,.38s1.18,.63,1.66,1.14c.49,.5,.88,1.11,1.18,1.84,.3,.72,.44,1.55,.44,2.48s-.15,1.76-.44,2.48Zm-2.41-3.98c-.17-.45-.4-.82-.69-1.14-.29-.31-.63-.55-1.02-.72-.39-.17-.8-.25-1.24-.25s-.86,.08-1.25,.25c-.4,.17-.74,.41-1.04,.73-.3,.32-.53,.7-.71,1.14s-.27,.93-.27,1.49,.09,1.05,.27,1.49,.41,.82,.71,1.14,.64,.56,1.04,.73c.4,.17,.81,.26,1.25,.26s.85-.09,1.24-.26c.39-.17,.73-.41,1.02-.72s.52-.69,.69-1.14c.17-.45,.25-.94,.25-1.5s-.08-1.05-.25-1.5Z"></path><path class="cls-1" d="M210.81,48.58c.58,.49,1.29,.73,2.12,.73,.64,0,1.19-.11,1.66-.34,.47-.23,.93-.56,1.38-1l1.51,1.34c-.54,.64-1.18,1.15-1.92,1.53-.74,.38-1.63,.57-2.66,.57-.81,0-1.56-.14-2.26-.42-.7-.28-1.31-.68-1.83-1.19-.52-.51-.92-1.12-1.22-1.84-.3-.71-.45-1.51-.45-2.39,0-.81,.13-1.56,.4-2.27,.27-.71,.65-1.33,1.14-1.86s1.06-.95,1.73-1.26c.66-.31,1.4-.47,2.21-.47,.89,0,1.67,.16,2.35,.49,.67,.33,1.23,.76,1.68,1.32s.78,1.2,1.01,1.93c.23,.74,.34,1.51,.34,2.31,0,.11,0,.23-.01,.34,0,.11-.02,.23-.03,.36h-8.24c.16,.92,.52,1.62,1.1,2.11Zm4.63-3.81c-.04-.41-.13-.8-.28-1.16-.14-.36-.33-.67-.57-.93-.24-.26-.53-.47-.86-.63-.33-.16-.71-.23-1.14-.23-.79,0-1.45,.27-1.96,.82-.52,.54-.83,1.26-.94,2.13h5.75Zm-4.01-6.24l2.25-3.48,2.34,1.04-2.59,2.44h-2Z"></path><path class="cls-1" d="M228.58,51.16v-1.87c-.41,.58-.92,1.08-1.54,1.49s-1.37,.62-2.28,.62c-.66,0-1.31-.13-1.93-.38-.62-.25-1.17-.63-1.65-1.14-.48-.5-.87-1.11-1.16-1.84-.3-.72-.44-1.55-.44-2.48s.14-1.76,.43-2.48c.29-.72,.67-1.33,1.15-1.84,.48-.5,1.03-.88,1.66-1.14,.63-.25,1.27-.38,1.94-.38,.92,0,1.68,.2,2.29,.59s1.12,.86,1.53,1.38v-6.03h2.59v15.5h-2.59Zm-.22-7.09c-.18-.44-.41-.82-.71-1.14-.3-.32-.64-.56-1.04-.73-.39-.17-.8-.25-1.23-.25s-.85,.08-1.24,.24c-.39,.16-.73,.4-1.03,.71-.3,.31-.53,.69-.7,1.14-.17,.45-.25,.95-.25,1.52s.08,1.05,.25,1.5c.17,.45,.4,.82,.7,1.14s.64,.55,1.03,.72c.39,.17,.8,.26,1.24,.26s.83-.09,1.23-.26c.39-.17,.74-.41,1.04-.73s.53-.7,.71-1.14c.18-.44,.27-.93,.27-1.49s-.09-1.05-.27-1.49Z"></path><path class="cls-1" d="M233.99,38.23v-2.44h2.78v2.44h-2.78Zm.11,12.93v-11.21h2.59v11.21h-2.59Z"></path><path class="cls-1" d="M247.49,50.83c-.71,.39-1.61,.58-2.7,.58-.84,0-1.61-.15-2.31-.46-.71-.3-1.32-.72-1.84-1.25-.52-.53-.93-1.15-1.22-1.85s-.44-1.45-.44-2.26,.15-1.56,.44-2.27c.29-.71,.7-1.33,1.22-1.87,.52-.54,1.14-.96,1.85-1.27s1.49-.47,2.33-.47c1.06,0,1.94,.18,2.64,.53,.7,.35,1.31,.82,1.84,1.4l-1.59,1.72c-.4-.41-.82-.75-1.26-1.01-.45-.26-.99-.39-1.65-.39-.47,0-.9,.1-1.3,.29-.4,.19-.74,.45-1.02,.77-.28,.33-.51,.7-.67,1.14-.16,.43-.24,.9-.24,1.39s.08,.98,.24,1.42c.16,.44,.39,.82,.69,1.15,.3,.33,.65,.58,1.06,.77,.41,.19,.86,.29,1.36,.29,.61,0,1.14-.13,1.6-.39,.46-.26,.9-.6,1.31-1.01l1.55,1.53c-.55,.62-1.18,1.13-1.89,1.52Z"></path><path class="cls-1" d="M258.15,51.16v-1.38c-.38,.45-.87,.84-1.47,1.15-.59,.31-1.32,.47-2.17,.47-.54,0-1.05-.07-1.53-.22-.48-.15-.9-.37-1.26-.66-.36-.29-.65-.65-.87-1.08-.22-.43-.33-.93-.33-1.5v-.04c0-.61,.11-1.14,.34-1.59,.23-.45,.54-.83,.94-1.13,.4-.3,.88-.52,1.44-.67,.56-.15,1.16-.22,1.82-.22s1.26,.04,1.73,.13,.93,.2,1.37,.34v-.28c0-.78-.24-1.37-.71-1.78-.47-.41-1.16-.62-2.05-.62-.64,0-1.2,.06-1.7,.19-.5,.13-1,.3-1.51,.51l-.7-2.06c.62-.28,1.26-.51,1.91-.68,.65-.17,1.44-.25,2.36-.25,1.67,0,2.91,.41,3.72,1.24,.81,.83,1.21,1.99,1.21,3.49v6.65h-2.55Zm.06-4.76c-.33-.13-.71-.23-1.16-.32s-.92-.13-1.41-.13c-.81,0-1.44,.16-1.89,.47-.45,.31-.68,.76-.68,1.34v.04c0,.54,.21,.95,.63,1.23s.93,.42,1.54,.42c.42,0,.82-.06,1.18-.17,.36-.11,.68-.27,.94-.48s.48-.45,.63-.74,.22-.61,.22-.97v-.7Z"></path><path class="cls-1" d="M77.34,59.53h4.99v13.64h8.72v4.37h-13.71v-18.01Z"></path><path class="cls-1" d="M92.39,58.76h5.09v3.6h-5.09v-3.6Zm.1,4.86h4.89v13.92h-4.89v-13.92Z"></path><path class="cls-1" d="M99.6,63.62h4.89v1.96c.9-1.16,2.19-2.26,4.17-2.26,2.96,0,4.73,1.96,4.73,5.12v9.11h-4.89v-7.54c0-1.52-.8-2.34-1.96-2.34s-2.06,.82-2.06,2.34v7.54h-4.89v-13.92Z"></path><path class="cls-1" d="M114.83,70.64v-.05c0-4.07,2.91-7.28,7.03-7.28,4.81,0,7.02,3.53,7.02,7.62,0,.31,0,.67-.03,1h-9.31c.39,1.52,1.49,2.29,3.01,2.29,1.16,0,2.08-.44,3.09-1.42l2.7,2.24c-1.34,1.7-3.27,2.83-6.05,2.83-4.37,0-7.46-2.91-7.46-7.23Zm9.47-1.21c-.18-1.54-1.08-2.52-2.42-2.52s-2.16,1-2.42,2.52h4.84Z"></path><path class="cls-1" d="M130.45,63.62h4.89v1.96c.9-1.16,2.19-2.26,4.17-2.26,2.96,0,4.73,1.96,4.73,5.12v9.11h-4.89v-7.54c0-1.52-.8-2.34-1.96-2.34s-2.06,.82-2.06,2.34v7.54h-4.89v-13.92Z"></path><path class="cls-1" d="M145.2,75.79l1.83-2.96c1.6,1.05,3.35,1.6,4.79,1.6,.85,0,1.24-.26,1.24-.75v-.05c0-.54-.77-.77-2.24-1.18-2.75-.72-4.94-1.65-4.94-4.45v-.05c0-2.96,2.37-4.61,5.58-4.61,2.03,0,4.14,.59,5.74,1.62l-1.67,3.09c-1.44-.8-3.01-1.29-4.12-1.29-.75,0-1.13,.28-1.13,.67v.05c0,.54,.8,.8,2.26,1.24,2.75,.77,4.94,1.72,4.94,4.43v.05c0,3.06-2.29,4.66-5.69,4.66-2.34,0-4.66-.67-6.59-2.06Z"></path><path class="cls-1" d="M158.4,70.64v-.05c0-4.07,2.91-7.28,7.02-7.28,4.81,0,7.03,3.53,7.03,7.62,0,.31,0,.67-.03,1h-9.32c.39,1.52,1.49,2.29,3.01,2.29,1.16,0,2.08-.44,3.09-1.42l2.7,2.24c-1.34,1.7-3.27,2.83-6.05,2.83-4.37,0-7.46-2.91-7.46-7.23Zm9.47-1.21c-.18-1.54-1.08-2.52-2.42-2.52s-2.16,1-2.42,2.52h4.84Z"></path></g><g><g><path class="cls-1" d="M49.01,29.49l2.51-3.02c.14-.17,.31-.32,.51-.44,5.7-3.56,6.62-7.4,6.39-9.99-.29-3.31-2.82-6.41-6.29-7.7-1.05-.39-2.11-.59-3.15-.59-.99,0-1.95,.19-2.81,.55-2.04-2.31-5.51-3.75-9.04-3.75-.35,0-.7,.01-1.04,.04V1.09h-1.2V0h-3.88V1.09h-1.2v3.49c-.34-.03-.69-.04-1.04-.04-3.53,0-7,1.44-9.04,3.75-.86-.36-1.82-.55-2.81-.55s-2.1,.2-3.15,.59c-3.47,1.29-5.99,4.39-6.29,7.7-.23,2.58,.68,6.39,6.31,9.94,.19,.12,.36,.27,.5,.44l2.57,3.1C6.8,35.15,0,45.91,0,58.26c0,18.2,14.75,32.95,32.95,32.95s32.95-14.75,32.95-32.95c0-12.36-6.81-23.13-16.88-28.76Z"></path><path class="cls-3" d="M40.1,62.96l-.74,6.86h-3.55v-5.99c0-1.19-1.01-2.46-2.87-2.46s-2.87,1.27-2.87,2.46v5.99h-3.55l-.74-6.86s0,0,0-.01c0-.03,0-.05-.02-.07,0,0,0-.01,0-.02-.01-.03-.02-.06-.04-.08,0,0,0-.01-.01-.02-.01-.02-.03-.04-.04-.06,0,0-.01-.01-.02-.02-.02-.02-.05-.04-.07-.06l-1.57-1.01-.33-6.73h1.31v-1.38h1.73v1.38h3v-1.38h1.73v1.38h3v-1.38h1.73v1.38h3v-1.38h1.73v1.38h1.31l-.33,6.73-1.57,1.01s-.05,.04-.07,.06c0,0-.01,.01-.02,.02-.02,.02-.03,.04-.04,.06,0,0,0,.01-.01,.02-.02,.03-.03,.05-.04,.08,0,0,0,.01,0,.02,0,.02-.01,.05-.02,.07,0,0,0,0,0,.01Zm9.36-14.86v-2.66h-1.14v1.38h-1.65v-1.38h-1.59v1.38h-1.65v-1.38h-1.14v2.66h7.17Zm2.57,22.76l-.79-7.39s-.03,0-.05,0h-10.63s-.03,0-.05,0l-.79,7.39h4.46v-3.99c0-.75,.65-1.43,1.69-1.43s1.69,.68,1.69,1.43v3.99h4.46Zm-3.2-20.67l.56,11.22h-7.04l.56-11.22s.02,0,.02,0h5.87s.02,0,.02,0Zm-1.5,3.58c0-.64-.56-1.23-1.46-1.23s-1.46,.59-1.46,1.23v3.43h2.91v-3.43Zm-5.04-5.22l.65,1.17h5.87l.65-1.17h-7.17Zm-1.73,14.45h10.63l-1.77-1.14h-7.08l-1.77,1.14Zm-16.95-14.91v-2.66h-1.14v1.38h-1.65v-1.38h-1.59v1.38h-1.65v-1.38h-1.14v2.66h7.17Zm1.73,15.37H14.71s-.03,0-.05,0l-.79,7.39h4.46v-3.99c0-.75,.65-1.43,1.69-1.43s1.69,.68,1.69,1.43v3.99h4.46l-.79-7.39s-.03,0-.05,0Zm-2.38-13.28s.02,0,.02,0l.56,11.22h-7.04l.56-11.22s.02,0,.02,0h5.87Zm-1.48,3.58c0-.64-.56-1.23-1.46-1.23s-1.46,.59-1.46,1.23v3.43h2.92v-3.43Zm2.13-5.22h-7.17l.65,1.17h5.87l.65-1.17h0Zm-.04,13.31h-7.08l-1.77,1.14h10.63l-1.77-1.14Z"></path><path d="M54.45,38.65l-1.07-1.11,1.42,.41-.35,.71Zm-2.49,5.47l4.29-2.56,.99,1.65c.92,1.53,.56,2.95-.67,3.69h-.01c-1.24,.75-2.69,.4-3.62-1.15l-.97-1.63Zm1.76,.56l.29,.48c.42,.71,1.1,.95,1.79,.53h.01c.69-.42,.8-1.13,.38-1.84l-.29-.48-2.18,1.3Zm-2.44-1.41l.84-.82-1.87-1.93,.57-.55,1.67,1.72,.78-.76-1.67-1.72,.54-.53,1.84,1.9,.84-.82-2.8-2.88-3.58,3.48,2.82,2.91Zm-32.59,13.94h2.78v-3.29h0s0-.15,0-.15c0-.64-.56-1.23-1.46-1.23s-1.46,.59-1.46,1.23v3.43h.13Zm45.95,.92c0,8.47-3.3,16.43-9.28,22.41-5.99,5.99-13.95,9.28-22.41,9.28s-16.43-3.3-22.41-9.28c-5.99-5.99-9.28-13.95-9.28-22.41s3.3-16.43,9.28-22.41c5.99-5.99,13.95-9.28,22.41-9.28s16.43,3.3,22.41,9.28c5.99,5.99,9.28,13.95,9.28,22.41Zm-1.27,0c0-16.78-13.65-30.43-30.43-30.43S2.51,41.35,2.51,58.14s13.65,30.43,30.43,30.43,30.43-13.65,30.43-30.43Zm-8.41,0c0,3.83-.98,7.42-2.71,10.56l.28,2.63h-2c-4.02,5.35-10.41,8.83-17.6,8.83s-13.58-3.48-17.6-8.83h-2l.28-2.63c-1.72-3.14-2.71-6.74-2.71-10.56,0-12.14,9.88-22.02,22.02-22.02s22.02,9.88,22.02,22.02Zm-14.66,4.49l1.57-1.01,.07-1.35,.27-5.38h-1.31v-1.38h-1.73v1.38h-3v-1.38h-1.73v1.38h-3v-1.38h-1.73v1.38h-3v-1.38h-1.73v1.38h-1.31l.33,6.73,1.57,1.01s.05,.04,.07,.06c0,0,.01,.01,.02,.02,.02,.02,.03,.04,.04,.06,0,0,0,.01,.01,.02,.02,.03,.03,.05,.04,.08,0,0,0,.01,0,.02,0,.02,.01,.05,.02,.07,0,0,0,0,0,.01l.74,6.86h3.55v-5.99h0c0-.67,.32-1.36,.93-1.84,.07-.05,.14-.1,.21-.15,.45-.29,1.03-.46,1.73-.46s1.28,.18,1.73,.46c.07,.05,.15,.1,.21,.15,.61,.48,.93,1.17,.93,1.84h0v5.99h3.55l.19-1.74h0s.55-5.13,.55-5.13c0,0,0,0,0-.01,0-.03,0-.05,.02-.07,0,0,0-.01,0-.02,.01-.03,.02-.06,.04-.08,0,0,0-.01,.01-.02,.01-.02,.02-.03,.03-.04,0,0,0,0,.01-.01,0,0,0,0,0,0,0,0,0-.01,.01-.01,.02-.02,.05-.04,.07-.06Zm-22.73-15.81v-1.38h-1.14v2.66h7.17v-2.66h-1.14v1.38h-1.65v-1.38h-1.59v1.38h-1.65Zm-1.14,1.75l.65,1.17h5.87l.65-1.17h-7.17Zm.63,1.63l-.47,9.51h0s-.09,1.71-.09,1.71h7.04l-.47-9.37h0s-.09-1.85-.09-1.85c0,0-.02,0-.02,0h-5.87s-.02,0-.02,0Zm8.27,12.82l-1.77-1.14h-7.08l-1.77,1.14h10.63Zm19.74-16.19h-1.65v-1.38h-1.14v2.66h7.17v-2.66h-1.14v1.38h-1.65v-1.38h-1.59v1.38Zm-2.14,2.92h5.87l.65-1.17h-7.17l.65,1.17Zm8.25,13.28l-1.77-1.14h-7.08l-1.77,1.14h10.63Zm-2.03-6.27h0l-.33-6.54s-.02,0-.02,0h-5.87s-.02,0-.02,0l-.56,11.22h7.04l-.23-4.67Zm-32.84-11.76h1.72v1.38h.72v-1.38h2.52v1.38h.72v-1.38h2.07v3.58h0s0,0,0,0c0,.01,0,.03,0,.04,0,0,0,.01,0,.02,0,.01,0,.02,0,.03,0,0,0,0,0,.01,0,0,0,.01,0,.02,0,.01,0,.03-.01,.04,0,0,0,.01,0,.02,0,.01-.01,.03-.02,.04,0,0,0,0,0,.01h0s0,.01,0,.01l-.58,1.04,.08,1.68,12.22-14.43c-.91-.12-1.84-.18-2.78-.18-6.73,0-12.74,3.16-16.63,8.06Zm-3.66,19.36l3.44-4.06,.52-10.44-.58-1.05s-.01-.02-.02-.03c0,0,0-.01,0-.02,0-.02-.02-.05-.02-.07,0,0,0-.01,0-.02,0-.02,0-.05,0-.07,0,0,0,0,0,0v-3.14c-2.66,3.55-4.24,7.95-4.24,12.71,0,2.16,.33,4.24,.93,6.21Zm2.34,6.52h2.84s.5,0,.5,0v-3.99c0-.61,.43-1.16,1.15-1.36,.17-.04,.34-.07,.54-.07h0c1.05,0,1.69,.68,1.69,1.43v3.99h.23s4.23,0,4.23,0l-.34-3.17-.45-4.23s-.03,0-.05,0H14.71s-.03,0-.05,0l-.47,4.35-.17,1.56s0,0,0,0l-.16,1.48h1.13Zm34.54,.46h-10.34l.11-1.04h-1.63l-7.52,8.88c.91,.12,1.84,.18,2.78,.18,6.71,0,12.7-3.14,16.59-8.02Zm2.49-.46l-.79-7.39s-.03,0-.05,0h-7.73s-2.9,0-2.9,0c-.02,0-.03,0-.05,0l-.79,7.39h3.97s.5,0,.5,0v-3.99c0-.75,.65-1.43,1.69-1.43s1.69,.68,1.69,1.43v3.99h.23s2.11,0,2.11,0h2.12Zm1.21-18.94l-3.64,4.3,.27,5.39,1.57,1.01s.05,.04,.07,.06c0,0,.01,.01,.02,.02,.02,.02,.03,.04,.04,.06,0,0,0,.01,.01,.02,.02,.03,.03,.05,.04,.08,0,0,0,.01,0,.02,0,.02,.01,.05,.02,.07,0,0,0,0,0,.01l.46,4.26c1.31-2.76,2.06-5.83,2.06-9.09,0-2.16-.33-4.24-.93-6.21Zm4.29,4.32l.55-1.15c-.41-.23-.7-.49-.79-1-.12-.69,.37-1.28,1.11-1.41h.01c.72-.13,1.39,.25,1.51,.94,.08,.47-.08,.83-.39,1.18l.98,.89c.53-.54,.83-1.26,.66-2.27-.26-1.49-1.58-2.39-3.02-2.14h-.01c-1.47,.26-2.34,1.58-2.1,2.99,.19,1.09,.77,1.63,1.5,1.98Zm-13.32-18.85l2.75-4.17,1.79,1.18c1.05,.69,1.38,1.68,.77,2.61h0c-.65,1-1.75,1.02-2.78,.33l-.57-.38-.78,1.19-1.16-.76Zm2.54-1.34l.55,.36c.41,.27,.8,.22,1.02-.11h0c.24-.37,.11-.73-.31-1l-.54-.36-.73,1.1Zm14.71,23.34l-.09,1.33-5.16,1.78,.1-1.48,.91-.3,.13-1.92-.87-.42,.1-1.45,4.88,2.46Zm-1.68,.55l-1.38-.66-.08,1.12,1.45-.46Zm-.34-12.37l-4.68,1.73,.48,1.3,4.68-1.73-.48-1.3ZM26.62,83.66l-1.25-3.1-1.24-.36-1.38,4.8,1.32,.38,.76-2.63,1.29,3.22,1.17,.33,1.38-4.8-1.32-.38-.73,2.54Zm2.9,2.96l4.05,.21,.06-1.18-2.68-.14,.04-.79,2.39,.12,.06-1.09-2.39-.12,.04-.76,2.64,.13,.06-1.18-4.01-.2-.25,4.99ZM9.54,60.73l.11,1.38-4.98,.39-.18-2.35c-.06-.76,.1-1.3,.41-1.66,.26-.31,.63-.49,1.13-.53h.01c.76-.06,1.3,.31,1.61,.9l1.64-1.32,.12,1.59-1.43,1.12h0s.05,.6,.05,.6l1.51-.12Zm-2.59,.2l-.07-.91c-.04-.47-.29-.72-.65-.69h-.01c-.39,.03-.57,.33-.53,.79l.07,.9,1.2-.09Zm7.92-18l-.99-.7-1.39,1.98-3.09-2.18-.8,1.13,4.08,2.88,2.19-3.11Zm2.43-2.49l-2.96-4.02,2.06-1.52c.51-.37,.95-.51,1.36-.45,.28,.04,.53,.18,.74,.46h0c.34,.48,.28,.95,.04,1.36,.61-.2,1.12-.15,1.52,.39h0c.51,.7,.25,1.54-.71,2.24l-2.07,1.53Zm-.7-3.22l.7-.52c.34-.25,.44-.5,.27-.74h0c-.16-.23-.43-.23-.76,.02l-.72,.53,.52,.71Zm.58,.78l.55,.74,.86-.63c.34-.25,.44-.53,.26-.76h0c-.16-.23-.44-.25-.81,.03l-.85,.63Zm4.62,41l-2.22,4.47,1.25,.62,2.23-4.47-1.25-.62Zm-11.16-30.88l-.72,1.79,.69,.66-.55,1.35-3.87-3.86,.5-1.24,5.46-.09-.56,1.38h-.96Zm-1.15-.03l-1.53-.02,1.11,1.05,.42-1.04Zm8.32,28.29l-2.9,4.07,3.1,2.21,.7-.99-1.97-1.4,2.19-3.08-1.13-.8Zm20.23,4.85l.46,2.6-2.48-2.24-1.27,.22,.87,4.92,1.35-.24-.48-2.7,2.58,2.33,1.19-.21-.87-4.92-1.35,.24ZM8.42,55.08l-.78-.12,.35-2.37-1.08-.16-.35,2.37-.75-.11,.38-2.62-1.16-.17-.58,3.97,4.94,.73,.59-4.01-1.16-.17-.39,2.65Zm22.77-20.49l-.19-1.2-2.39,.38-.6-3.73-1.37,.22,.79,4.93,3.76-.6Zm17.05,46.34l-.46-.65,1.96-1.38-.63-.89-1.96,1.38-.43-.62,2.17-1.52-.68-.96-3.29,2.31,2.87,4.09,3.32-2.33-.68-.96-2.19,1.54Zm-7.9-48.15l.57,2.25h.03s1.85-1.42,1.85-1.42l-.94,2.71,1.3,.45,1.63-4.72-1.38-.48-1.76,1.44-.49-2.22-1.38-.48-1.63,4.72,1.28,.44,.93-2.7Zm-8.47-.76h0c.09-1.45,1.31-2.54,2.85-2.44,1.54,.09,2.61,1.31,2.52,2.74h0c-.09,1.45-1.31,2.54-2.85,2.44-1.54-.09-2.61-1.31-2.52-2.74Zm1.42,.07c-.04,.72,.44,1.38,1.19,1.42,.76,.05,1.31-.53,1.35-1.25h0c.04-.73-.44-1.39-1.2-1.44-.75-.05-1.3,.54-1.34,1.25h0Zm12.18,50.15c-.37-.86-1.17-.92-2.32-.7-.7,.13-.89,.1-.98-.11h0c-.07-.18,.03-.37,.33-.5,.41-.17,.93-.21,1.48-.1l.25-1.17c-.67-.19-1.37-.14-2.15,.19-1.1,.47-1.52,1.37-1.15,2.23h0c.4,.96,1.27,.91,2.35,.72,.68-.12,.88-.08,.96,.11h0c.08,.21-.05,.41-.39,.55-.53,.23-1.12,.25-1.72,.08l-.35,1.15c.78,.27,1.66,.19,2.48-.16,1.12-.48,1.62-1.35,1.22-2.29h0ZM22.74,36.89l-1.35,.55,.05-5.46,1.23-.51,3.88,3.84-1.37,.57-.68-.69-1.78,.73v.96Zm-.03-2.11l1.04-.43-1.06-1.1,.02,1.53Zm9.71,22.39c.21,.21,.35,.54,.35,1.08h0c0,.96-.47,1.61-1.35,1.61-.43,0-.75-.14-1.02-.35l.38-.56c.2,.16,.39,.23,.62,.23,.33,0,.51-.23,.55-.61-.15,.14-.36,.24-.62,.24-.57,0-.98-.35-.98-.92h0c0-.65,.5-1.07,1.16-1.07,.42,0,.67,.12,.9,.34Zm-.45,.68c0-.22-.16-.4-.42-.4s-.41,.17-.41,.39h0c0,.23,.16,.39,.42,.39s.41-.17,.41-.38h0Zm1.32-.75l.15,.62,.49-.11v2.18h.8v-2.94h-.59l-.85,.24Zm-5.16,0l.15,.62,.49-.11v2.18h.8v-2.94h-.59l-.85,.24Zm8.96,1.69c.43-.31,.67-.55,.67-1.02h0c0-.56-.44-.94-1.07-.94-.57,0-.87,.22-1.19,.62l.55,.45c.23-.26,.38-.37,.58-.37s.32,.11,.32,.3-.1,.31-.37,.52l-1.09,.83v.61h2.31v-.66h-1.2l.5-.35Zm8.8-6.24c-.9,0-1.46,.59-1.46,1.23v3.43h0s2.91,0,2.91,0h0v-3.43c0-.64-.56-1.23-1.46-1.23Z"></path></g><g><path class="cls-2" d="M21.24,17.04c3.49-.94,7.34-1.49,10.93-1.56v2.01c-.64,.29-1.09,.94-1.09,1.69,0,.25,.05,.49,.14,.7-2.45,.1-4.85,.4-7.21,.91,.03-.14,.05-.29,.05-.44,0-1.03-.83-1.86-1.86-1.86-.08,0-.17,0-.25,.02-.28-.5-.52-.99-.72-1.47Zm-5.66,6.52c1.72-.77,3.47-1.42,5.25-1.96-.3-.33-.49-.77-.49-1.25,0-.38,.11-.72,.3-1.02-.37-.65-.67-1.27-.91-1.86-2.92,.91-5.51,2.12-7.35,3.56,.82,.87,1.88,1.72,3.18,2.52Zm18.13-6.07c.64,.29,1.09,.94,1.09,1.69,0,.25-.05,.49-.14,.7,2.45,.1,4.85,.4,7.21,.91-.03-.14-.05-.29-.05-.44,0-1.03,.83-1.86,1.86-1.86,.08,0,.17,0,.25,.02,.28-.5,.52-.99,.72-1.47-3.49-.94-7.34-1.49-10.93-1.56v2.01Zm11.53,1.85c.19,.29,.3,.64,.3,1.02,0,.48-.19,.92-.49,1.25,1.78,.53,3.54,1.18,5.25,1.96,1.3-.8,2.37-1.65,3.18-2.52-1.84-1.44-4.43-2.65-7.35-3.56-.24,.59-.53,1.21-.91,1.86Zm-12.29,2.13c-.6,0-1.09,.49-1.09,1.09s.49,1.09,1.09,1.09,1.09-.49,1.09-1.09-.49-1.09-1.09-1.09Zm-8.04,.86c-.6,0-1.09,.49-1.09,1.09s.49,1.09,1.09,1.09,1.09-.49,1.09-1.09-.49-1.09-1.09-1.09Zm16.09,0c-.6,0-1.09,.49-1.09,1.09s.49,1.09,1.09,1.09,1.09-.49,1.09-1.09-.49-1.09-1.09-1.09Z"></path><path class="cls-3" d="M14.56,24.73c.31,.2,.59,.44,.83,.73l2.75,3.31s0,0,0,0c.19-.09,.37-.19,.56-.28,0,0,.01,0,.02,0,.19-.09,.38-.18,.58-.27,1.5-.69,3.06-1.26,4.68-1.72,.9-.26,1.82-.48,2.75-.65,.29-.06,.58-.11,.87-.15,1.75-.29,3.54-.44,5.37-.44,.91,0,1.82,.04,2.71,.11,3.87,.32,7.55,1.3,10.93,2.84,0,0,0,0,0,0,.19,.09,.38,.18,.57,.27,0,0,0,0,.01,0,.19,.09,.37,.18,.56,.27,0,0,0,0,0,0l2.68-3.24c.24-.29,.52-.53,.84-.73,5.07-3.17,5.93-6.45,5.73-8.67-.25-2.78-2.41-5.4-5.38-6.51-2.16-.81-4.28-.63-5.85,.43-.21-.33-.43-.61-.65-.86-2.44-2.76-7.13-3.92-10.67-2.92-.13-.47-.49-.85-.94-1.02v-1.69h1.2v-1.08h-1.2V1.37h-1.08v1.09h-1.2v1.08h1.2v1.69c-.45,.17-.81,.55-.94,1.02-3.55-1-8.24,.16-10.67,2.92-.22,.25-.44,.53-.65,.86-1.57-1.07-3.7-1.24-5.85-.43-2.97,1.11-5.13,3.72-5.38,6.51-.2,2.21,.65,5.47,5.65,8.62Zm10.35-.23c-.6,0-1.09-.49-1.09-1.09s.49-1.09,1.09-1.09,1.09,.49,1.09,1.09-.49,1.09-1.09,1.09Zm16.09,0c-.6,0-1.09-.49-1.09-1.09s.49-1.09,1.09-1.09,1.09,.49,1.09,1.09-.49,1.09-1.09,1.09Zm5.16-7.03c1.01-2.54,.87-4.54,.31-6.04,1.17-.89,2.86-1.04,4.61-.39,2.02,.75,4.16,2.65,4.38,5.2,.15,1.64-.52,3.26-1.96,4.79-.82,.87-1.88,1.72-3.18,2.52-1.72-.77-3.47-1.42-5.25-1.96,.3-.33,.49-.77,.49-1.25,0-.38-.11-.72-.3-1.02,.37-.65,.67-1.27,.91-1.86Zm-12.43-1.99v-7.3c2.73-1.39,7.7-.85,10.23,2.02,1.58,1.8,1.8,4.15,.7,6.84-.2,.48-.44,.97-.72,1.47-.08-.01-.16-.02-.25-.02-1.03,0-1.86,.83-1.86,1.86,0,.15,.02,.3,.05,.44-2.36-.51-4.77-.81-7.21-.91,.09-.22,.14-.45,.14-.7,0-.75-.45-1.4-1.09-1.69v-2.01Zm-.77,5.98c.6,0,1.09,.49,1.09,1.09s-.49,1.09-1.09,1.09-1.09-.49-1.09-1.09,.49-1.09,1.09-1.09Zm-11-11.27c2.53-2.87,7.5-3.41,10.23-2.02v9.31c-.64,.29-1.09,.94-1.09,1.69,0,.25,.05,.49,.14,.7-2.45,.1-4.85,.4-7.21,.91,.03-.14,.05-.29,.05-.44,0-1.03-.83-1.86-1.86-1.86-.08,0-.17,0-.25,.02-.28-.5-.52-.99-.72-1.47-1.1-2.69-.89-5.05,.7-6.84Zm-11.5,6.05c.23-2.55,2.36-4.45,4.38-5.2,1.76-.65,3.44-.5,4.61,.39-.56,1.5-.7,3.51,.31,6.04,.24,.59,.53,1.21,.91,1.86-.19,.29-.3,.64-.3,1.02,0,.48,.19,.92,.49,1.25-1.78,.53-3.54,1.18-5.25,1.96-1.3-.8-2.37-1.65-3.18-2.52-1.43-1.53-2.1-3.15-1.96-4.79Z"></path></g></g></g></g></svg> 