<?xml version="1.0"?>
<svg width="200" height="50" xmlns="http://www.w3.org/2000/svg" xmlns:svg="http://www.w3.org/2000/svg" data-name="Capa 2">
 <defs>
  <style>.cls-1 { fill: #fff; } .cls-2 { fill: #be1622; } .cls-3 { fill: #eab917; }</style>
 </defs>
 <g class="layer">
  <title>Layer 1</title>
  <ellipse class="cls-1" cx="-437.05" cy="-12.9" id="svg_1" rx="31.8" ry="31.82"/>
  <g id="svg_3">
   <path class="cls-1" d="m18.19,20.16l-3.66,-5.18l-3.28,0l0,5.18l-2.59,0l0,-14.86l6.62,0c0.85,0 1.62,0.11 2.3,0.33s1.27,0.53 1.74,0.93c0.47,0.4 0.84,0.9 1.09,1.49c0.25,0.59 0.38,1.24 0.38,1.96c0,0.62 -0.09,1.18 -0.27,1.67c-0.18,0.49 -0.42,0.92 -0.73,1.3c-0.31,0.38 -0.68,0.69 -1.11,0.96c-0.43,0.26 -0.91,0.46 -1.43,0.6l4.01,5.63l-3.08,0l0.01,-0.01zm-0.85,-11.88c-0.54,-0.42 -1.3,-0.63 -2.28,-0.63l-3.81,0l0,5.01l3.83,0c0.94,0 1.68,-0.23 2.24,-0.68c0.55,-0.45 0.83,-1.07 0.83,-1.83c0,-0.82 -0.27,-1.45 -0.81,-1.87z" id="svg_4"/>
   <path class="cls-1" d="m26.13,17.58c0.58,0.49 1.29,0.73 2.12,0.73c0.64,0 1.19,-0.11 1.66,-0.34c0.47,-0.23 0.93,-0.56 1.38,-1l1.51,1.34c-0.54,0.64 -1.18,1.15 -1.92,1.53c-0.74,0.38 -1.63,0.57 -2.66,0.57c-0.81,0 -1.56,-0.14 -2.26,-0.42c-0.7,-0.28 -1.31,-0.68 -1.83,-1.19c-0.52,-0.51 -0.92,-1.12 -1.22,-1.84c-0.3,-0.71 -0.45,-1.51 -0.45,-2.39c0,-0.81 0.13,-1.56 0.4,-2.27c0.27,-0.71 0.65,-1.33 1.14,-1.86s1.06,-0.95 1.73,-1.26c0.66,-0.31 1.4,-0.47 2.21,-0.47c0.89,0 1.67,0.16 2.35,0.49c0.67,0.33 1.23,0.76 1.68,1.32s0.78,1.2 1.01,1.93c0.23,0.74 0.34,1.51 0.34,2.31c0,0.11 0,0.23 -0.01,0.34c0,0.11 -0.02,0.23 -0.03,0.36l-8.24,0c0.16,0.92 0.52,1.62 1.1,2.11l-0.01,0.01zm4.63,-3.81c-0.04,-0.41 -0.13,-0.8 -0.28,-1.16c-0.14,-0.36 -0.33,-0.67 -0.57,-0.93c-0.24,-0.26 -0.53,-0.47 -0.86,-0.63c-0.33,-0.16 -0.71,-0.23 -1.14,-0.23c-0.79,0 -1.45,0.27 -1.96,0.82c-0.52,0.54 -0.83,1.26 -0.94,2.13l5.75,0z" id="svg_5"/>
   <path class="cls-1" d="m42.33,20.16l0,-1.38c-0.38,0.45 -0.87,0.84 -1.46,1.15c-0.59,0.31 -1.32,0.47 -2.17,0.47c-0.54,0 -1.05,-0.07 -1.53,-0.22s-0.9,-0.37 -1.26,-0.66c-0.36,-0.29 -0.65,-0.65 -0.87,-1.08c-0.22,-0.43 -0.33,-0.93 -0.33,-1.5l0,-0.04c0,-0.61 0.11,-1.14 0.34,-1.59s0.54,-0.83 0.94,-1.13c0.4,-0.3 0.88,-0.52 1.44,-0.67c0.56,-0.15 1.16,-0.22 1.82,-0.22s1.26,0.04 1.73,0.13c0.47,0.09 0.93,0.2 1.37,0.34l0,-0.28c0,-0.78 -0.24,-1.37 -0.71,-1.78c-0.47,-0.41 -1.16,-0.62 -2.05,-0.62c-0.64,0 -1.2,0.06 -1.7,0.19c-0.5,0.13 -1,0.3 -1.51,0.51l-0.7,-2.06c0.62,-0.28 1.26,-0.51 1.91,-0.68c0.65,-0.17 1.44,-0.25 2.36,-0.25c1.67,0 2.91,0.41 3.72,1.24c0.81,0.83 1.21,1.99 1.21,3.49l0,6.65l-2.55,0l0,-0.01zm0.06,-4.76c-0.33,-0.13 -0.71,-0.23 -1.16,-0.32s-0.92,-0.13 -1.41,-0.13c-0.81,0 -1.44,0.16 -1.89,0.47s-0.68,0.76 -0.68,1.34l0,0.04c0,0.54 0.21,0.95 0.63,1.23s0.93,0.42 1.54,0.42c0.42,0 0.82,-0.06 1.18,-0.17s0.68,-0.27 0.94,-0.48c0.27,-0.21 0.48,-0.45 0.63,-0.74c0.15,-0.29 0.22,-0.61 0.22,-0.97l0,-0.7l0,0.01z" id="svg_6"/>
   <path class="cls-1" d="m47.65,20.16l0,-15.5l2.59,0l0,15.5l-2.59,0z" id="svg_7"/>
   <path class="cls-1" d="m69.61,6.32c0.88,0.68 1.31,1.61 1.31,2.79c0,0.45 -0.06,0.86 -0.18,1.21c-0.12,0.35 -0.27,0.66 -0.46,0.93c-0.19,0.26 -0.41,0.49 -0.67,0.69c-0.26,0.2 -0.52,0.37 -0.79,0.51c0.44,0.16 0.83,0.34 1.19,0.54c0.36,0.21 0.67,0.45 0.93,0.73c0.26,0.28 0.46,0.62 0.6,1.01s0.21,0.84 0.21,1.35c0,0.66 -0.13,1.25 -0.39,1.76s-0.63,0.94 -1.11,1.28c-0.48,0.35 -1.06,0.61 -1.74,0.78c-0.68,0.18 -1.43,0.26 -2.25,0.26l-6.87,0l0,-14.86l6.65,0c1.5,0 2.68,0.34 3.56,1.02l0.01,0zm-2.04,4.76c0.51,-0.33 0.76,-0.85 0.76,-1.55c0,-0.61 -0.22,-1.08 -0.67,-1.42c-0.44,-0.33 -1.09,-0.5 -1.94,-0.5l-3.74,0l0,3.97l3.55,0c0.85,0 1.52,-0.17 2.03,-0.5l0.01,0zm0.83,6.24c0.51,-0.35 0.76,-0.86 0.76,-1.54c0,-0.64 -0.25,-1.13 -0.75,-1.49c-0.5,-0.35 -1.27,-0.53 -2.3,-0.53l-4.13,0l0,4.08l4.32,0c0.89,0 1.59,-0.17 2.1,-0.52z" id="svg_8"/>
   <path class="cls-1" d="m80.86,20.16l0,-1.38c-0.38,0.45 -0.87,0.84 -1.46,1.15c-0.59,0.31 -1.32,0.47 -2.17,0.47c-0.54,0 -1.05,-0.07 -1.53,-0.22c-0.48,-0.15 -0.9,-0.37 -1.26,-0.66c-0.36,-0.29 -0.65,-0.65 -0.87,-1.08c-0.22,-0.43 -0.33,-0.93 -0.33,-1.5l0,-0.04c0,-0.61 0.11,-1.14 0.34,-1.59c0.23,-0.45 0.54,-0.83 0.94,-1.13c0.4,-0.3 0.88,-0.52 1.44,-0.67c0.56,-0.15 1.16,-0.22 1.82,-0.22s1.26,0.04 1.73,0.13s0.93,0.2 1.37,0.34l0,-0.28c0,-0.78 -0.24,-1.37 -0.71,-1.78c-0.47,-0.41 -1.16,-0.62 -2.05,-0.62c-0.64,0 -1.2,0.06 -1.7,0.19c-0.5,0.13 -1,0.3 -1.51,0.51l-0.7,-2.06c0.62,-0.28 1.26,-0.51 1.91,-0.68c0.65,-0.17 1.44,-0.25 2.36,-0.25c1.67,0 2.91,0.41 3.72,1.24c0.81,0.83 1.21,1.99 1.21,3.49l0,6.65l-2.55,0l0,-0.01zm0.06,-4.76c-0.33,-0.13 -0.71,-0.23 -1.16,-0.32s-0.92,-0.13 -1.41,-0.13c-0.81,0 -1.44,0.16 -1.89,0.47c-0.45,0.31 -0.68,0.76 -0.68,1.34l0,0.04c0,0.54 0.21,0.95 0.63,1.23s0.93,0.42 1.54,0.42c0.42,0 0.82,-0.06 1.18,-0.17s0.68,-0.27 0.94,-0.48c0.27,-0.21 0.48,-0.45 0.63,-0.74s0.22,-0.61 0.22,-0.97l0,-0.7l0,0.01z" id="svg_9"/>
   <path class="cls-1" d="m86.19,20.16l0,-15.5l2.59,0l0,15.5l-2.59,0z" id="svg_10"/>
   <path class="cls-1" d="m102.57,16.83c-0.3,0.71 -0.72,1.33 -1.25,1.86c-0.53,0.53 -1.16,0.95 -1.9,1.26s-1.54,0.47 -2.4,0.47s-1.64,-0.15 -2.37,-0.46c-0.73,-0.3 -1.36,-0.72 -1.89,-1.25c-0.53,-0.53 -0.94,-1.15 -1.24,-1.85s-0.45,-1.45 -0.45,-2.26s0.15,-1.57 0.46,-2.28c0.3,-0.71 0.72,-1.34 1.25,-1.87c0.53,-0.53 1.16,-0.95 1.89,-1.26c0.73,-0.31 1.53,-0.47 2.39,-0.47s1.66,0.15 2.39,0.46c0.73,0.3 1.36,0.72 1.89,1.25c0.53,0.53 0.94,1.15 1.24,1.86c0.3,0.71 0.45,1.46 0.45,2.27s-0.15,1.56 -0.46,2.27zm-2.39,-3.63c-0.17,-0.44 -0.4,-0.82 -0.71,-1.16s-0.66,-0.59 -1.08,-0.79c-0.42,-0.19 -0.88,-0.29 -1.38,-0.29s-0.97,0.1 -1.38,0.29c-0.42,0.19 -0.77,0.45 -1.07,0.77c-0.29,0.33 -0.52,0.7 -0.67,1.14s-0.23,0.9 -0.23,1.39s0.08,0.97 0.25,1.41s0.4,0.83 0.71,1.16c0.3,0.33 0.66,0.58 1.08,0.77c0.42,0.19 0.87,0.29 1.36,0.29c0.52,0 0.99,-0.1 1.4,-0.29c0.42,-0.19 0.77,-0.45 1.07,-0.77c0.29,-0.33 0.52,-0.7 0.67,-1.14c0.15,-0.43 0.23,-0.9 0.23,-1.39s-0.08,-0.96 -0.25,-1.4l0,0.01z" id="svg_11"/>
   <path class="cls-1" d="m116.15,9.27c0.62,-0.36 1.35,-0.55 2.2,-0.55c1.23,0 2.19,0.37 2.89,1.11c0.69,0.74 1.04,1.8 1.04,3.17l0,7.15l-2.59,0l0,-6.35c0,-0.89 -0.2,-1.57 -0.59,-2.03c-0.39,-0.47 -0.95,-0.7 -1.67,-0.7s-1.28,0.24 -1.72,0.71c-0.44,0.47 -0.67,1.16 -0.67,2.06l0,6.31l-2.59,0l0,-6.38c0,-0.88 -0.2,-1.55 -0.59,-2.01c-0.39,-0.47 -0.95,-0.7 -1.67,-0.7s-1.3,0.25 -1.73,0.74s-0.65,1.18 -0.65,2.05l0,6.29l-2.59,0l0,-11.21l2.59,0l0,1.72c0.18,-0.26 0.38,-0.5 0.59,-0.73s0.46,-0.44 0.73,-0.62c0.28,-0.19 0.59,-0.33 0.93,-0.44s0.73,-0.16 1.16,-0.16c0.81,0 1.49,0.18 2.05,0.55s0.99,0.85 1.28,1.45c0.45,-0.6 0.99,-1.08 1.6,-1.45l0,0.02z" id="svg_12"/>
   <path class="cls-1" d="m136.11,17.04c-0.29,0.72 -0.68,1.33 -1.17,1.84c-0.49,0.5 -1.05,0.88 -1.68,1.14c-0.63,0.26 -1.28,0.38 -1.94,0.38c-0.92,0 -1.68,-0.2 -2.29,-0.59c-0.61,-0.4 -1.11,-0.86 -1.51,-1.38l0.02,5.14l-2.59,0l0,-14.61l2.59,0l0,1.87c0.41,-0.59 0.92,-1.09 1.52,-1.5c0.61,-0.4 1.36,-0.6 2.27,-0.6c0.66,0 1.31,0.13 1.93,0.38s1.18,0.63 1.66,1.14c0.49,0.5 0.88,1.11 1.18,1.84c0.3,0.72 0.44,1.55 0.44,2.48s-0.15,1.76 -0.44,2.48l0.01,-0.01zm-2.41,-3.98c-0.17,-0.45 -0.4,-0.82 -0.69,-1.14c-0.29,-0.31 -0.63,-0.55 -1.02,-0.72c-0.39,-0.17 -0.8,-0.25 -1.24,-0.25s-0.86,0.08 -1.25,0.25c-0.4,0.17 -0.74,0.41 -1.04,0.73c-0.3,0.32 -0.53,0.7 -0.71,1.14s-0.27,0.93 -0.27,1.49s0.09,1.05 0.27,1.49s0.41,0.82 0.71,1.14s0.64,0.56 1.04,0.73c0.4,0.17 0.81,0.26 1.25,0.26s0.85,-0.09 1.24,-0.26c0.39,-0.17 0.73,-0.41 1.02,-0.72s0.52,-0.69 0.69,-1.14c0.17,-0.45 0.25,-0.94 0.25,-1.5s-0.08,-1.05 -0.25,-1.5z" id="svg_13"/>
   <path class="cls-1" d="m141.81,17.58c0.58,0.49 1.29,0.73 2.12,0.73c0.64,0 1.19,-0.11 1.66,-0.34c0.47,-0.23 0.93,-0.56 1.38,-1l1.51,1.34c-0.54,0.64 -1.18,1.15 -1.92,1.53c-0.74,0.38 -1.63,0.57 -2.66,0.57c-0.81,0 -1.56,-0.14 -2.26,-0.42c-0.7,-0.28 -1.31,-0.68 -1.83,-1.19c-0.52,-0.51 -0.92,-1.12 -1.22,-1.84c-0.3,-0.71 -0.45,-1.51 -0.45,-2.39c0,-0.81 0.13,-1.56 0.4,-2.27c0.27,-0.71 0.65,-1.33 1.14,-1.86s1.06,-0.95 1.73,-1.26c0.66,-0.31 1.4,-0.47 2.21,-0.47c0.89,0 1.67,0.16 2.35,0.49c0.67,0.33 1.23,0.76 1.68,1.32s0.78,1.2 1.01,1.93c0.23,0.74 0.34,1.51 0.34,2.31c0,0.11 0,0.23 -0.01,0.34c0,0.11 -0.02,0.23 -0.03,0.36l-8.24,0c0.16,0.92 0.52,1.62 1.1,2.11l-0.01,0.01zm4.63,-3.81c-0.04,-0.41 -0.13,-0.8 -0.28,-1.16c-0.14,-0.36 -0.33,-0.67 -0.57,-0.93c-0.24,-0.26 -0.53,-0.47 -0.86,-0.63c-0.33,-0.16 -0.71,-0.23 -1.14,-0.23c-0.79,0 -1.45,0.27 -1.96,0.82c-0.52,0.54 -0.83,1.26 -0.94,2.13l5.75,0zm-4.01,-6.24l2.25,-3.48l2.34,1.04l-2.59,2.44l-2,0z" id="svg_14"/>
   <path class="cls-1" d="m159.58,20.16l0,-1.87c-0.41,0.58 -0.92,1.08 -1.54,1.49s-1.37,0.62 -2.28,0.62c-0.66,0 -1.31,-0.13 -1.93,-0.38c-0.62,-0.25 -1.17,-0.63 -1.65,-1.14c-0.48,-0.5 -0.87,-1.11 -1.16,-1.84c-0.3,-0.72 -0.44,-1.55 -0.44,-2.48s0.14,-1.76 0.43,-2.48c0.29,-0.72 0.67,-1.33 1.15,-1.84c0.48,-0.5 1.03,-0.88 1.66,-1.14c0.63,-0.25 1.27,-0.38 1.94,-0.38c0.92,0 1.68,0.2 2.29,0.59s1.12,0.86 1.53,1.38l0,-6.03l2.59,0l0,15.5l-2.59,0zm-0.22,-7.09c-0.18,-0.44 -0.41,-0.82 -0.71,-1.14c-0.3,-0.32 -0.64,-0.56 -1.04,-0.73c-0.39,-0.17 -0.8,-0.25 -1.23,-0.25s-0.85,0.08 -1.24,0.24c-0.39,0.16 -0.73,0.4 -1.03,0.71c-0.3,0.31 -0.53,0.69 -0.7,1.14c-0.17,0.45 -0.25,0.95 -0.25,1.52s0.08,1.05 0.25,1.5c0.17,0.45 0.4,0.82 0.7,1.14s0.64,0.55 1.03,0.72c0.39,0.17 0.8,0.26 1.24,0.26s0.83,-0.09 1.23,-0.26c0.39,-0.17 0.74,-0.41 1.04,-0.73s0.53,-0.7 0.71,-1.14c0.18,-0.44 0.27,-0.93 0.27,-1.49s-0.09,-1.05 -0.27,-1.49z" id="svg_15"/>
   <path class="cls-1" d="m164.99,7.23l0,-2.44l2.78,0l0,2.44l-2.78,0zm0.11,12.93l0,-11.21l2.59,0l0,11.21l-2.59,0z" id="svg_16"/>
   <path class="cls-1" d="m178.49,19.83c-0.71,0.39 -1.61,0.58 -2.7,0.58c-0.84,0 -1.61,-0.15 -2.31,-0.46c-0.71,-0.3 -1.32,-0.72 -1.84,-1.25c-0.52,-0.53 -0.93,-1.15 -1.22,-1.85s-0.44,-1.45 -0.44,-2.26s0.15,-1.56 0.44,-2.27c0.29,-0.71 0.7,-1.33 1.22,-1.87c0.52,-0.54 1.14,-0.96 1.85,-1.27s1.49,-0.47 2.33,-0.47c1.06,0 1.94,0.18 2.64,0.53c0.7,0.35 1.31,0.82 1.84,1.4l-1.59,1.72c-0.4,-0.41 -0.82,-0.75 -1.26,-1.01c-0.45,-0.26 -0.99,-0.39 -1.65,-0.39c-0.47,0 -0.9,0.1 -1.3,0.29c-0.4,0.19 -0.74,0.45 -1.02,0.77c-0.28,0.33 -0.51,0.7 -0.67,1.14c-0.16,0.43 -0.24,0.9 -0.24,1.39s0.08,0.98 0.24,1.42c0.16,0.44 0.39,0.82 0.69,1.15c0.3,0.33 0.65,0.58 1.06,0.77c0.41,0.19 0.86,0.29 1.36,0.29c0.61,0 1.14,-0.13 1.6,-0.39c0.46,-0.26 0.9,-0.6 1.31,-1.01l1.55,1.53c-0.55,0.62 -1.18,1.13 -1.89,1.52z" id="svg_17"/>
   <path class="cls-1" d="m189.15,20.16l0,-1.38c-0.38,0.45 -0.87,0.84 -1.47,1.15c-0.59,0.31 -1.32,0.47 -2.17,0.47c-0.54,0 -1.05,-0.07 -1.53,-0.22c-0.48,-0.15 -0.9,-0.37 -1.26,-0.66c-0.36,-0.29 -0.65,-0.65 -0.87,-1.08c-0.22,-0.43 -0.33,-0.93 -0.33,-1.5l0,-0.04c0,-0.61 0.11,-1.14 0.34,-1.59c0.23,-0.45 0.54,-0.83 0.94,-1.13c0.4,-0.3 0.88,-0.52 1.44,-0.67c0.56,-0.15 1.16,-0.22 1.82,-0.22s1.26,0.04 1.73,0.13s0.93,0.2 1.37,0.34l0,-0.28c0,-0.78 -0.24,-1.37 -0.71,-1.78c-0.47,-0.41 -1.16,-0.62 -2.05,-0.62c-0.64,0 -1.2,0.06 -1.7,0.19c-0.5,0.13 -1,0.3 -1.51,0.51l-0.7,-2.06c0.62,-0.28 1.26,-0.51 1.91,-0.68c0.65,-0.17 1.44,-0.25 2.36,-0.25c1.67,0 2.91,0.41 3.72,1.24c0.81,0.83 1.21,1.99 1.21,3.49l0,6.65l-2.55,0l0.01,-0.01zm0.06,-4.76c-0.33,-0.13 -0.71,-0.23 -1.16,-0.32s-0.92,-0.13 -1.41,-0.13c-0.81,0 -1.44,0.16 -1.89,0.47c-0.45,0.31 -0.68,0.76 -0.68,1.34l0,0.04c0,0.54 0.21,0.95 0.63,1.23s0.93,0.42 1.54,0.42c0.42,0 0.82,-0.06 1.18,-0.17c0.36,-0.11 0.68,-0.27 0.94,-0.48s0.48,-0.45 0.63,-0.74s0.22,-0.61 0.22,-0.97l0,-0.7l0,0.01z" id="svg_18"/>
   <path class="cls-1" d="m8.34,28.53l4.99,0l0,13.64l8.72,0l0,4.37l-13.71,0l0,-18.01z" id="svg_19"/>
   <path class="cls-1" d="m23.39,27.76l5.09,0l0,3.6l-5.09,0l0,-3.6zm0.1,4.86l4.89,0l0,13.92l-4.89,0l0,-13.92z" id="svg_20"/>
   <path class="cls-1" d="m30.6,32.62l4.89,0l0,1.96c0.9,-1.16 2.19,-2.26 4.17,-2.26c2.96,0 4.73,1.96 4.73,5.12l0,9.11l-4.89,0l0,-7.54c0,-1.52 -0.8,-2.34 -1.96,-2.34s-2.06,0.82 -2.06,2.34l0,7.54l-4.89,0l0,-13.92l0.01,-0.01z" id="svg_21"/>
   <path class="cls-1" d="m45.83,39.64l0,-0.05c0,-4.07 2.91,-7.28 7.03,-7.28c4.81,0 7.02,3.53 7.02,7.62c0,0.31 0,0.67 -0.03,1l-9.31,0c0.39,1.52 1.49,2.29 3.01,2.29c1.16,0 2.08,-0.44 3.09,-1.42l2.7,2.24c-1.34,1.7 -3.27,2.83 -6.05,2.83c-4.37,0 -7.46,-2.91 -7.46,-7.23zm9.47,-1.21c-0.18,-1.54 -1.08,-2.52 -2.42,-2.52s-2.16,1 -2.42,2.52l4.84,0z" id="svg_22"/>
   <path class="cls-1" d="m61.45,32.62l4.89,0l0,1.96c0.9,-1.16 2.19,-2.26 4.17,-2.26c2.96,0 4.73,1.96 4.73,5.12l0,9.11l-4.89,0l0,-7.54c0,-1.52 -0.8,-2.34 -1.96,-2.34s-2.06,0.82 -2.06,2.34l0,7.54l-4.89,0l0,-13.92l0.01,-0.01z" id="svg_23"/>
   <path class="cls-1" d="m76.2,44.79l1.83,-2.96c1.6,1.05 3.35,1.6 4.79,1.6c0.85,0 1.24,-0.26 1.24,-0.75l0,-0.05c0,-0.54 -0.77,-0.77 -2.24,-1.18c-2.75,-0.72 -4.94,-1.65 -4.94,-4.45l0,-0.05c0,-2.96 2.37,-4.61 5.58,-4.61c2.03,0 4.14,0.59 5.74,1.62l-1.67,3.09c-1.44,-0.8 -3.01,-1.29 -4.12,-1.29c-0.75,0 -1.13,0.28 -1.13,0.67l0,0.05c0,0.54 0.8,0.8 2.26,1.24c2.75,0.77 4.94,1.72 4.94,4.43l0,0.05c0,3.06 -2.29,4.66 -5.69,4.66c-2.34,0 -4.66,-0.67 -6.59,-2.06l0,-0.01z" id="svg_24"/>
   <path class="cls-1" d="m89.4,39.64l0,-0.05c0,-4.07 2.91,-7.28 7.02,-7.28c4.81,0 7.03,3.53 7.03,7.62c0,0.31 0,0.67 -0.03,1l-9.32,0c0.39,1.52 1.49,2.29 3.01,2.29c1.16,0 2.08,-0.44 3.09,-1.42l2.7,2.24c-1.34,1.7 -3.27,2.83 -6.05,2.83c-4.37,0 -7.46,-2.91 -7.46,-7.23l0.01,0zm9.47,-1.21c-0.18,-1.54 -1.08,-2.52 -2.42,-2.52s-2.16,1 -2.42,2.52l4.84,0z" id="svg_25"/>
  </g>
  <g id="svg_26">
   <g id="svg_27">
    <path class="cls-1" d="m-207.99,-67.51l2.51,-3.02c0.14,-0.17 0.31,-0.32 0.51,-0.44c5.7,-3.56 6.62,-7.4 6.39,-9.99c-0.29,-3.31 -2.82,-6.41 -6.29,-7.7c-1.05,-0.39 -2.11,-0.59 -3.15,-0.59c-0.99,0 -1.95,0.19 -2.81,0.55c-2.04,-2.31 -5.51,-3.75 -9.04,-3.75c-0.35,0 -0.7,0.01 -1.04,0.04l0,-3.5l-1.2,0l0,-1.09l-3.88,0l0,1.09l-1.2,0l0,3.49c-0.34,-0.03 -0.69,-0.04 -1.04,-0.04c-3.53,0 -7,1.44 -9.04,3.75c-0.86,-0.36 -1.82,-0.55 -2.81,-0.55s-2.1,0.2 -3.15,0.59c-3.47,1.29 -5.99,4.39 -6.29,7.7c-0.23,2.58 0.68,6.39 6.31,9.94c0.19,0.12 0.36,0.27 0.5,0.44l2.57,3.1c-10.06,5.64 -16.86,16.4 -16.86,28.75c0,18.2 14.75,32.95 32.95,32.95s32.95,-14.75 32.95,-32.95c0,-12.36 -6.81,-23.13 -16.88,-28.76l-0.01,-0.01z" id="svg_28"/>
    <path class="cls-3" d="m-216.9,-34.04l-0.74,6.86l-3.55,0l0,-5.99c0,-1.19 -1.01,-2.46 -2.87,-2.46s-2.87,1.27 -2.87,2.46l0,5.99l-3.55,0l-0.74,-6.86s0,0 0,-0.01c0,-0.03 0,-0.05 -0.02,-0.07c0,0 0,-0.01 0,-0.02c-0.01,-0.03 -0.02,-0.06 -0.04,-0.08c0,0 0,-0.01 -0.01,-0.02c-0.01,-0.02 -0.03,-0.04 -0.04,-0.06c0,0 -0.01,-0.01 -0.02,-0.02c-0.02,-0.02 -0.05,-0.04 -0.07,-0.06l-1.57,-1.01l-0.33,-6.73l1.31,0l0,-1.38l1.73,0l0,1.38l3,0l0,-1.38l1.73,0l0,1.38l3,0l0,-1.38l1.73,0l0,1.38l3,0l0,-1.38l1.73,0l0,1.38l1.31,0l-0.33,6.73l-1.57,1.01s-0.05,0.04 -0.07,0.06c0,0 -0.01,0.01 -0.02,0.02c-0.02,0.02 -0.03,0.04 -0.04,0.06c0,0 0,0.01 -0.01,0.02c-0.02,0.03 -0.03,0.05 -0.04,0.08c0,0 0,0.01 0,0.02c0,0.02 -0.01,0.05 -0.02,0.07c0,0 0,0 0,0.01l-0.02,0zm9.36,-14.86l0,-2.66l-1.14,0l0,1.38l-1.65,0l0,-1.38l-1.59,0l0,1.38l-1.65,0l0,-1.38l-1.14,0l0,2.66l7.17,0zm2.57,22.76l-0.79,-7.39s-0.03,0 -0.05,0l-10.63,0s-0.03,0 -0.05,0l-0.79,7.39l4.46,0l0,-3.99c0,-0.75 0.65,-1.43 1.69,-1.43s1.69,0.68 1.69,1.43l0,3.99l4.46,0l0.01,0zm-3.2,-20.67l0.56,11.22l-7.04,0l0.56,-11.22s0.02,0 0.02,0l5.87,0s0.02,0 0.02,0l0.01,0zm-1.5,3.58c0,-0.64 -0.56,-1.23 -1.46,-1.23s-1.46,0.59 -1.46,1.23l0,3.43l2.91,0l0,-3.43l0.01,0zm-5.04,-5.22l0.65,1.17l5.87,0l0.65,-1.17l-7.17,0zm-1.73,14.45l10.63,0l-1.77,-1.14l-7.08,0l-1.77,1.14l-0.01,0zm-16.95,-14.91l0,-2.66l-1.14,0l0,1.38l-1.65,0l0,-1.38l-1.59,0l0,1.38l-1.65,0l0,-1.38l-1.14,0l0,2.66l7.17,0zm1.73,15.37l-10.63,0s-0.03,0 -0.05,0l-0.79,7.39l4.46,0l0,-3.99c0,-0.75 0.65,-1.43 1.69,-1.43s1.69,0.68 1.69,1.43l0,3.99l4.46,0l-0.79,-7.39s-0.03,0 -0.05,0l0.01,0zm-2.38,-13.28s0.02,0 0.02,0l0.56,11.22l-7.04,0l0.56,-11.22s0.02,0 0.02,0l5.87,0l0.01,0zm-1.48,3.58c0,-0.64 -0.56,-1.23 -1.46,-1.23s-1.46,0.59 -1.46,1.23l0,3.43l2.92,0l0,-3.43zm2.13,-5.22l-7.17,0l0.65,1.17l5.87,0l0.65,-1.17l0,0zm-0.04,13.31l-7.08,0l-1.77,1.14l10.63,0l-1.77,-1.14l-0.01,0z" id="svg_29"/>
    <path d="m-202.55,-58.35l-1.07,-1.11l1.42,0.41l-0.35,0.71l0,-0.01zm-2.49,5.47l4.29,-2.56l0.99,1.65c0.92,1.53 0.56,2.95 -0.67,3.69l-0.01,0c-1.24,0.75 -2.69,0.4 -3.62,-1.15l-0.97,-1.63l-0.01,0zm1.76,0.56l0.29,0.48c0.42,0.71 1.1,0.95 1.79,0.53l0.01,0c0.69,-0.42 0.8,-1.13 0.38,-1.84l-0.29,-0.48l-2.18,1.3l0,0.01zm-2.44,-1.41l0.84,-0.82l-1.87,-1.93l0.57,-0.55l1.67,1.72l0.78,-0.76l-1.67,-1.72l0.54,-0.53l1.84,1.9l0.84,-0.82l-2.8,-2.88l-3.58,3.48l2.82,2.91l0.02,0zm-32.59,13.94l2.78,0l0,-3.29l0,0s0,-0.15 0,-0.15c0,-0.64 -0.56,-1.23 -1.46,-1.23s-1.46,0.59 -1.46,1.23l0,3.43l0.13,0l0.01,0.01zm45.95,0.92c0,8.47 -3.3,16.43 -9.28,22.41c-5.99,5.99 -13.95,9.28 -22.41,9.28s-16.43,-3.3 -22.41,-9.28c-5.99,-5.99 -9.28,-13.95 -9.28,-22.41s3.3,-16.43 9.28,-22.41c5.99,-5.99 13.95,-9.28 22.41,-9.28s16.43,3.3 22.41,9.28c5.99,5.99 9.28,13.95 9.28,22.41zm-1.27,0c0,-16.78 -13.65,-30.43 -30.43,-30.43s-30.43,13.65 -30.43,30.44s13.65,30.43 30.43,30.43s30.43,-13.65 30.43,-30.43l0,-0.01zm-8.41,0c0,3.83 -0.98,7.42 -2.71,10.56l0.28,2.63l-2,0c-4.02,5.35 -10.41,8.83 -17.6,8.83s-13.58,-3.48 -17.6,-8.83l-2,0l0.28,-2.63c-1.72,-3.14 -2.71,-6.74 -2.71,-10.56c0,-12.14 9.88,-22.02 22.02,-22.02s22.02,9.88 22.02,22.02l0.02,0zm-14.66,4.49l1.57,-1.01l0.07,-1.35l0.27,-5.38l-1.31,0l0,-1.38l-1.73,0l0,1.38l-3,0l0,-1.38l-1.73,0l0,1.38l-3,0l0,-1.38l-1.73,0l0,1.38l-3,0l0,-1.38l-1.73,0l0,1.38l-1.31,0l0.33,6.73l1.57,1.01s0.05,0.04 0.07,0.06c0,0 0.01,0.01 0.02,0.02c0.02,0.02 0.03,0.04 0.04,0.06c0,0 0,0.01 0.01,0.02c0.02,0.03 0.03,0.05 0.04,0.08c0,0 0,0.01 0,0.02c0,0.02 0.01,0.05 0.02,0.07c0,0 0,0 0,0.01l0.74,6.86l3.55,0l0,-5.99l0,0c0,-0.67 0.32,-1.36 0.93,-1.84c0.07,-0.05 0.14,-0.1 0.21,-0.15c0.45,-0.29 1.03,-0.46 1.73,-0.46s1.28,0.18 1.73,0.46c0.07,0.05 0.15,0.1 0.21,0.15c0.61,0.48 0.93,1.17 0.93,1.84l0,0l0,5.99l3.55,0l0.19,-1.74l0,0s0.55,-5.13 0.55,-5.13c0,0 0,0 0,-0.01c0,-0.03 0,-0.05 0.02,-0.07c0,0 0,-0.01 0,-0.02c0.01,-0.03 0.02,-0.06 0.04,-0.08c0,0 0,-0.01 0.01,-0.02c0.01,-0.02 0.02,-0.03 0.03,-0.04c0,0 0,0 0.01,-0.01c0,0 0,0 0,0c0,0 0,-0.01 0.01,-0.01c0.02,-0.02 0.05,-0.04 0.07,-0.06l0.02,-0.01zm-22.73,-15.81l0,-1.38l-1.14,0l0,2.66l7.17,0l0,-2.66l-1.14,0l0,1.38l-1.65,0l0,-1.38l-1.59,0l0,1.38l-1.65,0zm-1.14,1.75l0.65,1.17l5.87,0l0.65,-1.17l-7.17,0zm0.63,1.63l-0.47,9.51l0,0s-0.09,1.71 -0.09,1.71l7.04,0l-0.47,-9.37l0,0s-0.09,-1.85 -0.09,-1.85c0,0 -0.02,0 -0.02,0l-5.87,0s-0.02,0 -0.02,0l-0.01,0zm8.27,12.82l-1.77,-1.14l-7.08,0l-1.77,1.14l10.63,0l-0.01,0zm19.74,-16.19l-1.65,0l0,-1.38l-1.14,0l0,2.66l7.17,0l0,-2.66l-1.14,0l0,1.38l-1.65,0l0,-1.38l-1.59,0l0,1.38zm-2.14,2.92l5.87,0l0.65,-1.17l-7.17,0l0.65,1.17zm8.25,13.28l-1.77,-1.14l-7.08,0l-1.77,1.14l10.63,0l-0.01,0zm-2.03,-6.27l0,0l-0.33,-6.54s-0.02,0 -0.02,0l-5.87,0s-0.02,0 -0.02,0l-0.56,11.22l7.04,0l-0.23,-4.67l-0.01,-0.01zm-32.84,-11.76l1.72,0l0,1.38l0.72,0l0,-1.38l2.52,0l0,1.38l0.72,0l0,-1.38l2.07,0l0,3.58l0,0s0,0 0,0c0,0.01 0,0.03 0,0.04c0,0 0,0.01 0,0.02c0,0.01 0,0.02 0,0.03c0,0 0,0 0,0.01c0,0 0,0.01 0,0.02c0,0.01 0,0.03 -0.01,0.04c0,0 0,0.01 0,0.02c0,0.01 -0.01,0.03 -0.02,0.04c0,0 0,0 0,0.01l0,0s0,0.01 0,0.01l-0.58,1.04l0.08,1.68l12.22,-14.43c-0.91,-0.12 -1.84,-0.18 -2.78,-0.18c-6.73,0 -12.74,3.16 -16.63,8.06l-0.03,0.01zm-3.66,19.36l3.44,-4.06l0.52,-10.44l-0.58,-1.05s-0.01,-0.02 -0.02,-0.03c0,0 0,-0.01 0,-0.02c0,-0.02 -0.02,-0.05 -0.02,-0.07c0,0 0,-0.01 0,-0.02c0,-0.02 0,-0.05 0,-0.07c0,0 0,0 0,0l0,-3.14c-2.66,3.55 -4.24,7.95 -4.24,12.71c0,2.16 0.33,4.24 0.93,6.21l-0.03,-0.02zm2.34,6.52l2.84,0s0.5,0 0.5,0l0,-3.99c0,-0.61 0.43,-1.16 1.15,-1.36c0.17,-0.04 0.34,-0.07 0.54,-0.07l0,0c1.05,0 1.69,0.68 1.69,1.43l0,3.99l0.23,0s4.23,0 4.23,0l-0.34,-3.17l-0.45,-4.23s-0.03,0 -0.05,0l-10.62,0s-0.03,0 -0.05,0l-0.47,4.35l-0.17,1.56s0,0 0,0l-0.16,1.48l1.13,0l0,0.01zm34.54,0.46l-10.34,0l0.11,-1.04l-1.63,0l-7.52,8.88c0.91,0.12 1.84,0.18 2.78,0.18c6.71,0 12.7,-3.14 16.59,-8.02l0.01,0zm2.49,-0.46l-0.79,-7.39s-0.03,0 -0.05,0l-7.73,0s-2.9,0 -2.9,0c-0.02,0 -0.03,0 -0.05,0l-0.79,7.39l3.97,0s0.5,0 0.5,0l0,-3.99c0,-0.75 0.65,-1.43 1.69,-1.43s1.69,0.68 1.69,1.43l0,3.99l0.23,0s2.11,0 2.11,0l2.12,0zm1.21,-18.94l-3.64,4.3l0.27,5.39l1.57,1.01s0.05,0.04 0.07,0.06c0,0 0.01,0.01 0.02,0.02c0.02,0.02 0.03,0.04 0.04,0.06c0,0 0,0.01 0.01,0.02c0.02,0.03 0.03,0.05 0.04,0.08c0,0 0,0.01 0,0.02c0,0.02 0.01,0.05 0.02,0.07c0,0 0,0 0,0.01l0.46,4.26c1.31,-2.76 2.06,-5.83 2.06,-9.09c0,-2.16 -0.33,-4.24 -0.93,-6.21l0.01,0zm4.29,4.32l0.55,-1.15c-0.41,-0.23 -0.7,-0.49 -0.79,-1c-0.12,-0.69 0.37,-1.28 1.11,-1.41l0.01,0c0.72,-0.13 1.39,0.25 1.51,0.94c0.08,0.47 -0.08,0.83 -0.39,1.18l0.98,0.89c0.53,-0.54 0.83,-1.26 0.66,-2.27c-0.26,-1.49 -1.58,-2.39 -3.02,-2.14l-0.01,0c-1.47,0.26 -2.34,1.58 -2.1,2.99c0.19,1.09 0.77,1.63 1.5,1.98l-0.01,-0.01zm-13.32,-18.85l2.75,-4.17l1.79,1.18c1.05,0.69 1.38,1.68 0.77,2.61l0,0c-0.65,1 -1.75,1.02 -2.78,0.33l-0.57,-0.38l-0.78,1.19l-1.16,-0.76l-0.02,0zm2.54,-1.34l0.55,0.36c0.41,0.27 0.8,0.22 1.02,-0.11l0,0c0.24,-0.37 0.11,-0.73 -0.31,-1l-0.54,-0.36l-0.73,1.1l0.01,0.01zm14.71,23.34l-0.09,1.33l-5.16,1.78l0.1,-1.48l0.91,-0.3l0.13,-1.92l-0.87,-0.42l0.1,-1.45l4.88,2.46zm-1.68,0.55l-1.38,-0.66l-0.08,1.12l1.45,-0.46l0.01,0zm-0.34,-12.37l-4.68,1.73l0.48,1.3l4.68,-1.73l-0.48,-1.3zm-32.81,36.08l-1.25,-3.1l-1.24,-0.36l-1.38,4.8l1.32,0.38l0.76,-2.63l1.29,3.22l1.17,0.33l1.38,-4.8l-1.32,-0.38l-0.73,2.54zm2.9,2.96l4.05,0.21l0.06,-1.18l-2.68,-0.14l0.04,-0.79l2.39,0.12l0.06,-1.09l-2.39,-0.12l0.04,-0.76l2.64,0.13l0.06,-1.18l-4.01,-0.2l-0.25,4.99l-0.01,0.01zm-19.98,-25.89l0.11,1.38l-4.98,0.39l-0.18,-2.35c-0.06,-0.76 0.1,-1.3 0.41,-1.66c0.26,-0.31 0.63,-0.49 1.13,-0.53l0.01,0c0.76,-0.06 1.3,0.31 1.61,0.9l1.64,-1.32l0.12,1.59l-1.43,1.12l0,0s0.05,0.6 0.05,0.6l1.51,-0.12zm-2.59,0.2l-0.07,-0.91c-0.04,-0.47 -0.29,-0.72 -0.65,-0.69l-0.01,0c-0.39,0.03 -0.57,0.33 -0.53,0.79l0.07,0.9l1.2,-0.09l-0.01,0zm7.92,-18l-0.99,-0.7l-1.39,1.98l-3.09,-2.18l-0.8,1.13l4.08,2.88l2.19,-3.11zm2.43,-2.49l-2.96,-4.02l2.06,-1.52c0.51,-0.37 0.95,-0.51 1.36,-0.45c0.28,0.04 0.53,0.18 0.74,0.46l0,0c0.34,0.48 0.28,0.95 0.04,1.36c0.61,-0.2 1.12,-0.15 1.52,0.39l0,0c0.51,0.7 0.25,1.54 -0.71,2.24l-2.07,1.53l0.02,0.01zm-0.7,-3.22l0.7,-0.52c0.34,-0.25 0.44,-0.5 0.27,-0.74l0,0c-0.16,-0.23 -0.43,-0.23 -0.76,0.02l-0.72,0.53l0.52,0.71l-0.01,0zm0.58,0.78l0.55,0.74l0.86,-0.63c0.34,-0.25 0.44,-0.53 0.26,-0.76l0,0c-0.16,-0.23 -0.44,-0.25 -0.81,0.03l-0.85,0.63l-0.01,-0.01zm4.62,41l-2.22,4.47l1.25,0.62l2.23,-4.47l-1.25,-0.62l-0.01,0zm-11.16,-30.88l-0.72,1.79l0.69,0.66l-0.55,1.35l-3.87,-3.86l0.5,-1.24l5.46,-0.09l-0.56,1.38l-0.96,0l0.01,0.01zm-1.15,-0.03l-1.53,-0.02l1.11,1.05l0.42,-1.04l0,0.01zm8.32,28.29l-2.9,4.07l3.1,2.21l0.7,-0.99l-1.97,-1.4l2.19,-3.08l-1.13,-0.8l0.01,-0.01zm20.23,4.85l0.46,2.6l-2.48,-2.24l-1.27,0.22l0.87,4.92l1.35,-0.24l-0.48,-2.7l2.58,2.33l1.19,-0.21l-0.87,-4.92l-1.35,0.24zm-29.62,-26.15l-0.78,-0.12l0.35,-2.37l-1.08,-0.16l-0.35,2.37l-0.75,-0.11l0.38,-2.62l-1.16,-0.17l-0.58,3.97l4.94,0.73l0.59,-4.01l-1.16,-0.17l-0.39,2.65l-0.01,0.01zm22.77,-20.49l-0.19,-1.2l-2.39,0.38l-0.6,-3.73l-1.37,0.22l0.79,4.93l3.76,-0.6zm17.05,46.34l-0.46,-0.65l1.96,-1.38l-0.63,-0.89l-1.96,1.38l-0.43,-0.62l2.17,-1.52l-0.68,-0.96l-3.29,2.31l2.87,4.09l3.32,-2.33l-0.68,-0.96l-2.19,1.54l0,-0.01zm-7.9,-48.15l0.57,2.25l0.03,0s1.85,-1.42 1.85,-1.42l-0.94,2.71l1.3,0.45l1.63,-4.72l-1.38,-0.48l-1.76,1.44l-0.49,-2.22l-1.38,-0.48l-1.63,4.72l1.28,0.44l0.93,-2.7l-0.01,0.01zm-8.47,-0.76l0,0c0.09,-1.45 1.31,-2.54 2.85,-2.44c1.54,0.09 2.61,1.31 2.52,2.74l0,0c-0.09,1.45 -1.31,2.54 -2.85,2.44c-1.54,-0.09 -2.61,-1.31 -2.52,-2.74zm1.42,0.07c-0.04,0.72 0.44,1.38 1.19,1.42c0.76,0.05 1.31,-0.53 1.35,-1.25l0,0c0.04,-0.73 -0.44,-1.39 -1.2,-1.44c-0.75,-0.05 -1.3,0.54 -1.34,1.25l0,0l0,0.02zm12.18,50.15c-0.37,-0.86 -1.17,-0.92 -2.32,-0.7c-0.7,0.13 -0.89,0.1 -0.98,-0.11l0,0c-0.07,-0.18 0.03,-0.37 0.33,-0.5c0.41,-0.17 0.93,-0.21 1.48,-0.1l0.25,-1.17c-0.67,-0.19 -1.37,-0.14 -2.15,0.19c-1.1,0.47 -1.52,1.37 -1.15,2.23l0,0c0.4,0.96 1.27,0.91 2.35,0.72c0.68,-0.12 0.88,-0.08 0.96,0.11l0,0c0.08,0.21 -0.05,0.41 -0.39,0.55c-0.53,0.23 -1.12,0.25 -1.72,0.08l-0.35,1.15c0.78,0.27 1.66,0.19 2.48,-0.16c1.12,-0.48 1.62,-1.35 1.22,-2.29l0,0l-0.01,0zm-22.73,-45.35l-1.35,0.55l0.05,-5.46l1.23,-0.51l3.88,3.84l-1.37,0.57l-0.68,-0.69l-1.78,0.73l0,0.96l0.02,0.01zm-0.03,-2.11l1.04,-0.43l-1.06,-1.1l0.02,1.53zm9.71,22.39c0.21,0.21 0.35,0.54 0.35,1.08l0,0c0,0.96 -0.47,1.61 -1.35,1.61c-0.43,0 -0.75,-0.14 -1.02,-0.35l0.38,-0.56c0.2,0.16 0.39,0.23 0.62,0.23c0.33,0 0.51,-0.23 0.55,-0.61c-0.15,0.14 -0.36,0.24 -0.62,0.24c-0.57,0 -0.98,-0.35 -0.98,-0.92l0,0c0,-0.65 0.5,-1.07 1.16,-1.07c0.42,0 0.67,0.12 0.9,0.34l0.01,0.01zm-0.45,0.68c0,-0.22 -0.16,-0.4 -0.42,-0.4s-0.41,0.17 -0.41,0.39l0,0c0,0.23 0.16,0.39 0.42,0.39s0.41,-0.17 0.41,-0.38l0,0zm1.32,-0.75l0.15,0.62l0.49,-0.11l0,2.18l0.8,0l0,-2.94l-0.59,0l-0.85,0.24l0,0.01zm-5.16,0l0.15,0.62l0.49,-0.11l0,2.18l0.8,0l0,-2.94l-0.59,0l-0.85,0.24l0,0.01zm8.96,1.69c0.43,-0.31 0.67,-0.55 0.67,-1.02l0,0c0,-0.56 -0.44,-0.94 -1.07,-0.94c-0.57,0 -0.87,0.22 -1.19,0.62l0.55,0.45c0.23,-0.26 0.38,-0.37 0.58,-0.37s0.32,0.11 0.32,0.3s-0.1,0.31 -0.37,0.52l-1.09,0.83l0,0.61l2.31,0l0,-0.66l-1.2,0l0.5,-0.35l-0.01,0.01zm8.8,-6.24c-0.9,0 -1.46,0.59 -1.46,1.23l0,3.43l0,0s2.91,0 2.91,0l0,0l0,-3.43c0,-0.64 -0.56,-1.23 -1.46,-1.23l0.01,0z" id="svg_30"/>
   </g>
   <g id="svg_31">
    <path class="cls-2" d="m-235.76,-79.96c3.49,-0.94 7.34,-1.49 10.93,-1.56l0,2.01c-0.64,0.29 -1.09,0.94 -1.09,1.69c0,0.25 0.05,0.49 0.14,0.7c-2.45,0.1 -4.85,0.4 -7.21,0.91c0.03,-0.14 0.05,-0.29 0.05,-0.44c0,-1.03 -0.83,-1.86 -1.86,-1.86c-0.08,0 -0.17,0 -0.25,0.02c-0.28,-0.5 -0.52,-0.99 -0.72,-1.47l0.01,0zm-5.66,6.52c1.72,-0.77 3.47,-1.42 5.25,-1.96c-0.3,-0.33 -0.49,-0.77 -0.49,-1.25c0,-0.38 0.11,-0.72 0.3,-1.02c-0.37,-0.65 -0.67,-1.27 -0.91,-1.86c-2.92,0.91 -5.51,2.12 -7.35,3.56c0.82,0.87 1.88,1.72 3.18,2.52l0.02,0.01zm18.13,-6.07c0.64,0.29 1.09,0.94 1.09,1.69c0,0.25 -0.05,0.49 -0.14,0.7c2.45,0.1 4.85,0.4 7.21,0.91c-0.03,-0.14 -0.05,-0.29 -0.05,-0.44c0,-1.03 0.83,-1.86 1.86,-1.86c0.08,0 0.17,0 0.25,0.02c0.28,-0.5 0.52,-0.99 0.72,-1.47c-3.49,-0.94 -7.34,-1.49 -10.93,-1.56l0,2.01l-0.01,0zm11.53,1.85c0.19,0.29 0.3,0.64 0.3,1.02c0,0.48 -0.19,0.92 -0.49,1.25c1.78,0.53 3.54,1.18 5.25,1.96c1.3,-0.8 2.37,-1.65 3.18,-2.52c-1.84,-1.44 -4.43,-2.65 -7.35,-3.56c-0.24,0.59 -0.53,1.21 -0.91,1.86l0.02,-0.01zm-12.29,2.13c-0.6,0 -1.09,0.49 -1.09,1.09s0.49,1.09 1.09,1.09s1.09,-0.49 1.09,-1.09s-0.49,-1.09 -1.09,-1.09zm-8.04,0.86c-0.6,0 -1.09,0.49 -1.09,1.09s0.49,1.09 1.09,1.09s1.09,-0.49 1.09,-1.09s-0.49,-1.09 -1.09,-1.09zm16.09,0c-0.6,0 -1.09,0.49 -1.09,1.09s0.49,1.09 1.09,1.09s1.09,-0.49 1.09,-1.09s-0.49,-1.09 -1.09,-1.09z" id="svg_32"/>
    <path class="cls-3" d="m-242.44,-72.27c0.31,0.2 0.59,0.44 0.83,0.73l2.75,3.31s0,0 0,0c0.19,-0.09 0.37,-0.19 0.56,-0.28c0,0 0.01,0 0.02,0c0.19,-0.09 0.38,-0.18 0.58,-0.27c1.5,-0.69 3.06,-1.26 4.68,-1.72c0.9,-0.26 1.82,-0.48 2.75,-0.65c0.29,-0.06 0.58,-0.11 0.87,-0.15c1.75,-0.29 3.54,-0.44 5.37,-0.44c0.91,0 1.82,0.04 2.71,0.11c3.87,0.32 7.55,1.3 10.93,2.84c0,0 0,0 0,0c0.19,0.09 0.38,0.18 0.57,0.27c0,0 0,0 0.01,0c0.19,0.09 0.37,0.18 0.56,0.27c0,0 0,0 0,0l2.68,-3.24c0.24,-0.29 0.52,-0.53 0.84,-0.73c5.07,-3.17 5.93,-6.45 5.73,-8.67c-0.25,-2.78 -2.41,-5.4 -5.38,-6.51c-2.16,-0.81 -4.28,-0.63 -5.85,0.43c-0.21,-0.33 -0.43,-0.61 -0.65,-0.86c-2.44,-2.76 -7.13,-3.92 -10.67,-2.92c-0.13,-0.47 -0.49,-0.85 -0.94,-1.02l0,-1.69l1.2,0l0,-1.08l-1.2,0l0,-1.09l-1.08,0l0,1.09l-1.2,0l0,1.08l1.2,0l0,1.69c-0.45,0.17 -0.81,0.55 -0.94,1.02c-3.55,-1 -8.24,0.16 -10.67,2.92c-0.22,0.25 -0.44,0.53 -0.65,0.86c-1.57,-1.07 -3.7,-1.24 -5.85,-0.43c-2.97,1.11 -5.13,3.72 -5.38,6.51c-0.2,2.21 0.65,5.47 5.65,8.62l-0.03,0zm10.35,-0.23c-0.6,0 -1.09,-0.49 -1.09,-1.09s0.49,-1.09 1.09,-1.09s1.09,0.49 1.09,1.09s-0.49,1.09 -1.09,1.09zm16.09,0c-0.6,0 -1.09,-0.49 -1.09,-1.09s0.49,-1.09 1.09,-1.09s1.09,0.49 1.09,1.09s-0.49,1.09 -1.09,1.09zm5.16,-7.03c1.01,-2.54 0.87,-4.54 0.31,-6.04c1.17,-0.89 2.86,-1.04 4.61,-0.39c2.02,0.75 4.16,2.65 4.38,5.2c0.15,1.64 -0.52,3.26 -1.96,4.79c-0.82,0.87 -1.88,1.72 -3.18,2.52c-1.72,-0.77 -3.47,-1.42 -5.25,-1.96c0.3,-0.33 0.49,-0.77 0.49,-1.25c0,-0.38 -0.11,-0.72 -0.3,-1.02c0.37,-0.65 0.67,-1.27 0.91,-1.86l-0.01,0.01zm-12.43,-1.99l0,-7.3c2.73,-1.39 7.7,-0.85 10.23,2.02c1.58,1.8 1.8,4.15 0.7,6.84c-0.2,0.48 -0.44,0.97 -0.72,1.47c-0.08,-0.01 -0.16,-0.02 -0.25,-0.02c-1.03,0 -1.86,0.83 -1.86,1.86c0,0.15 0.02,0.3 0.05,0.44c-2.36,-0.51 -4.77,-0.81 -7.21,-0.91c0.09,-0.22 0.14,-0.45 0.14,-0.7c0,-0.75 -0.45,-1.4 -1.09,-1.69l0,-2.01l0.01,0zm-0.77,5.98c0.6,0 1.09,0.49 1.09,1.09s-0.49,1.09 -1.09,1.09s-1.09,-0.49 -1.09,-1.09s0.49,-1.09 1.09,-1.09zm-11,-11.27c2.53,-2.87 7.5,-3.41 10.23,-2.02l0,9.31c-0.64,0.29 -1.09,0.94 -1.09,1.69c0,0.25 0.05,0.49 0.14,0.7c-2.45,0.1 -4.85,0.4 -7.21,0.91c0.03,-0.14 0.05,-0.29 0.05,-0.44c0,-1.03 -0.83,-1.86 -1.86,-1.86c-0.08,0 -0.17,0 -0.25,0.02c-0.28,-0.5 -0.52,-0.99 -0.72,-1.47c-1.1,-2.69 -0.89,-5.05 0.7,-6.84l0.01,0zm-11.5,6.05c0.23,-2.55 2.36,-4.45 4.38,-5.2c1.76,-0.65 3.44,-0.5 4.61,0.39c-0.56,1.5 -0.7,3.51 0.31,6.04c0.24,0.59 0.53,1.21 0.91,1.86c-0.19,0.29 -0.3,0.64 -0.3,1.02c0,0.48 0.19,0.92 0.49,1.25c-1.78,0.53 -3.54,1.18 -5.25,1.96c-1.3,-0.8 -2.37,-1.65 -3.18,-2.52c-1.43,-1.53 -2.1,-3.15 -1.96,-4.79l-0.01,-0.01z" id="svg_33"/>
   </g>
  </g>
 </g>
</svg>